<?xml version="1.0" encoding="UTF-8" standalone="no"?>
<!DOCTYPE svg PUBLIC "-//W3C//DTD SVG 1.1//EN"
 "http://www.w3.org/Graphics/SVG/1.1/DTD/svg11.dtd">
<!-- Generated by graphviz version 2.44.1 (20200629.0846)
 -->
<!-- Title: dependencies Pages: 1 -->
<svg width="518pt" height="284pt"
 viewBox="0.00 0.00 518.00 284.00" xmlns="http://www.w3.org/2000/svg" xmlns:xlink="http://www.w3.org/1999/xlink">
<g id="graph0" class="graph" transform="scale(1 1) rotate(0) translate(4 280)">
<title>dependencies</title>
<polygon fill="white" stroke="transparent" points="-4,4 -4,-280 514,-280 514,4 -4,4"/>
<text text-anchor="start" x="234.01" y="-42.4" font-family="sans-serif" font-weight="bold" font-size="14.00">Legend</text>
<polygon fill="#ffffb3" stroke="transparent" points="21,-10 21,-30 41,-30 41,-10 21,-10"/>
<text text-anchor="start" x="44.63" y="-15.4" font-family="sans-serif" font-size="14.00"> &#160;Declarations</text>
<polygon fill="#8dd3c7" stroke="transparent" points="134,-10 134,-30 154,-30 154,-10 134,-10"/>
<text text-anchor="start" x="157.73" y="-15.4" font-family="sans-serif" font-size="14.00"> &#160;Module</text>
<polygon fill="#80b1d3" stroke="transparent" points="220,-10 220,-30 240,-30 240,-10 220,-10"/>
<text text-anchor="start" x="243.78" y="-15.4" font-family="sans-serif" font-size="14.00"> &#160;Bootstrap</text>
<polygon fill="#fdb462" stroke="transparent" points="317,-10 317,-30 337,-30 337,-10 317,-10"/>
<text text-anchor="start" x="340.67" y="-15.4" font-family="sans-serif" font-size="14.00"> &#160;Providers</text>
<polygon fill="#fb8072" stroke="transparent" points="413,-10 413,-30 433,-30 433,-10 413,-10"/>
<text text-anchor="start" x="436.73" y="-15.4" font-family="sans-serif" font-size="14.00"> &#160;Exports</text>
<g id="clust1" class="cluster">
<title>cluster_ReviewListModule</title>
<polygon fill="none" stroke="black" stroke-dasharray="1,5" points="8,-70 8,-268 502,-268 502,-70 8,-70"/>
</g>
<g id="clust4" class="cluster">
<title>cluster_ReviewListModule_imports</title>
<polygon fill="none" stroke="black" points="380,-78 380,-130 494,-130 494,-78 380,-78"/>
</g>
<g id="clust2" class="cluster">
<title>cluster_ReviewListModule_declarations</title>
<polygon fill="none" stroke="black" points="210,-78 210,-130 372,-130 372,-78 210,-78"/>
</g>
<g id="clust7" class="cluster">
<title>cluster_ReviewListModule_providers</title>
<polygon fill="none" stroke="black" points="16,-78 16,-130 202,-130 202,-78 16,-78"/>
</g>
<g id="clust5" class="cluster">
<title>cluster_ReviewListModule_exports</title>
<polygon fill="none" stroke="black" points="208,-208 208,-260 374,-260 374,-208 208,-208"/>
</g>
<!-- ReviewListComponent -->
<g id="node1" class="node">
<title>ReviewListComponent</title>
<polygon fill="#ffffb3" stroke="black" points="363.87,-122 218.13,-122 218.13,-86 363.87,-86 363.87,-122"/>
<text text-anchor="middle" x="291" y="-99.8" font-family="Times,serif" font-size="14.00">ReviewListComponent</text>
</g>
<!-- ReviewListModule -->
<g id="node2" class="node">
<title>ReviewListModule</title>
<polygon fill="#8dd3c7" stroke="black" points="353.09,-187 350.09,-191 329.09,-191 326.09,-187 228.91,-187 228.91,-151 353.09,-151 353.09,-187"/>
<text text-anchor="middle" x="291" y="-164.8" font-family="Times,serif" font-size="14.00">ReviewListModule</text>
</g>
<!-- ReviewListComponent&#45;&gt;ReviewListModule -->
<g id="edge1" class="edge">
<title>ReviewListComponent&#45;&gt;ReviewListModule</title>
<path fill="none" stroke="black" d="M291,-122.11C291,-122.11 291,-140.99 291,-140.99"/>
<polygon fill="black" stroke="black" points="287.5,-140.99 291,-150.99 294.5,-140.99 287.5,-140.99"/>
</g>
<!-- ReviewListComponent  -->
<g id="node4" class="node">
<title>ReviewListComponent </title>
<polygon fill="#fb8072" stroke="black" points="365.87,-252 216.13,-252 216.13,-216 365.87,-216 365.87,-252"/>
<text text-anchor="middle" x="291" y="-229.8" font-family="Times,serif" font-size="14.00">ReviewListComponent </text>
</g>
<!-- ReviewListModule&#45;&gt;ReviewListComponent  -->
<g id="edge3" class="edge">
<title>ReviewListModule&#45;&gt;ReviewListComponent </title>
<path fill="none" stroke="black" stroke-dasharray="5,2" d="M291,-187.11C291,-187.11 291,-205.99 291,-205.99"/>
<polygon fill="black" stroke="black" points="287.5,-205.99 291,-215.99 294.5,-205.99 287.5,-205.99"/>
</g>
<!-- SharedModule -->
<g id="node3" class="node">
<title>SharedModule</title>
<polygon fill="#8dd3c7" stroke="black" points="486.42,-122 483.42,-126 462.42,-126 459.42,-122 387.58,-122 387.58,-86 486.42,-86 486.42,-122"/>
<text text-anchor="middle" x="437" y="-99.8" font-family="Times,serif" font-size="14.00">SharedModule</text>
</g>
<!-- SharedModule&#45;&gt;ReviewListModule -->
<g id="edge2" class="edge">
<title>SharedModule&#45;&gt;ReviewListModule</title>
<path fill="none" stroke="black" d="M437,-122.11C437,-141.34 437,-169 437,-169 437,-169 363.34,-169 363.34,-169"/>
<polygon fill="black" stroke="black" points="363.34,-165.5 353.34,-169 363.34,-172.5 363.34,-165.5"/>
</g>
<!-- ReviewListService -->
<g id="node5" class="node">
<title>ReviewListService</title>
<ellipse fill="#fdb462" stroke="black" cx="109" cy="-104" rx="84.52" ry="18"/>
<text text-anchor="middle" x="109" y="-99.8" font-family="Times,serif" font-size="14.00">ReviewListService</text>
</g>
<!-- ReviewListService&#45;&gt;ReviewListModule -->
<g id="edge4" class="edge">
<title>ReviewListService&#45;&gt;ReviewListModule</title>
<path fill="none" stroke="black" d="M109,-122.11C109,-141.34 109,-169 109,-169 109,-169 218.87,-169 218.87,-169"/>
<polygon fill="black" stroke="black" points="218.87,-172.5 228.87,-169 218.87,-165.5 218.87,-172.5"/>
</g>
</g>
</svg>
