<?xml version="1.0" encoding="UTF-8" standalone="no"?>
<!DOCTYPE svg PUBLIC "-//W3C//DTD SVG 1.1//EN"
 "http://www.w3.org/Graphics/SVG/1.1/DTD/svg11.dtd">
<!-- Generated by graphviz version 2.44.1 (20200629.0846)
 -->
<!-- Title: dependencies Pages: 1 -->
<svg width="1525pt" height="284pt"
 viewBox="0.00 0.00 1525.00 284.00" xmlns="http://www.w3.org/2000/svg" xmlns:xlink="http://www.w3.org/1999/xlink">
<g id="graph0" class="graph" transform="scale(1 1) rotate(0) translate(4 280)">
<title>dependencies</title>
<polygon fill="white" stroke="transparent" points="-4,4 -4,-280 1521,-280 1521,4 -4,4"/>
<text text-anchor="start" x="737.51" y="-42.4" font-family="sans-serif" font-weight="bold" font-size="14.00">Legend</text>
<polygon fill="#ffffb3" stroke="transparent" points="524.5,-10 524.5,-30 544.5,-30 544.5,-10 524.5,-10"/>
<text text-anchor="start" x="548.13" y="-15.4" font-family="sans-serif" font-size="14.00"> &#160;Declarations</text>
<polygon fill="#8dd3c7" stroke="transparent" points="637.5,-10 637.5,-30 657.5,-30 657.5,-10 637.5,-10"/>
<text text-anchor="start" x="661.23" y="-15.4" font-family="sans-serif" font-size="14.00"> &#160;Module</text>
<polygon fill="#80b1d3" stroke="transparent" points="723.5,-10 723.5,-30 743.5,-30 743.5,-10 723.5,-10"/>
<text text-anchor="start" x="747.28" y="-15.4" font-family="sans-serif" font-size="14.00"> &#160;Bootstrap</text>
<polygon fill="#fdb462" stroke="transparent" points="820.5,-10 820.5,-30 840.5,-30 840.5,-10 820.5,-10"/>
<text text-anchor="start" x="844.17" y="-15.4" font-family="sans-serif" font-size="14.00"> &#160;Providers</text>
<polygon fill="#fb8072" stroke="transparent" points="916.5,-10 916.5,-30 936.5,-30 936.5,-10 916.5,-10"/>
<text text-anchor="start" x="940.23" y="-15.4" font-family="sans-serif" font-size="14.00"> &#160;Exports</text>
<g id="clust1" class="cluster">
<title>cluster_OverviewModule</title>
<polygon fill="none" stroke="black" stroke-dasharray="1,5" points="8,-70 8,-268 1509,-268 1509,-70 8,-70"/>
</g>
<g id="clust11" class="cluster">
<title>cluster_OverviewModule_providers</title>
<polygon fill="none" stroke="black" points="1205,-78 1205,-130 1501,-130 1501,-78 1205,-78"/>
</g>
<g id="clust8" class="cluster">
<title>cluster_OverviewModule_imports</title>
<polygon fill="none" stroke="black" points="751,-78 751,-130 1197,-130 1197,-78 751,-78"/>
</g>
<g id="clust9" class="cluster">
<title>cluster_OverviewModule_exports</title>
<polygon fill="none" stroke="black" points="544,-208 544,-260 978,-260 978,-208 544,-208"/>
</g>
<g id="clust2" class="cluster">
<title>cluster_OverviewModule_declarations</title>
<polygon fill="none" stroke="black" points="16,-78 16,-130 743,-130 743,-78 16,-78"/>
</g>
<!-- HomeComponent -->
<g id="node1" class="node">
<title>HomeComponent</title>
<polygon fill="#ffffb3" stroke="black" points="734.55,-122 619.45,-122 619.45,-86 734.55,-86 734.55,-122"/>
<text text-anchor="middle" x="677" y="-99.8" font-family="Times,serif" font-size="14.00">HomeComponent</text>
</g>
<!-- OverviewModule -->
<g id="node6" class="node">
<title>OverviewModule</title>
<polygon fill="#8dd3c7" stroke="black" points="799.24,-187 796.24,-191 775.24,-191 772.24,-187 684.76,-187 684.76,-151 799.24,-151 799.24,-187"/>
<text text-anchor="middle" x="742" y="-164.8" font-family="Times,serif" font-size="14.00">OverviewModule</text>
</g>
<!-- HomeComponent&#45;&gt;OverviewModule -->
<g id="edge1" class="edge">
<title>HomeComponent&#45;&gt;OverviewModule</title>
<path fill="none" stroke="black" d="M709.7,-122.11C709.7,-122.11 709.7,-140.99 709.7,-140.99"/>
<polygon fill="black" stroke="black" points="706.2,-140.99 709.7,-150.99 713.2,-140.99 706.2,-140.99"/>
</g>
<!-- OverviewComponent -->
<g id="node2" class="node">
<title>OverviewComponent</title>
<polygon fill="#ffffb3" stroke="black" points="601.03,-122 464.97,-122 464.97,-86 601.03,-86 601.03,-122"/>
<text text-anchor="middle" x="533" y="-99.8" font-family="Times,serif" font-size="14.00">OverviewComponent</text>
</g>
<!-- OverviewComponent&#45;&gt;OverviewModule -->
<g id="edge2" class="edge">
<title>OverviewComponent&#45;&gt;OverviewModule</title>
<path fill="none" stroke="black" d="M576.65,-122.24C576.65,-137.57 576.65,-157 576.65,-157 576.65,-157 674.63,-157 674.63,-157"/>
<polygon fill="black" stroke="black" points="674.63,-160.5 684.63,-157 674.63,-153.5 674.63,-160.5"/>
</g>
<!-- ProjectComponent -->
<g id="node3" class="node">
<title>ProjectComponent</title>
<polygon fill="#ffffb3" stroke="black" points="446.49,-122 325.51,-122 325.51,-86 446.49,-86 446.49,-122"/>
<text text-anchor="middle" x="386" y="-99.8" font-family="Times,serif" font-size="14.00">ProjectComponent</text>
</g>
<!-- ProjectComponent&#45;&gt;OverviewModule -->
<g id="edge3" class="edge">
<title>ProjectComponent&#45;&gt;OverviewModule</title>
<path fill="none" stroke="black" d="M386,-122.02C386,-139.37 386,-163 386,-163 386,-163 674.41,-163 674.41,-163"/>
<polygon fill="black" stroke="black" points="674.41,-166.5 684.41,-163 674.41,-159.5 674.41,-166.5"/>
</g>
<!-- SlidableComponent -->
<g id="node4" class="node">
<title>SlidableComponent</title>
<polygon fill="#ffffb3" stroke="black" points="307.72,-122 180.28,-122 180.28,-86 307.72,-86 307.72,-122"/>
<text text-anchor="middle" x="244" y="-99.8" font-family="Times,serif" font-size="14.00">SlidableComponent</text>
</g>
<!-- SlidableComponent&#45;&gt;OverviewModule -->
<g id="edge4" class="edge">
<title>SlidableComponent&#45;&gt;OverviewModule</title>
<path fill="none" stroke="black" d="M244,-122.11C244,-141.34 244,-169 244,-169 244,-169 674.39,-169 674.39,-169"/>
<polygon fill="black" stroke="black" points="674.39,-172.5 684.39,-169 674.39,-165.5 674.39,-172.5"/>
</g>
<!-- TodoCardComponent -->
<g id="node5" class="node">
<title>TodoCardComponent</title>
<polygon fill="#ffffb3" stroke="black" points="162.1,-122 23.9,-122 23.9,-86 162.1,-86 162.1,-122"/>
<text text-anchor="middle" x="93" y="-99.8" font-family="Times,serif" font-size="14.00">TodoCardComponent</text>
</g>
<!-- TodoCardComponent&#45;&gt;OverviewModule -->
<g id="edge5" class="edge">
<title>TodoCardComponent&#45;&gt;OverviewModule</title>
<path fill="none" stroke="black" d="M93,-122.28C93,-143.32 93,-175 93,-175 93,-175 674.69,-175 674.69,-175"/>
<polygon fill="black" stroke="black" points="674.69,-178.5 684.69,-175 674.69,-171.5 674.69,-178.5"/>
</g>
<!-- FastFeedbackModule  -->
<g id="node10" class="node">
<title>FastFeedbackModule </title>
<polygon fill="#fb8072" stroke="black" points="970.02,-252 829.98,-252 829.98,-216 970.02,-216 970.02,-252"/>
<text text-anchor="middle" x="900" y="-229.8" font-family="Times,serif" font-size="14.00">FastFeedbackModule </text>
</g>
<!-- OverviewModule&#45;&gt;FastFeedbackModule  -->
<g id="edge9" class="edge">
<title>OverviewModule&#45;&gt;FastFeedbackModule </title>
<path fill="none" stroke="black" stroke-dasharray="5,2" d="M799.33,-181C822.38,-181 843.6,-181 843.6,-181 843.6,-181 843.6,-205.76 843.6,-205.76"/>
<polygon fill="black" stroke="black" points="840.1,-205.76 843.6,-215.76 847.1,-205.76 840.1,-205.76"/>
</g>
<!-- OverviewComponent  -->
<g id="node11" class="node">
<title>OverviewComponent </title>
<polygon fill="#fb8072" stroke="black" points="812.03,-252 671.97,-252 671.97,-216 812.03,-216 812.03,-252"/>
<text text-anchor="middle" x="742" y="-229.8" font-family="Times,serif" font-size="14.00">OverviewComponent </text>
</g>
<!-- OverviewModule&#45;&gt;OverviewComponent  -->
<g id="edge10" class="edge">
<title>OverviewModule&#45;&gt;OverviewComponent </title>
<path fill="none" stroke="black" stroke-dasharray="5,2" d="M742,-187.11C742,-187.11 742,-205.99 742,-205.99"/>
<polygon fill="black" stroke="black" points="738.5,-205.99 742,-215.99 745.5,-205.99 738.5,-205.99"/>
</g>
<!-- SharedModule  -->
<g id="node12" class="node">
<title>SharedModule </title>
<polygon fill="#fb8072" stroke="black" points="653.92,-252 552.08,-252 552.08,-216 653.92,-216 653.92,-252"/>
<text text-anchor="middle" x="603" y="-229.8" font-family="Times,serif" font-size="14.00">SharedModule </text>
</g>
<!-- OverviewModule&#45;&gt;SharedModule  -->
<g id="edge11" class="edge">
<title>OverviewModule&#45;&gt;SharedModule </title>
<path fill="none" stroke="black" stroke-dasharray="5,2" d="M684.67,-181C659.95,-181 636.59,-181 636.59,-181 636.59,-181 636.59,-205.76 636.59,-205.76"/>
<polygon fill="black" stroke="black" points="633.09,-205.76 636.59,-215.76 640.09,-205.76 633.09,-205.76"/>
</g>
<!-- FastFeedbackModule -->
<g id="node7" class="node">
<title>FastFeedbackModule</title>
<polygon fill="#8dd3c7" stroke="black" points="1189.02,-122 1186.02,-126 1165.02,-126 1162.02,-122 1052.98,-122 1052.98,-86 1189.02,-86 1189.02,-122"/>
<text text-anchor="middle" x="1121" y="-99.8" font-family="Times,serif" font-size="14.00">FastFeedbackModule</text>
</g>
<!-- FastFeedbackModule&#45;&gt;OverviewModule -->
<g id="edge6" class="edge">
<title>FastFeedbackModule&#45;&gt;OverviewModule</title>
<path fill="none" stroke="black" d="M1121,-122.02C1121,-139.37 1121,-163 1121,-163 1121,-163 809.56,-163 809.56,-163"/>
<polygon fill="black" stroke="black" points="809.56,-159.5 799.56,-163 809.56,-166.5 809.56,-159.5"/>
</g>
<!-- OverviewRoutingModule -->
<g id="node8" class="node">
<title>OverviewRoutingModule</title>
<polygon fill="#8dd3c7" stroke="black" points="1034.86,-122 1031.86,-126 1010.86,-126 1007.86,-122 875.14,-122 875.14,-86 1034.86,-86 1034.86,-122"/>
<text text-anchor="middle" x="955" y="-99.8" font-family="Times,serif" font-size="14.00">OverviewRoutingModule</text>
</g>
<!-- OverviewRoutingModule&#45;&gt;OverviewModule -->
<g id="edge7" class="edge">
<title>OverviewRoutingModule&#45;&gt;OverviewModule</title>
<path fill="none" stroke="black" d="M922.54,-122.24C922.54,-137.57 922.54,-157 922.54,-157 922.54,-157 809.62,-157 809.62,-157"/>
<polygon fill="black" stroke="black" points="809.62,-153.5 799.62,-157 809.62,-160.5 809.62,-153.5"/>
</g>
<!-- SharedModule -->
<g id="node9" class="node">
<title>SharedModule</title>
<polygon fill="#8dd3c7" stroke="black" points="857.42,-122 854.42,-126 833.42,-126 830.42,-122 758.58,-122 758.58,-86 857.42,-86 857.42,-122"/>
<text text-anchor="middle" x="808" y="-99.8" font-family="Times,serif" font-size="14.00">SharedModule</text>
</g>
<!-- SharedModule&#45;&gt;OverviewModule -->
<g id="edge8" class="edge">
<title>SharedModule&#45;&gt;OverviewModule</title>
<path fill="none" stroke="black" d="M779.08,-122.11C779.08,-122.11 779.08,-140.99 779.08,-140.99"/>
<polygon fill="black" stroke="black" points="775.58,-140.99 779.08,-150.99 782.58,-140.99 775.58,-140.99"/>
</g>
<!-- HomeService -->
<g id="node13" class="node">
<title>HomeService</title>
<ellipse fill="#fdb462" stroke="black" cx="1429" cy="-104" rx="63.68" ry="18"/>
<text text-anchor="middle" x="1429" y="-99.8" font-family="Times,serif" font-size="14.00">HomeService</text>
</g>
<!-- HomeService&#45;&gt;OverviewModule -->
<g id="edge12" class="edge">
<title>HomeService&#45;&gt;OverviewModule</title>
<path fill="none" stroke="black" d="M1429,-122.28C1429,-143.32 1429,-175 1429,-175 1429,-175 809.39,-175 809.39,-175"/>
<polygon fill="black" stroke="black" points="809.39,-171.5 799.39,-175 809.39,-178.5 809.39,-171.5"/>
</g>
<!-- ProjectService -->
<g id="node14" class="node">
<title>ProjectService</title>
<ellipse fill="#fdb462" stroke="black" cx="1280" cy="-104" rx="67.19" ry="18"/>
<text text-anchor="middle" x="1280" y="-99.8" font-family="Times,serif" font-size="14.00">ProjectService</text>
</g>
<!-- ProjectService&#45;&gt;OverviewModule -->
<g id="edge13" class="edge">
<title>ProjectService&#45;&gt;OverviewModule</title>
<path fill="none" stroke="black" d="M1280,-122.11C1280,-141.34 1280,-169 1280,-169 1280,-169 809.32,-169 809.32,-169"/>
<polygon fill="black" stroke="black" points="809.32,-165.5 799.32,-169 809.32,-172.5 809.32,-165.5"/>
</g>
</g>
</svg>
