<?xml version="1.0" encoding="UTF-8" standalone="no"?>
<!DOCTYPE svg PUBLIC "-//W3C//DTD SVG 1.1//EN"
 "http://www.w3.org/Graphics/SVG/1.1/DTD/svg11.dtd">
<!-- Generated by graphviz version 2.44.1 (20200629.0846)
 -->
<!-- Title: dependencies Pages: 1 -->
<svg width="504pt" height="284pt"
 viewBox="0.00 0.00 504.00 284.00" xmlns="http://www.w3.org/2000/svg" xmlns:xlink="http://www.w3.org/1999/xlink">
<g id="graph0" class="graph" transform="scale(1 1) rotate(0) translate(4 280)">
<title>dependencies</title>
<polygon fill="white" stroke="transparent" points="-4,4 -4,-280 500,-280 500,4 -4,4"/>
<text text-anchor="start" x="227.01" y="-42.4" font-family="sans-serif" font-weight="bold" font-size="14.00">Legend</text>
<polygon fill="#ffffb3" stroke="transparent" points="14,-10 14,-30 34,-30 34,-10 14,-10"/>
<text text-anchor="start" x="37.63" y="-15.4" font-family="sans-serif" font-size="14.00"> &#160;Declarations</text>
<polygon fill="#8dd3c7" stroke="transparent" points="127,-10 127,-30 147,-30 147,-10 127,-10"/>
<text text-anchor="start" x="150.73" y="-15.4" font-family="sans-serif" font-size="14.00"> &#160;Module</text>
<polygon fill="#80b1d3" stroke="transparent" points="213,-10 213,-30 233,-30 233,-10 213,-10"/>
<text text-anchor="start" x="236.78" y="-15.4" font-family="sans-serif" font-size="14.00"> &#160;Bootstrap</text>
<polygon fill="#fdb462" stroke="transparent" points="310,-10 310,-30 330,-30 330,-10 310,-10"/>
<text text-anchor="start" x="333.67" y="-15.4" font-family="sans-serif" font-size="14.00"> &#160;Providers</text>
<polygon fill="#fb8072" stroke="transparent" points="406,-10 406,-30 426,-30 426,-10 406,-10"/>
<text text-anchor="start" x="429.73" y="-15.4" font-family="sans-serif" font-size="14.00"> &#160;Exports</text>
<g id="clust1" class="cluster">
<title>cluster_GoMobileModule</title>
<polygon fill="none" stroke="black" stroke-dasharray="1,5" points="10,-70 10,-268 486,-268 486,-70 10,-70"/>
</g>
<g id="clust5" class="cluster">
<title>cluster_GoMobileModule_exports</title>
<polygon fill="none" stroke="black" points="180,-208 180,-260 338,-260 338,-208 180,-208"/>
</g>
<g id="clust2" class="cluster">
<title>cluster_GoMobileModule_declarations</title>
<polygon fill="none" stroke="black" points="324,-78 324,-130 478,-130 478,-78 324,-78"/>
</g>
<g id="clust4" class="cluster">
<title>cluster_GoMobileModule_imports</title>
<polygon fill="none" stroke="black" points="202,-78 202,-130 316,-130 316,-78 202,-78"/>
</g>
<g id="clust7" class="cluster">
<title>cluster_GoMobileModule_providers</title>
<polygon fill="none" stroke="black" points="18,-78 18,-130 194,-130 194,-78 18,-78"/>
</g>
<!-- GoMobileComponent -->
<g id="node1" class="node">
<title>GoMobileComponent</title>
<polygon fill="#ffffb3" stroke="black" points="470.38,-122 331.62,-122 331.62,-86 470.38,-86 470.38,-122"/>
<text text-anchor="middle" x="401" y="-99.8" font-family="Times,serif" font-size="14.00">GoMobileComponent</text>
</g>
<!-- GoMobileModule -->
<g id="node2" class="node">
<title>GoMobileModule</title>
<polygon fill="#8dd3c7" stroke="black" points="317.6,-187 314.6,-191 293.6,-191 290.6,-187 200.4,-187 200.4,-151 317.6,-151 317.6,-187"/>
<text text-anchor="middle" x="259" y="-164.8" font-family="Times,serif" font-size="14.00">GoMobileModule</text>
</g>
<!-- GoMobileComponent&#45;&gt;GoMobileModule -->
<g id="edge1" class="edge">
<title>GoMobileComponent&#45;&gt;GoMobileModule</title>
<path fill="none" stroke="black" d="M331.57,-104C320.65,-104 312.88,-104 312.88,-104 312.88,-104 312.88,-140.89 312.88,-140.89"/>
<polygon fill="black" stroke="black" points="309.38,-140.89 312.88,-150.89 316.38,-140.89 309.38,-140.89"/>
</g>
<!-- GoMobileComponent  -->
<g id="node4" class="node">
<title>GoMobileComponent </title>
<polygon fill="#fb8072" stroke="black" points="330.38,-252 187.62,-252 187.62,-216 330.38,-216 330.38,-252"/>
<text text-anchor="middle" x="259" y="-229.8" font-family="Times,serif" font-size="14.00">GoMobileComponent </text>
</g>
<!-- GoMobileModule&#45;&gt;GoMobileComponent  -->
<g id="edge3" class="edge">
<title>GoMobileModule&#45;&gt;GoMobileComponent </title>
<path fill="none" stroke="black" stroke-dasharray="5,2" d="M259,-187.11C259,-187.11 259,-205.99 259,-205.99"/>
<polygon fill="black" stroke="black" points="255.5,-205.99 259,-215.99 262.5,-205.99 255.5,-205.99"/>
</g>
<!-- SharedModule -->
<g id="node3" class="node">
<title>SharedModule</title>
<polygon fill="#8dd3c7" stroke="black" points="308.42,-122 305.42,-126 284.42,-126 281.42,-122 209.58,-122 209.58,-86 308.42,-86 308.42,-122"/>
<text text-anchor="middle" x="259" y="-99.8" font-family="Times,serif" font-size="14.00">SharedModule</text>
</g>
<!-- SharedModule&#45;&gt;GoMobileModule -->
<g id="edge2" class="edge">
<title>SharedModule&#45;&gt;GoMobileModule</title>
<path fill="none" stroke="black" d="M259,-122.11C259,-122.11 259,-140.99 259,-140.99"/>
<polygon fill="black" stroke="black" points="255.5,-140.99 259,-150.99 262.5,-140.99 255.5,-140.99"/>
</g>
<!-- GoMobileService -->
<g id="node5" class="node">
<title>GoMobileService</title>
<ellipse fill="#fdb462" stroke="black" cx="106" cy="-104" rx="79.87" ry="18"/>
<text text-anchor="middle" x="106" y="-99.8" font-family="Times,serif" font-size="14.00">GoMobileService</text>
</g>
<!-- GoMobileService&#45;&gt;GoMobileModule -->
<g id="edge4" class="edge">
<title>GoMobileService&#45;&gt;GoMobileModule</title>
<path fill="none" stroke="black" d="M186.01,-104C197.28,-104 205.12,-104 205.12,-104 205.12,-104 205.12,-140.89 205.12,-140.89"/>
<polygon fill="black" stroke="black" points="201.62,-140.89 205.12,-150.89 208.62,-140.89 201.62,-140.89"/>
</g>
</g>
</svg>
