<?xml version="1.0" encoding="UTF-8" standalone="no"?>
<!DOCTYPE svg PUBLIC "-//W3C//DTD SVG 1.1//EN"
 "http://www.w3.org/Graphics/SVG/1.1/DTD/svg11.dtd">
<!-- Generated by graphviz version 2.44.1 (20200629.0846)
 -->
<!-- Title: dependencies Pages: 1 -->
<svg width="504pt" height="284pt"
 viewBox="0.00 0.00 504.00 284.00" xmlns="http://www.w3.org/2000/svg" xmlns:xlink="http://www.w3.org/1999/xlink">
<g id="graph0" class="graph" transform="scale(1 1) rotate(0) translate(4 280)">
<title>dependencies</title>
<polygon fill="white" stroke="transparent" points="-4,4 -4,-280 500,-280 500,4 -4,4"/>
<text text-anchor="start" x="227.01" y="-42.4" font-family="sans-serif" font-weight="bold" font-size="14.00">Legend</text>
<polygon fill="#ffffb3" stroke="transparent" points="14,-10 14,-30 34,-30 34,-10 14,-10"/>
<text text-anchor="start" x="37.63" y="-15.4" font-family="sans-serif" font-size="14.00"> &#160;Declarations</text>
<polygon fill="#8dd3c7" stroke="transparent" points="127,-10 127,-30 147,-30 147,-10 127,-10"/>
<text text-anchor="start" x="150.73" y="-15.4" font-family="sans-serif" font-size="14.00"> &#160;Module</text>
<polygon fill="#80b1d3" stroke="transparent" points="213,-10 213,-30 233,-30 233,-10 213,-10"/>
<text text-anchor="start" x="236.78" y="-15.4" font-family="sans-serif" font-size="14.00"> &#160;Bootstrap</text>
<polygon fill="#fdb462" stroke="transparent" points="310,-10 310,-30 330,-30 330,-10 310,-10"/>
<text text-anchor="start" x="333.67" y="-15.4" font-family="sans-serif" font-size="14.00"> &#160;Providers</text>
<polygon fill="#fb8072" stroke="transparent" points="406,-10 406,-30 426,-30 426,-10 406,-10"/>
<text text-anchor="start" x="429.73" y="-15.4" font-family="sans-serif" font-size="14.00"> &#160;Exports</text>
<g id="clust1" class="cluster">
<title>cluster_GoMobileModule</title>
<polygon fill="none" stroke="black" stroke-dasharray="1,5" points="10,-70 10,-268 486,-268 486,-70 10,-70"/>
</g>
<g id="clust4" class="cluster">
<title>cluster_GoMobileModule_imports</title>
<polygon fill="none" stroke="black" points="364,-78 364,-130 478,-130 478,-78 364,-78"/>
</g>
<g id="clust7" class="cluster">
<title>cluster_GoMobileModule_providers</title>
<polygon fill="none" stroke="black" points="180,-78 180,-130 356,-130 356,-78 180,-78"/>
</g>
<g id="clust2" class="cluster">
<title>cluster_GoMobileModule_declarations</title>
<polygon fill="none" stroke="black" points="18,-78 18,-130 172,-130 172,-78 18,-78"/>
</g>
<g id="clust5" class="cluster">
<title>cluster_GoMobileModule_exports</title>
<polygon fill="none" stroke="black" points="189,-208 189,-260 347,-260 347,-208 189,-208"/>
</g>
<!-- GoMobileComponent -->
<g id="node1" class="node">
<title>GoMobileComponent</title>
<polygon fill="#ffffb3" stroke="black" points="164.38,-122 25.62,-122 25.62,-86 164.38,-86 164.38,-122"/>
<text text-anchor="middle" x="95" y="-99.8" font-family="Times,serif" font-size="14.00">GoMobileComponent</text>
</g>
<!-- GoMobileModule -->
<g id="node2" class="node">
<title>GoMobileModule</title>
<polygon fill="#8dd3c7" stroke="black" points="326.6,-187 323.6,-191 302.6,-191 299.6,-187 209.4,-187 209.4,-151 326.6,-151 326.6,-187"/>
<text text-anchor="middle" x="268" y="-164.8" font-family="Times,serif" font-size="14.00">GoMobileModule</text>
</g>
<!-- GoMobileComponent&#45;&gt;GoMobileModule -->
<g id="edge1" class="edge">
<title>GoMobileComponent&#45;&gt;GoMobileModule</title>
<path fill="none" stroke="black" d="M95,-122.11C95,-141.34 95,-169 95,-169 95,-169 199.43,-169 199.43,-169"/>
<polygon fill="black" stroke="black" points="199.43,-172.5 209.43,-169 199.43,-165.5 199.43,-172.5"/>
</g>
<!-- GoMobileComponent  -->
<g id="node4" class="node">
<title>GoMobileComponent </title>
<polygon fill="#fb8072" stroke="black" points="339.38,-252 196.62,-252 196.62,-216 339.38,-216 339.38,-252"/>
<text text-anchor="middle" x="268" y="-229.8" font-family="Times,serif" font-size="14.00">GoMobileComponent </text>
</g>
<!-- GoMobileModule&#45;&gt;GoMobileComponent  -->
<g id="edge3" class="edge">
<title>GoMobileModule&#45;&gt;GoMobileComponent </title>
<path fill="none" stroke="black" stroke-dasharray="5,2" d="M268,-187.11C268,-187.11 268,-205.99 268,-205.99"/>
<polygon fill="black" stroke="black" points="264.5,-205.99 268,-215.99 271.5,-205.99 264.5,-205.99"/>
</g>
<!-- SharedModule -->
<g id="node3" class="node">
<title>SharedModule</title>
<polygon fill="#8dd3c7" stroke="black" points="470.42,-122 467.42,-126 446.42,-126 443.42,-122 371.58,-122 371.58,-86 470.42,-86 470.42,-122"/>
<text text-anchor="middle" x="421" y="-99.8" font-family="Times,serif" font-size="14.00">SharedModule</text>
</g>
<!-- SharedModule&#45;&gt;GoMobileModule -->
<g id="edge2" class="edge">
<title>SharedModule&#45;&gt;GoMobileModule</title>
<path fill="none" stroke="black" d="M421,-122.11C421,-141.34 421,-169 421,-169 421,-169 336.72,-169 336.72,-169"/>
<polygon fill="black" stroke="black" points="336.72,-165.5 326.72,-169 336.72,-172.5 336.72,-165.5"/>
</g>
<!-- GoMobileService -->
<g id="node5" class="node">
<title>GoMobileService</title>
<ellipse fill="#fdb462" stroke="black" cx="268" cy="-104" rx="79.87" ry="18"/>
<text text-anchor="middle" x="268" y="-99.8" font-family="Times,serif" font-size="14.00">GoMobileService</text>
</g>
<!-- GoMobileService&#45;&gt;GoMobileModule -->
<g id="edge4" class="edge">
<title>GoMobileService&#45;&gt;GoMobileModule</title>
<path fill="none" stroke="black" d="M268,-122.11C268,-122.11 268,-140.99 268,-140.99"/>
<polygon fill="black" stroke="black" points="264.5,-140.99 268,-150.99 271.5,-140.99 264.5,-140.99"/>
</g>
</g>
</svg>
