<?xml version="1.0" encoding="UTF-8" standalone="no"?>
<!DOCTYPE svg PUBLIC "-//W3C//DTD SVG 1.1//EN"
 "http://www.w3.org/Graphics/SVG/1.1/DTD/svg11.dtd">
<!-- Generated by graphviz version 2.44.1 (20200629.0846)
 -->
<!-- Title: dependencies Pages: 1 -->
<svg width="504pt" height="284pt"
 viewBox="0.00 0.00 504.00 284.00" xmlns="http://www.w3.org/2000/svg" xmlns:xlink="http://www.w3.org/1999/xlink">
<g id="graph0" class="graph" transform="scale(1 1) rotate(0) translate(4 280)">
<title>dependencies</title>
<polygon fill="white" stroke="transparent" points="-4,4 -4,-280 500,-280 500,4 -4,4"/>
<text text-anchor="start" x="227.01" y="-42.4" font-family="sans-serif" font-weight="bold" font-size="14.00">Legend</text>
<polygon fill="#ffffb3" stroke="transparent" points="14,-10 14,-30 34,-30 34,-10 14,-10"/>
<text text-anchor="start" x="37.63" y="-15.4" font-family="sans-serif" font-size="14.00"> &#160;Declarations</text>
<polygon fill="#8dd3c7" stroke="transparent" points="127,-10 127,-30 147,-30 147,-10 127,-10"/>
<text text-anchor="start" x="150.73" y="-15.4" font-family="sans-serif" font-size="14.00"> &#160;Module</text>
<polygon fill="#80b1d3" stroke="transparent" points="213,-10 213,-30 233,-30 233,-10 213,-10"/>
<text text-anchor="start" x="236.78" y="-15.4" font-family="sans-serif" font-size="14.00"> &#160;Bootstrap</text>
<polygon fill="#fdb462" stroke="transparent" points="310,-10 310,-30 330,-30 330,-10 310,-10"/>
<text text-anchor="start" x="333.67" y="-15.4" font-family="sans-serif" font-size="14.00"> &#160;Providers</text>
<polygon fill="#fb8072" stroke="transparent" points="406,-10 406,-30 426,-30 426,-10 406,-10"/>
<text text-anchor="start" x="429.73" y="-15.4" font-family="sans-serif" font-size="14.00"> &#160;Exports</text>
<g id="clust1" class="cluster">
<title>cluster_GoMobileModule</title>
<polygon fill="none" stroke="black" stroke-dasharray="1,5" points="10,-70 10,-268 486,-268 486,-70 10,-70"/>
</g>
<g id="clust4" class="cluster">
<title>cluster_GoMobileModule_imports</title>
<polygon fill="none" stroke="black" points="364,-78 364,-130 478,-130 478,-78 364,-78"/>
</g>
<g id="clust5" class="cluster">
<title>cluster_GoMobileModule_exports</title>
<polygon fill="none" stroke="black" points="200,-208 200,-260 358,-260 358,-208 200,-208"/>
</g>
<g id="clust2" class="cluster">
<title>cluster_GoMobileModule_declarations</title>
<polygon fill="none" stroke="black" points="202,-78 202,-130 356,-130 356,-78 202,-78"/>
</g>
<g id="clust7" class="cluster">
<title>cluster_GoMobileModule_providers</title>
<polygon fill="none" stroke="black" points="18,-78 18,-130 194,-130 194,-78 18,-78"/>
</g>
<!-- GoMobileComponent -->
<g id="node1" class="node">
<title>GoMobileComponent</title>
<polygon fill="#ffffb3" stroke="black" points="348.38,-122 209.62,-122 209.62,-86 348.38,-86 348.38,-122"/>
<text text-anchor="middle" x="279" y="-99.8" font-family="Times,serif" font-size="14.00">GoMobileComponent</text>
</g>
<!-- GoMobileModule -->
<g id="node2" class="node">
<title>GoMobileModule</title>
<polygon fill="#8dd3c7" stroke="black" points="337.6,-187 334.6,-191 313.6,-191 310.6,-187 220.4,-187 220.4,-151 337.6,-151 337.6,-187"/>
<text text-anchor="middle" x="279" y="-164.8" font-family="Times,serif" font-size="14.00">GoMobileModule</text>
</g>
<!-- GoMobileComponent&#45;&gt;GoMobileModule -->
<g id="edge1" class="edge">
<title>GoMobileComponent&#45;&gt;GoMobileModule</title>
<path fill="none" stroke="black" d="M279,-122.11C279,-122.11 279,-140.99 279,-140.99"/>
<polygon fill="black" stroke="black" points="275.5,-140.99 279,-150.99 282.5,-140.99 275.5,-140.99"/>
</g>
<!-- GoMobileComponent  -->
<g id="node4" class="node">
<title>GoMobileComponent </title>
<polygon fill="#fb8072" stroke="black" points="350.38,-252 207.62,-252 207.62,-216 350.38,-216 350.38,-252"/>
<text text-anchor="middle" x="279" y="-229.8" font-family="Times,serif" font-size="14.00">GoMobileComponent </text>
</g>
<!-- GoMobileModule&#45;&gt;GoMobileComponent  -->
<g id="edge3" class="edge">
<title>GoMobileModule&#45;&gt;GoMobileComponent </title>
<path fill="none" stroke="black" stroke-dasharray="5,2" d="M279,-187.11C279,-187.11 279,-205.99 279,-205.99"/>
<polygon fill="black" stroke="black" points="275.5,-205.99 279,-215.99 282.5,-205.99 275.5,-205.99"/>
</g>
<!-- SharedModule -->
<g id="node3" class="node">
<title>SharedModule</title>
<polygon fill="#8dd3c7" stroke="black" points="470.42,-122 467.42,-126 446.42,-126 443.42,-122 371.58,-122 371.58,-86 470.42,-86 470.42,-122"/>
<text text-anchor="middle" x="421" y="-99.8" font-family="Times,serif" font-size="14.00">SharedModule</text>
</g>
<!-- SharedModule&#45;&gt;GoMobileModule -->
<g id="edge2" class="edge">
<title>SharedModule&#45;&gt;GoMobileModule</title>
<path fill="none" stroke="black" d="M421,-122.11C421,-141.34 421,-169 421,-169 421,-169 347.58,-169 347.58,-169"/>
<polygon fill="black" stroke="black" points="347.58,-165.5 337.58,-169 347.58,-172.5 347.58,-165.5"/>
</g>
<!-- GoMobileService -->
<g id="node5" class="node">
<title>GoMobileService</title>
<ellipse fill="#fdb462" stroke="black" cx="106" cy="-104" rx="79.87" ry="18"/>
<text text-anchor="middle" x="106" y="-99.8" font-family="Times,serif" font-size="14.00">GoMobileService</text>
</g>
<!-- GoMobileService&#45;&gt;GoMobileModule -->
<g id="edge4" class="edge">
<title>GoMobileService&#45;&gt;GoMobileModule</title>
<path fill="none" stroke="black" d="M106,-122.11C106,-141.34 106,-169 106,-169 106,-169 210.43,-169 210.43,-169"/>
<polygon fill="black" stroke="black" points="210.43,-172.5 220.43,-169 210.43,-165.5 210.43,-172.5"/>
</g>
</g>
</svg>
