<?xml version="1.0" encoding="UTF-8" standalone="no"?>
<!DOCTYPE svg PUBLIC "-//W3C//DTD SVG 1.1//EN"
 "http://www.w3.org/Graphics/SVG/1.1/DTD/svg11.dtd">
<!-- Generated by graphviz version 2.44.1 (20200629.0846)
 -->
<!-- Title: dependencies Pages: 1 -->
<svg width="504pt" height="284pt"
 viewBox="0.00 0.00 504.00 284.00" xmlns="http://www.w3.org/2000/svg" xmlns:xlink="http://www.w3.org/1999/xlink">
<g id="graph0" class="graph" transform="scale(1 1) rotate(0) translate(4 280)">
<title>dependencies</title>
<polygon fill="white" stroke="transparent" points="-4,4 -4,-280 500,-280 500,4 -4,4"/>
<text text-anchor="start" x="227.01" y="-42.4" font-family="sans-serif" font-weight="bold" font-size="14.00">Legend</text>
<polygon fill="#ffffb3" stroke="transparent" points="14,-10 14,-30 34,-30 34,-10 14,-10"/>
<text text-anchor="start" x="37.63" y="-15.4" font-family="sans-serif" font-size="14.00"> &#160;Declarations</text>
<polygon fill="#8dd3c7" stroke="transparent" points="127,-10 127,-30 147,-30 147,-10 127,-10"/>
<text text-anchor="start" x="150.73" y="-15.4" font-family="sans-serif" font-size="14.00"> &#160;Module</text>
<polygon fill="#80b1d3" stroke="transparent" points="213,-10 213,-30 233,-30 233,-10 213,-10"/>
<text text-anchor="start" x="236.78" y="-15.4" font-family="sans-serif" font-size="14.00"> &#160;Bootstrap</text>
<polygon fill="#fdb462" stroke="transparent" points="310,-10 310,-30 330,-30 330,-10 310,-10"/>
<text text-anchor="start" x="333.67" y="-15.4" font-family="sans-serif" font-size="14.00"> &#160;Providers</text>
<polygon fill="#fb8072" stroke="transparent" points="406,-10 406,-30 426,-30 426,-10 406,-10"/>
<text text-anchor="start" x="429.73" y="-15.4" font-family="sans-serif" font-size="14.00"> &#160;Exports</text>
<g id="clust1" class="cluster">
<title>cluster_GoMobileModule</title>
<polygon fill="none" stroke="black" stroke-dasharray="1,5" points="10,-70 10,-268 486,-268 486,-70 10,-70"/>
</g>
<g id="clust7" class="cluster">
<title>cluster_GoMobileModule_providers</title>
<polygon fill="none" stroke="black" points="302,-78 302,-130 478,-130 478,-78 302,-78"/>
</g>
<g id="clust4" class="cluster">
<title>cluster_GoMobileModule_imports</title>
<polygon fill="none" stroke="black" points="180,-78 180,-130 294,-130 294,-78 180,-78"/>
</g>
<g id="clust5" class="cluster">
<title>cluster_GoMobileModule_exports</title>
<polygon fill="none" stroke="black" points="158,-208 158,-260 316,-260 316,-208 158,-208"/>
</g>
<g id="clust2" class="cluster">
<title>cluster_GoMobileModule_declarations</title>
<polygon fill="none" stroke="black" points="18,-78 18,-130 172,-130 172,-78 18,-78"/>
</g>
<!-- GoMobileComponent -->
<g id="node1" class="node">
<title>GoMobileComponent</title>
<polygon fill="#ffffb3" stroke="black" points="164.38,-122 25.62,-122 25.62,-86 164.38,-86 164.38,-122"/>
<text text-anchor="middle" x="95" y="-99.8" font-family="Times,serif" font-size="14.00">GoMobileComponent</text>
</g>
<!-- GoMobileModule -->
<g id="node2" class="node">
<title>GoMobileModule</title>
<polygon fill="#8dd3c7" stroke="black" points="295.6,-187 292.6,-191 271.6,-191 268.6,-187 178.4,-187 178.4,-151 295.6,-151 295.6,-187"/>
<text text-anchor="middle" x="237" y="-164.8" font-family="Times,serif" font-size="14.00">GoMobileModule</text>
</g>
<!-- GoMobileComponent&#45;&gt;GoMobileModule -->
<g id="edge1" class="edge">
<title>GoMobileComponent&#45;&gt;GoMobileModule</title>
<path fill="none" stroke="black" d="M164.43,-104C175.35,-104 183.12,-104 183.12,-104 183.12,-104 183.12,-140.89 183.12,-140.89"/>
<polygon fill="black" stroke="black" points="179.62,-140.89 183.12,-150.89 186.62,-140.89 179.62,-140.89"/>
</g>
<!-- GoMobileComponent  -->
<g id="node4" class="node">
<title>GoMobileComponent </title>
<polygon fill="#fb8072" stroke="black" points="308.38,-252 165.62,-252 165.62,-216 308.38,-216 308.38,-252"/>
<text text-anchor="middle" x="237" y="-229.8" font-family="Times,serif" font-size="14.00">GoMobileComponent </text>
</g>
<!-- GoMobileModule&#45;&gt;GoMobileComponent  -->
<g id="edge3" class="edge">
<title>GoMobileModule&#45;&gt;GoMobileComponent </title>
<path fill="none" stroke="black" stroke-dasharray="5,2" d="M237,-187.11C237,-187.11 237,-205.99 237,-205.99"/>
<polygon fill="black" stroke="black" points="233.5,-205.99 237,-215.99 240.5,-205.99 233.5,-205.99"/>
</g>
<!-- SharedModule -->
<g id="node3" class="node">
<title>SharedModule</title>
<polygon fill="#8dd3c7" stroke="black" points="286.42,-122 283.42,-126 262.42,-126 259.42,-122 187.58,-122 187.58,-86 286.42,-86 286.42,-122"/>
<text text-anchor="middle" x="237" y="-99.8" font-family="Times,serif" font-size="14.00">SharedModule</text>
</g>
<!-- SharedModule&#45;&gt;GoMobileModule -->
<g id="edge2" class="edge">
<title>SharedModule&#45;&gt;GoMobileModule</title>
<path fill="none" stroke="black" d="M237,-122.11C237,-122.11 237,-140.99 237,-140.99"/>
<polygon fill="black" stroke="black" points="233.5,-140.99 237,-150.99 240.5,-140.99 233.5,-140.99"/>
</g>
<!-- GoMobileService -->
<g id="node5" class="node">
<title>GoMobileService</title>
<ellipse fill="#fdb462" stroke="black" cx="390" cy="-104" rx="79.87" ry="18"/>
<text text-anchor="middle" x="390" y="-99.8" font-family="Times,serif" font-size="14.00">GoMobileService</text>
</g>
<!-- GoMobileService&#45;&gt;GoMobileModule -->
<g id="edge4" class="edge">
<title>GoMobileService&#45;&gt;GoMobileModule</title>
<path fill="none" stroke="black" d="M309.99,-104C298.72,-104 290.88,-104 290.88,-104 290.88,-104 290.88,-140.89 290.88,-140.89"/>
<polygon fill="black" stroke="black" points="287.38,-140.89 290.88,-150.89 294.38,-140.89 287.38,-140.89"/>
</g>
</g>
</svg>
