<?xml version="1.0" encoding="UTF-8" standalone="no"?>
<!DOCTYPE svg PUBLIC "-//W3C//DTD SVG 1.1//EN"
 "http://www.w3.org/Graphics/SVG/1.1/DTD/svg11.dtd">
<!-- Generated by graphviz version 2.44.1 (20200629.0846)
 -->
<!-- Title: dependencies Pages: 1 -->
<svg width="504pt" height="284pt"
 viewBox="0.00 0.00 504.00 284.00" xmlns="http://www.w3.org/2000/svg" xmlns:xlink="http://www.w3.org/1999/xlink">
<g id="graph0" class="graph" transform="scale(1 1) rotate(0) translate(4 280)">
<title>dependencies</title>
<polygon fill="white" stroke="transparent" points="-4,4 -4,-280 500,-280 500,4 -4,4"/>
<text text-anchor="start" x="227.01" y="-42.4" font-family="sans-serif" font-weight="bold" font-size="14.00">Legend</text>
<polygon fill="#ffffb3" stroke="transparent" points="14,-10 14,-30 34,-30 34,-10 14,-10"/>
<text text-anchor="start" x="37.63" y="-15.4" font-family="sans-serif" font-size="14.00"> &#160;Declarations</text>
<polygon fill="#8dd3c7" stroke="transparent" points="127,-10 127,-30 147,-30 147,-10 127,-10"/>
<text text-anchor="start" x="150.73" y="-15.4" font-family="sans-serif" font-size="14.00"> &#160;Module</text>
<polygon fill="#80b1d3" stroke="transparent" points="213,-10 213,-30 233,-30 233,-10 213,-10"/>
<text text-anchor="start" x="236.78" y="-15.4" font-family="sans-serif" font-size="14.00"> &#160;Bootstrap</text>
<polygon fill="#fdb462" stroke="transparent" points="310,-10 310,-30 330,-30 330,-10 310,-10"/>
<text text-anchor="start" x="333.67" y="-15.4" font-family="sans-serif" font-size="14.00"> &#160;Providers</text>
<polygon fill="#fb8072" stroke="transparent" points="406,-10 406,-30 426,-30 426,-10 406,-10"/>
<text text-anchor="start" x="429.73" y="-15.4" font-family="sans-serif" font-size="14.00"> &#160;Exports</text>
<g id="clust1" class="cluster">
<title>cluster_EventListModule</title>
<polygon fill="none" stroke="black" stroke-dasharray="1,5" points="13,-70 13,-268 483,-268 483,-70 13,-70"/>
</g>
<g id="clust7" class="cluster">
<title>cluster_EventListModule_providers</title>
<polygon fill="none" stroke="black" points="303,-78 303,-130 475,-130 475,-78 303,-78"/>
</g>
<g id="clust4" class="cluster">
<title>cluster_EventListModule_imports</title>
<polygon fill="none" stroke="black" points="181,-78 181,-130 295,-130 295,-78 181,-78"/>
</g>
<g id="clust2" class="cluster">
<title>cluster_EventListModule_declarations</title>
<polygon fill="none" stroke="black" points="21,-78 21,-130 173,-130 173,-78 21,-78"/>
</g>
<g id="clust5" class="cluster">
<title>cluster_EventListModule_exports</title>
<polygon fill="none" stroke="black" points="160,-208 160,-260 316,-260 316,-208 160,-208"/>
</g>
<!-- EventListComponent -->
<g id="node1" class="node">
<title>EventListComponent</title>
<polygon fill="#ffffb3" stroke="black" points="164.77,-122 29.23,-122 29.23,-86 164.77,-86 164.77,-122"/>
<text text-anchor="middle" x="97" y="-99.8" font-family="Times,serif" font-size="14.00">EventListComponent</text>
</g>
<!-- EventListModule -->
<g id="node2" class="node">
<title>EventListModule</title>
<polygon fill="#8dd3c7" stroke="black" points="294.99,-187 291.99,-191 270.99,-191 267.99,-187 181.01,-187 181.01,-151 294.99,-151 294.99,-187"/>
<text text-anchor="middle" x="238" y="-164.8" font-family="Times,serif" font-size="14.00">EventListModule</text>
</g>
<!-- EventListComponent&#45;&gt;EventListModule -->
<g id="edge1" class="edge">
<title>EventListComponent&#45;&gt;EventListModule</title>
<path fill="none" stroke="black" d="M164.95,-104C176.53,-104 184.9,-104 184.9,-104 184.9,-104 184.9,-140.89 184.9,-140.89"/>
<polygon fill="black" stroke="black" points="181.4,-140.89 184.9,-150.89 188.4,-140.89 181.4,-140.89"/>
</g>
<!-- EventListComponent  -->
<g id="node4" class="node">
<title>EventListComponent </title>
<polygon fill="#fb8072" stroke="black" points="307.77,-252 168.23,-252 168.23,-216 307.77,-216 307.77,-252"/>
<text text-anchor="middle" x="238" y="-229.8" font-family="Times,serif" font-size="14.00">EventListComponent </text>
</g>
<!-- EventListModule&#45;&gt;EventListComponent  -->
<g id="edge3" class="edge">
<title>EventListModule&#45;&gt;EventListComponent </title>
<path fill="none" stroke="black" stroke-dasharray="5,2" d="M238,-187.11C238,-187.11 238,-205.99 238,-205.99"/>
<polygon fill="black" stroke="black" points="234.5,-205.99 238,-215.99 241.5,-205.99 234.5,-205.99"/>
</g>
<!-- SharedModule -->
<g id="node3" class="node">
<title>SharedModule</title>
<polygon fill="#8dd3c7" stroke="black" points="287.42,-122 284.42,-126 263.42,-126 260.42,-122 188.58,-122 188.58,-86 287.42,-86 287.42,-122"/>
<text text-anchor="middle" x="238" y="-99.8" font-family="Times,serif" font-size="14.00">SharedModule</text>
</g>
<!-- SharedModule&#45;&gt;EventListModule -->
<g id="edge2" class="edge">
<title>SharedModule&#45;&gt;EventListModule</title>
<path fill="none" stroke="black" d="M238,-122.11C238,-122.11 238,-140.99 238,-140.99"/>
<polygon fill="black" stroke="black" points="234.5,-140.99 238,-150.99 241.5,-140.99 234.5,-140.99"/>
</g>
<!-- EventListService -->
<g id="node5" class="node">
<title>EventListService</title>
<ellipse fill="#fdb462" stroke="black" cx="389" cy="-104" rx="77.58" ry="18"/>
<text text-anchor="middle" x="389" y="-99.8" font-family="Times,serif" font-size="14.00">EventListService</text>
</g>
<!-- EventListService&#45;&gt;EventListModule -->
<g id="edge4" class="edge">
<title>EventListService&#45;&gt;EventListModule</title>
<path fill="none" stroke="black" d="M311.39,-104C299.5,-104 291.1,-104 291.1,-104 291.1,-104 291.1,-140.89 291.1,-140.89"/>
<polygon fill="black" stroke="black" points="287.6,-140.89 291.1,-150.89 294.6,-140.89 287.6,-140.89"/>
</g>
</g>
</svg>
