<?xml version="1.0" encoding="UTF-8" standalone="no"?>
<!DOCTYPE svg PUBLIC "-//W3C//DTD SVG 1.1//EN"
 "http://www.w3.org/Graphics/SVG/1.1/DTD/svg11.dtd">
<!-- Generated by graphviz version 2.44.1 (20200629.0846)
 -->
<!-- Title: dependencies Pages: 1 -->
<svg width="679pt" height="211pt"
 viewBox="0.00 0.00 679.00 211.00" xmlns="http://www.w3.org/2000/svg" xmlns:xlink="http://www.w3.org/1999/xlink">
<g id="graph0" class="graph" transform="scale(1 1) rotate(0) translate(4 207)">
<title>dependencies</title>
<polygon fill="white" stroke="transparent" points="-4,4 -4,-207 675,-207 675,4 -4,4"/>
<text text-anchor="start" x="314.51" y="-42.4" font-family="sans-serif" font-weight="bold" font-size="14.00">Legend</text>
<polygon fill="#ffffb3" stroke="transparent" points="101.5,-10 101.5,-30 121.5,-30 121.5,-10 101.5,-10"/>
<text text-anchor="start" x="125.13" y="-15.4" font-family="sans-serif" font-size="14.00"> &#160;Declarations</text>
<polygon fill="#8dd3c7" stroke="transparent" points="214.5,-10 214.5,-30 234.5,-30 234.5,-10 214.5,-10"/>
<text text-anchor="start" x="238.23" y="-15.4" font-family="sans-serif" font-size="14.00"> &#160;Module</text>
<polygon fill="#80b1d3" stroke="transparent" points="300.5,-10 300.5,-30 320.5,-30 320.5,-10 300.5,-10"/>
<text text-anchor="start" x="324.28" y="-15.4" font-family="sans-serif" font-size="14.00"> &#160;Bootstrap</text>
<polygon fill="#fdb462" stroke="transparent" points="397.5,-10 397.5,-30 417.5,-30 417.5,-10 397.5,-10"/>
<text text-anchor="start" x="421.17" y="-15.4" font-family="sans-serif" font-size="14.00"> &#160;Providers</text>
<polygon fill="#fb8072" stroke="transparent" points="493.5,-10 493.5,-30 513.5,-30 513.5,-10 493.5,-10"/>
<text text-anchor="start" x="517.23" y="-15.4" font-family="sans-serif" font-size="14.00"> &#160;Exports</text>
<g id="clust1" class="cluster">
<title>cluster_SwitcherModule</title>
<polygon fill="none" stroke="black" stroke-dasharray="1,5" points="8,-70 8,-195 663,-195 663,-70 8,-70"/>
</g>
<g id="clust2" class="cluster">
<title>cluster_SwitcherModule_declarations</title>
<polygon fill="none" stroke="black" points="310,-78 310,-130 655,-130 655,-78 310,-78"/>
</g>
<g id="clust5" class="cluster">
<title>cluster_SwitcherModule_imports</title>
<polygon fill="none" stroke="black" points="16,-78 16,-130 302,-130 302,-78 16,-78"/>
</g>
<!-- SwitcherComponent -->
<g id="node1" class="node">
<title>SwitcherComponent</title>
<polygon fill="#ffffb3" stroke="black" points="646.59,-122 515.41,-122 515.41,-86 646.59,-86 646.59,-122"/>
<text text-anchor="middle" x="581" y="-99.8" font-family="Times,serif" font-size="14.00">SwitcherComponent</text>
</g>
<!-- SwitcherModule -->
<g id="node3" class="node">
<title>SwitcherModule</title>
<polygon fill="#8dd3c7" stroke="black" points="380.81,-187 377.81,-191 356.81,-191 353.81,-187 271.19,-187 271.19,-151 380.81,-151 380.81,-187"/>
<text text-anchor="middle" x="326" y="-164.8" font-family="Times,serif" font-size="14.00">SwitcherModule</text>
</g>
<!-- SwitcherComponent&#45;&gt;SwitcherModule -->
<g id="edge1" class="edge">
<title>SwitcherComponent&#45;&gt;SwitcherModule</title>
<path fill="none" stroke="black" d="M581,-122.11C581,-141.34 581,-169 581,-169 581,-169 390.7,-169 390.7,-169"/>
<polygon fill="black" stroke="black" points="390.7,-165.5 380.7,-169 390.7,-172.5 390.7,-165.5"/>
</g>
<!-- SwitcherProgramComponent -->
<g id="node2" class="node">
<title>SwitcherProgramComponent</title>
<polygon fill="#ffffb3" stroke="black" points="497.8,-122 318.2,-122 318.2,-86 497.8,-86 497.8,-122"/>
<text text-anchor="middle" x="408" y="-99.8" font-family="Times,serif" font-size="14.00">SwitcherProgramComponent</text>
</g>
<!-- SwitcherProgramComponent&#45;&gt;SwitcherModule -->
<g id="edge2" class="edge">
<title>SwitcherProgramComponent&#45;&gt;SwitcherModule</title>
<path fill="none" stroke="black" d="M349.5,-122.11C349.5,-122.11 349.5,-140.99 349.5,-140.99"/>
<polygon fill="black" stroke="black" points="346,-140.99 349.5,-150.99 353,-140.99 346,-140.99"/>
</g>
<!-- SharedModule -->
<g id="node4" class="node">
<title>SharedModule</title>
<polygon fill="#8dd3c7" stroke="black" points="294.42,-122 291.42,-126 270.42,-126 267.42,-122 195.58,-122 195.58,-86 294.42,-86 294.42,-122"/>
<text text-anchor="middle" x="245" y="-99.8" font-family="Times,serif" font-size="14.00">SharedModule</text>
</g>
<!-- SharedModule&#45;&gt;SwitcherModule -->
<g id="edge3" class="edge">
<title>SharedModule&#45;&gt;SwitcherModule</title>
<path fill="none" stroke="black" d="M282.78,-122.11C282.78,-122.11 282.78,-140.99 282.78,-140.99"/>
<polygon fill="black" stroke="black" points="279.28,-140.99 282.78,-150.99 286.28,-140.99 279.28,-140.99"/>
</g>
<!-- SwitcherRoutingModule -->
<g id="node5" class="node">
<title>SwitcherRoutingModule</title>
<polygon fill="#8dd3c7" stroke="black" points="178.43,-122 175.43,-126 154.43,-126 151.43,-122 23.57,-122 23.57,-86 178.43,-86 178.43,-122"/>
<text text-anchor="middle" x="101" y="-99.8" font-family="Times,serif" font-size="14.00">SwitcherRoutingModule</text>
</g>
<!-- SwitcherRoutingModule&#45;&gt;SwitcherModule -->
<g id="edge4" class="edge">
<title>SwitcherRoutingModule&#45;&gt;SwitcherModule</title>
<path fill="none" stroke="black" d="M101,-122.11C101,-141.34 101,-169 101,-169 101,-169 261.25,-169 261.25,-169"/>
<polygon fill="black" stroke="black" points="261.25,-172.5 271.25,-169 261.25,-165.5 261.25,-172.5"/>
</g>
</g>
</svg>
