<?xml version="1.0" encoding="UTF-8" standalone="no"?>
<!DOCTYPE svg PUBLIC "-//W3C//DTD SVG 1.1//EN"
 "http://www.w3.org/Graphics/SVG/1.1/DTD/svg11.dtd">
<!-- Generated by graphviz version 2.44.1 (20200629.0846)
 -->
<!-- Title: dependencies Pages: 1 -->
<svg width="757pt" height="211pt"
 viewBox="0.00 0.00 757.00 211.00" xmlns="http://www.w3.org/2000/svg" xmlns:xlink="http://www.w3.org/1999/xlink">
<g id="graph0" class="graph" transform="scale(1 1) rotate(0) translate(4 207)">
<title>dependencies</title>
<polygon fill="white" stroke="transparent" points="-4,4 -4,-207 753,-207 753,4 -4,4"/>
<text text-anchor="start" x="353.51" y="-42.4" font-family="sans-serif" font-weight="bold" font-size="14.00">Legend</text>
<polygon fill="#ffffb3" stroke="transparent" points="140.5,-10 140.5,-30 160.5,-30 160.5,-10 140.5,-10"/>
<text text-anchor="start" x="164.13" y="-15.4" font-family="sans-serif" font-size="14.00"> &#160;Declarations</text>
<polygon fill="#8dd3c7" stroke="transparent" points="253.5,-10 253.5,-30 273.5,-30 273.5,-10 253.5,-10"/>
<text text-anchor="start" x="277.23" y="-15.4" font-family="sans-serif" font-size="14.00"> &#160;Module</text>
<polygon fill="#80b1d3" stroke="transparent" points="339.5,-10 339.5,-30 359.5,-30 359.5,-10 339.5,-10"/>
<text text-anchor="start" x="363.28" y="-15.4" font-family="sans-serif" font-size="14.00"> &#160;Bootstrap</text>
<polygon fill="#fdb462" stroke="transparent" points="436.5,-10 436.5,-30 456.5,-30 456.5,-10 436.5,-10"/>
<text text-anchor="start" x="460.17" y="-15.4" font-family="sans-serif" font-size="14.00"> &#160;Providers</text>
<polygon fill="#fb8072" stroke="transparent" points="532.5,-10 532.5,-30 552.5,-30 552.5,-10 532.5,-10"/>
<text text-anchor="start" x="556.23" y="-15.4" font-family="sans-serif" font-size="14.00"> &#160;Exports</text>
<g id="clust1" class="cluster">
<title>cluster_AchievementsModule</title>
<polygon fill="none" stroke="black" stroke-dasharray="1,5" points="8,-70 8,-195 741,-195 741,-70 8,-70"/>
</g>
<g id="clust2" class="cluster">
<title>cluster_AchievementsModule_declarations</title>
<polygon fill="none" stroke="black" points="555,-78 555,-130 733,-130 733,-78 555,-78"/>
</g>
<g id="clust4" class="cluster">
<title>cluster_AchievementsModule_imports</title>
<polygon fill="none" stroke="black" points="230,-78 230,-130 547,-130 547,-78 230,-78"/>
</g>
<g id="clust7" class="cluster">
<title>cluster_AchievementsModule_providers</title>
<polygon fill="none" stroke="black" points="16,-78 16,-130 222,-130 222,-78 16,-78"/>
</g>
<!-- AchievementsComponent -->
<g id="node1" class="node">
<title>AchievementsComponent</title>
<polygon fill="#ffffb3" stroke="black" points="724.91,-122 563.09,-122 563.09,-86 724.91,-86 724.91,-122"/>
<text text-anchor="middle" x="644" y="-99.8" font-family="Times,serif" font-size="14.00">AchievementsComponent</text>
</g>
<!-- AchievementsModule -->
<g id="node2" class="node">
<title>AchievementsModule</title>
<polygon fill="#8dd3c7" stroke="black" points="436.63,-187 433.63,-191 412.63,-191 409.63,-187 297.37,-187 297.37,-151 436.63,-151 436.63,-187"/>
<text text-anchor="middle" x="367" y="-164.8" font-family="Times,serif" font-size="14.00">AchievementsModule</text>
</g>
<!-- AchievementsComponent&#45;&gt;AchievementsModule -->
<g id="edge1" class="edge">
<title>AchievementsComponent&#45;&gt;AchievementsModule</title>
<path fill="none" stroke="black" d="M644,-122.11C644,-141.34 644,-169 644,-169 644,-169 446.9,-169 446.9,-169"/>
<polygon fill="black" stroke="black" points="446.9,-165.5 436.9,-169 446.9,-172.5 446.9,-165.5"/>
</g>
<!-- AchievementsRoutingModule -->
<g id="node3" class="node">
<title>AchievementsRoutingModule</title>
<polygon fill="#8dd3c7" stroke="black" points="539.25,-122 536.25,-126 515.25,-126 512.25,-122 354.75,-122 354.75,-86 539.25,-86 539.25,-122"/>
<text text-anchor="middle" x="447" y="-99.8" font-family="Times,serif" font-size="14.00">AchievementsRoutingModule</text>
</g>
<!-- AchievementsRoutingModule&#45;&gt;AchievementsModule -->
<g id="edge2" class="edge">
<title>AchievementsRoutingModule&#45;&gt;AchievementsModule</title>
<path fill="none" stroke="black" d="M395.72,-122.11C395.72,-122.11 395.72,-140.99 395.72,-140.99"/>
<polygon fill="black" stroke="black" points="392.22,-140.99 395.72,-150.99 399.22,-140.99 392.22,-140.99"/>
</g>
<!-- SharedModule -->
<g id="node4" class="node">
<title>SharedModule</title>
<polygon fill="#8dd3c7" stroke="black" points="336.42,-122 333.42,-126 312.42,-126 309.42,-122 237.58,-122 237.58,-86 336.42,-86 336.42,-122"/>
<text text-anchor="middle" x="287" y="-99.8" font-family="Times,serif" font-size="14.00">SharedModule</text>
</g>
<!-- SharedModule&#45;&gt;AchievementsModule -->
<g id="edge3" class="edge">
<title>SharedModule&#45;&gt;AchievementsModule</title>
<path fill="none" stroke="black" d="M316.7,-122.11C316.7,-122.11 316.7,-140.99 316.7,-140.99"/>
<polygon fill="black" stroke="black" points="313.2,-140.99 316.7,-150.99 320.2,-140.99 313.2,-140.99"/>
</g>
<!-- AchievementsService -->
<g id="node5" class="node">
<title>AchievementsService</title>
<ellipse fill="#fdb462" stroke="black" cx="119" cy="-104" rx="95.46" ry="18"/>
<text text-anchor="middle" x="119" y="-99.8" font-family="Times,serif" font-size="14.00">AchievementsService</text>
</g>
<!-- AchievementsService&#45;&gt;AchievementsModule -->
<g id="edge4" class="edge">
<title>AchievementsService&#45;&gt;AchievementsModule</title>
<path fill="none" stroke="black" d="M119,-122.11C119,-141.34 119,-169 119,-169 119,-169 287.26,-169 287.26,-169"/>
<polygon fill="black" stroke="black" points="287.26,-172.5 297.26,-169 287.26,-165.5 287.26,-172.5"/>
</g>
</g>
</svg>
