<?xml version="1.0" encoding="UTF-8" standalone="no"?>
<!DOCTYPE svg PUBLIC "-//W3C//DTD SVG 1.1//EN"
 "http://www.w3.org/Graphics/SVG/1.1/DTD/svg11.dtd">
<!-- Generated by graphviz version 2.44.1 (20200629.0846)
 -->
<!-- Title: dependencies Pages: 1 -->
<svg width="1640pt" height="284pt"
 viewBox="0.00 0.00 1640.00 284.00" xmlns="http://www.w3.org/2000/svg" xmlns:xlink="http://www.w3.org/1999/xlink">
<g id="graph0" class="graph" transform="scale(1 1) rotate(0) translate(4 280)">
<title>dependencies</title>
<polygon fill="white" stroke="transparent" points="-4,4 -4,-280 1636,-280 1636,4 -4,4"/>
<text text-anchor="start" x="795.01" y="-42.4" font-family="sans-serif" font-weight="bold" font-size="14.00">Legend</text>
<polygon fill="#ffffb3" stroke="transparent" points="582,-10 582,-30 602,-30 602,-10 582,-10"/>
<text text-anchor="start" x="605.63" y="-15.4" font-family="sans-serif" font-size="14.00"> &#160;Declarations</text>
<polygon fill="#8dd3c7" stroke="transparent" points="695,-10 695,-30 715,-30 715,-10 695,-10"/>
<text text-anchor="start" x="718.73" y="-15.4" font-family="sans-serif" font-size="14.00"> &#160;Module</text>
<polygon fill="#80b1d3" stroke="transparent" points="781,-10 781,-30 801,-30 801,-10 781,-10"/>
<text text-anchor="start" x="804.78" y="-15.4" font-family="sans-serif" font-size="14.00"> &#160;Bootstrap</text>
<polygon fill="#fdb462" stroke="transparent" points="878,-10 878,-30 898,-30 898,-10 878,-10"/>
<text text-anchor="start" x="901.67" y="-15.4" font-family="sans-serif" font-size="14.00"> &#160;Providers</text>
<polygon fill="#fb8072" stroke="transparent" points="974,-10 974,-30 994,-30 994,-10 974,-10"/>
<text text-anchor="start" x="997.73" y="-15.4" font-family="sans-serif" font-size="14.00"> &#160;Exports</text>
<g id="clust1" class="cluster">
<title>cluster_ChatModule</title>
<polygon fill="none" stroke="black" stroke-dasharray="1,5" points="8,-70 8,-268 1624,-268 1624,-70 8,-70"/>
</g>
<g id="clust10" class="cluster">
<title>cluster_ChatModule_exports</title>
<polygon fill="none" stroke="black" points="548,-208 548,-260 1120,-260 1120,-208 548,-208"/>
</g>
<g id="clust12" class="cluster">
<title>cluster_ChatModule_providers</title>
<polygon fill="none" stroke="black" points="1484,-78 1484,-130 1616,-130 1616,-78 1484,-78"/>
</g>
<g id="clust2" class="cluster">
<title>cluster_ChatModule_declarations</title>
<polygon fill="none" stroke="black" points="570,-78 570,-130 1476,-130 1476,-78 570,-78"/>
</g>
<g id="clust9" class="cluster">
<title>cluster_ChatModule_imports</title>
<polygon fill="none" stroke="black" points="16,-78 16,-130 562,-130 562,-78 16,-78"/>
</g>
<!-- AutoresizeDirective -->
<g id="node1" class="node">
<title>AutoresizeDirective</title>
<polygon fill="#ffffb3" stroke="black" points="1468.22,-122 1339.78,-122 1339.78,-86 1468.22,-86 1468.22,-122"/>
<text text-anchor="middle" x="1404" y="-99.8" font-family="Times,serif" font-size="14.00">AutoresizeDirective</text>
</g>
<!-- ChatModule -->
<g id="node7" class="node">
<title>ChatModule</title>
<polygon fill="#8dd3c7" stroke="black" points="847.99,-187 844.99,-191 823.99,-191 820.99,-187 762.01,-187 762.01,-151 847.99,-151 847.99,-187"/>
<text text-anchor="middle" x="805" y="-164.8" font-family="Times,serif" font-size="14.00">ChatModule</text>
</g>
<!-- AutoresizeDirective&#45;&gt;ChatModule -->
<g id="edge1" class="edge">
<title>AutoresizeDirective&#45;&gt;ChatModule</title>
<path fill="none" stroke="black" d="M1404,-122.22C1404,-142.37 1404,-172 1404,-172 1404,-172 858.08,-172 858.08,-172"/>
<polygon fill="black" stroke="black" points="858.08,-168.5 848.08,-172 858.08,-175.5 858.08,-168.5"/>
</g>
<!-- ChatComponent -->
<g id="node2" class="node">
<title>ChatComponent</title>
<polygon fill="#ffffb3" stroke="black" points="1321.77,-122 1214.23,-122 1214.23,-86 1321.77,-86 1321.77,-122"/>
<text text-anchor="middle" x="1268" y="-99.8" font-family="Times,serif" font-size="14.00">ChatComponent</text>
</g>
<!-- ChatComponent&#45;&gt;ChatModule -->
<g id="edge2" class="edge">
<title>ChatComponent&#45;&gt;ChatModule</title>
<path fill="none" stroke="black" d="M1268,-122.22C1268,-140.83 1268,-167 1268,-167 1268,-167 858.14,-167 858.14,-167"/>
<polygon fill="black" stroke="black" points="858.14,-163.5 848.14,-167 858.14,-170.5 858.14,-163.5"/>
</g>
<!-- ChatListComponent -->
<g id="node3" class="node">
<title>ChatListComponent</title>
<polygon fill="#ffffb3" stroke="black" points="1195.55,-122 1066.45,-122 1066.45,-86 1195.55,-86 1195.55,-122"/>
<text text-anchor="middle" x="1131" y="-99.8" font-family="Times,serif" font-size="14.00">ChatListComponent</text>
</g>
<!-- ChatListComponent&#45;&gt;ChatModule -->
<g id="edge3" class="edge">
<title>ChatListComponent&#45;&gt;ChatModule</title>
<path fill="none" stroke="black" d="M1088.99,-122.03C1088.99,-139.06 1088.99,-162 1088.99,-162 1088.99,-162 858.13,-162 858.13,-162"/>
<polygon fill="black" stroke="black" points="858.13,-158.5 848.13,-162 858.13,-165.5 858.13,-158.5"/>
</g>
<!-- ChatPreviewComponent -->
<g id="node4" class="node">
<title>ChatPreviewComponent</title>
<polygon fill="#ffffb3" stroke="black" points="1047.64,-122 894.36,-122 894.36,-86 1047.64,-86 1047.64,-122"/>
<text text-anchor="middle" x="971" y="-99.8" font-family="Times,serif" font-size="14.00">ChatPreviewComponent</text>
</g>
<!-- ChatPreviewComponent&#45;&gt;ChatModule -->
<g id="edge4" class="edge">
<title>ChatPreviewComponent&#45;&gt;ChatModule</title>
<path fill="none" stroke="black" d="M921.09,-122.24C921.09,-137.57 921.09,-157 921.09,-157 921.09,-157 858.23,-157 858.23,-157"/>
<polygon fill="black" stroke="black" points="858.23,-153.5 848.23,-157 858.23,-160.5 858.23,-153.5"/>
</g>
<!-- ChatRoomComponent -->
<g id="node5" class="node">
<title>ChatRoomComponent</title>
<polygon fill="#ffffb3" stroke="black" points="876,-122 734,-122 734,-86 876,-86 876,-122"/>
<text text-anchor="middle" x="805" y="-99.8" font-family="Times,serif" font-size="14.00">ChatRoomComponent</text>
</g>
<!-- ChatRoomComponent&#45;&gt;ChatModule -->
<g id="edge5" class="edge">
<title>ChatRoomComponent&#45;&gt;ChatModule</title>
<path fill="none" stroke="black" d="M805,-122.11C805,-122.11 805,-140.99 805,-140.99"/>
<polygon fill="black" stroke="black" points="801.5,-140.99 805,-150.99 808.5,-140.99 801.5,-140.99"/>
</g>
<!-- ChatViewComponent -->
<g id="node6" class="node">
<title>ChatViewComponent</title>
<polygon fill="#ffffb3" stroke="black" points="716.09,-122 577.91,-122 577.91,-86 716.09,-86 716.09,-122"/>
<text text-anchor="middle" x="647" y="-99.8" font-family="Times,serif" font-size="14.00">ChatViewComponent</text>
</g>
<!-- ChatViewComponent&#45;&gt;ChatModule -->
<g id="edge6" class="edge">
<title>ChatViewComponent&#45;&gt;ChatModule</title>
<path fill="none" stroke="black" d="M696.12,-122.24C696.12,-137.57 696.12,-157 696.12,-157 696.12,-157 751.97,-157 751.97,-157"/>
<polygon fill="black" stroke="black" points="751.97,-160.5 761.97,-157 751.97,-153.5 751.97,-160.5"/>
</g>
<!-- ChatRoomComponent  -->
<g id="node12" class="node">
<title>ChatRoomComponent </title>
<polygon fill="#fb8072" stroke="black" points="1111.5,-252 966.5,-252 966.5,-216 1111.5,-216 1111.5,-252"/>
<text text-anchor="middle" x="1039" y="-229.8" font-family="Times,serif" font-size="14.00">ChatRoomComponent </text>
</g>
<!-- ChatModule&#45;&gt;ChatRoomComponent  -->
<g id="edge11" class="edge">
<title>ChatModule&#45;&gt;ChatRoomComponent </title>
<path fill="none" stroke="black" stroke-dasharray="5,2" d="M848.34,-182C907.71,-182 1007.04,-182 1007.04,-182 1007.04,-182 1007.04,-205.81 1007.04,-205.81"/>
<polygon fill="black" stroke="black" points="1003.54,-205.81 1007.04,-215.81 1010.54,-205.81 1003.54,-205.81"/>
</g>
<!-- FastFeedbackModule  -->
<g id="node13" class="node">
<title>FastFeedbackModule </title>
<polygon fill="#fb8072" stroke="black" points="948.02,-252 807.98,-252 807.98,-216 948.02,-216 948.02,-252"/>
<text text-anchor="middle" x="878" y="-229.8" font-family="Times,serif" font-size="14.00">FastFeedbackModule </text>
</g>
<!-- ChatModule&#45;&gt;FastFeedbackModule  -->
<g id="edge12" class="edge">
<title>ChatModule&#45;&gt;FastFeedbackModule </title>
<path fill="none" stroke="black" stroke-dasharray="5,2" d="M827.99,-187.11C827.99,-187.11 827.99,-205.99 827.99,-205.99"/>
<polygon fill="black" stroke="black" points="824.49,-205.99 827.99,-215.99 831.49,-205.99 824.49,-205.99"/>
</g>
<!-- FilestackModule  -->
<g id="node14" class="node">
<title>FilestackModule </title>
<polygon fill="#fb8072" stroke="black" points="789.59,-252 676.41,-252 676.41,-216 789.59,-216 789.59,-252"/>
<text text-anchor="middle" x="733" y="-229.8" font-family="Times,serif" font-size="14.00">FilestackModule </text>
</g>
<!-- ChatModule&#45;&gt;FilestackModule  -->
<g id="edge13" class="edge">
<title>ChatModule&#45;&gt;FilestackModule </title>
<path fill="none" stroke="black" stroke-dasharray="5,2" d="M775.9,-187.11C775.9,-187.11 775.9,-205.99 775.9,-205.99"/>
<polygon fill="black" stroke="black" points="772.4,-205.99 775.9,-215.99 779.4,-205.99 772.4,-205.99"/>
</g>
<!-- SharedModule  -->
<g id="node15" class="node">
<title>SharedModule </title>
<polygon fill="#fb8072" stroke="black" points="657.92,-252 556.08,-252 556.08,-216 657.92,-216 657.92,-252"/>
<text text-anchor="middle" x="607" y="-229.8" font-family="Times,serif" font-size="14.00">SharedModule </text>
</g>
<!-- ChatModule&#45;&gt;SharedModule  -->
<g id="edge14" class="edge">
<title>ChatModule&#45;&gt;SharedModule </title>
<path fill="none" stroke="black" stroke-dasharray="5,2" d="M761.62,-182C706.36,-182 617.96,-182 617.96,-182 617.96,-182 617.96,-205.81 617.96,-205.81"/>
<polygon fill="black" stroke="black" points="614.46,-205.81 617.96,-215.81 621.46,-205.81 614.46,-205.81"/>
</g>
<!-- ChatRoutingModule -->
<g id="node8" class="node">
<title>ChatRoutingModule</title>
<polygon fill="#8dd3c7" stroke="black" points="553.61,-122 550.61,-126 529.61,-126 526.61,-122 422.39,-122 422.39,-86 553.61,-86 553.61,-122"/>
<text text-anchor="middle" x="488" y="-99.8" font-family="Times,serif" font-size="14.00">ChatRoutingModule</text>
</g>
<!-- ChatRoutingModule&#45;&gt;ChatModule -->
<g id="edge7" class="edge">
<title>ChatRoutingModule&#45;&gt;ChatModule</title>
<path fill="none" stroke="black" d="M488,-122.03C488,-139.06 488,-162 488,-162 488,-162 751.92,-162 751.92,-162"/>
<polygon fill="black" stroke="black" points="751.92,-165.5 761.92,-162 751.92,-158.5 751.92,-165.5"/>
</g>
<!-- FastFeedbackModule -->
<g id="node9" class="node">
<title>FastFeedbackModule</title>
<polygon fill="#8dd3c7" stroke="black" points="404.02,-122 401.02,-126 380.02,-126 377.02,-122 267.98,-122 267.98,-86 404.02,-86 404.02,-122"/>
<text text-anchor="middle" x="336" y="-99.8" font-family="Times,serif" font-size="14.00">FastFeedbackModule</text>
</g>
<!-- FastFeedbackModule&#45;&gt;ChatModule -->
<g id="edge8" class="edge">
<title>FastFeedbackModule&#45;&gt;ChatModule</title>
<path fill="none" stroke="black" d="M336,-122.22C336,-140.83 336,-167 336,-167 336,-167 751.72,-167 751.72,-167"/>
<polygon fill="black" stroke="black" points="751.72,-170.5 761.72,-167 751.72,-163.5 751.72,-170.5"/>
</g>
<!-- FilestackModule -->
<g id="node10" class="node">
<title>FilestackModule</title>
<polygon fill="#8dd3c7" stroke="black" points="250.09,-122 247.09,-126 226.09,-126 223.09,-122 139.91,-122 139.91,-86 250.09,-86 250.09,-122"/>
<text text-anchor="middle" x="195" y="-99.8" font-family="Times,serif" font-size="14.00">FilestackModule</text>
</g>
<!-- FilestackModule&#45;&gt;ChatModule -->
<g id="edge9" class="edge">
<title>FilestackModule&#45;&gt;ChatModule</title>
<path fill="none" stroke="black" d="M195,-122.22C195,-142.37 195,-172 195,-172 195,-172 751.62,-172 751.62,-172"/>
<polygon fill="black" stroke="black" points="751.62,-175.5 761.62,-172 751.62,-168.5 751.62,-175.5"/>
</g>
<!-- SharedModule -->
<g id="node11" class="node">
<title>SharedModule</title>
<polygon fill="#8dd3c7" stroke="black" points="122.42,-122 119.42,-126 98.42,-126 95.42,-122 23.58,-122 23.58,-86 122.42,-86 122.42,-122"/>
<text text-anchor="middle" x="73" y="-99.8" font-family="Times,serif" font-size="14.00">SharedModule</text>
</g>
<!-- SharedModule&#45;&gt;ChatModule -->
<g id="edge10" class="edge">
<title>SharedModule&#45;&gt;ChatModule</title>
<path fill="none" stroke="black" d="M73,-122.04C73,-143.66 73,-177 73,-177 73,-177 751.94,-177 751.94,-177"/>
<polygon fill="black" stroke="black" points="751.94,-180.5 761.94,-177 751.94,-173.5 751.94,-180.5"/>
</g>
<!-- ChatService -->
<g id="node16" class="node">
<title>ChatService</title>
<ellipse fill="#fdb462" stroke="black" cx="1550" cy="-104" rx="58.46" ry="18"/>
<text text-anchor="middle" x="1550" y="-99.8" font-family="Times,serif" font-size="14.00">ChatService</text>
</g>
<!-- ChatService&#45;&gt;ChatModule -->
<g id="edge15" class="edge">
<title>ChatService&#45;&gt;ChatModule</title>
<path fill="none" stroke="black" d="M1550,-122.04C1550,-143.66 1550,-177 1550,-177 1550,-177 858,-177 858,-177"/>
<polygon fill="black" stroke="black" points="858,-173.5 848,-177 858,-180.5 858,-173.5"/>
</g>
</g>
</svg>
