<?xml version="1.0" encoding="UTF-8" standalone="no"?>
<!DOCTYPE svg PUBLIC "-//W3C//DTD SVG 1.1//EN"
 "http://www.w3.org/Graphics/SVG/1.1/DTD/svg11.dtd">
<!-- Generated by graphviz version 2.44.1 (20200629.0846)
 -->
<!-- Title: dependencies Pages: 1 -->
<svg width="1640pt" height="284pt"
 viewBox="0.00 0.00 1640.00 284.00" xmlns="http://www.w3.org/2000/svg" xmlns:xlink="http://www.w3.org/1999/xlink">
<g id="graph0" class="graph" transform="scale(1 1) rotate(0) translate(4 280)">
<title>dependencies</title>
<polygon fill="white" stroke="transparent" points="-4,4 -4,-280 1636,-280 1636,4 -4,4"/>
<text text-anchor="start" x="795.01" y="-42.4" font-family="sans-serif" font-weight="bold" font-size="14.00">Legend</text>
<polygon fill="#ffffb3" stroke="transparent" points="582,-10 582,-30 602,-30 602,-10 582,-10"/>
<text text-anchor="start" x="605.63" y="-15.4" font-family="sans-serif" font-size="14.00"> &#160;Declarations</text>
<polygon fill="#8dd3c7" stroke="transparent" points="695,-10 695,-30 715,-30 715,-10 695,-10"/>
<text text-anchor="start" x="718.73" y="-15.4" font-family="sans-serif" font-size="14.00"> &#160;Module</text>
<polygon fill="#80b1d3" stroke="transparent" points="781,-10 781,-30 801,-30 801,-10 781,-10"/>
<text text-anchor="start" x="804.78" y="-15.4" font-family="sans-serif" font-size="14.00"> &#160;Bootstrap</text>
<polygon fill="#fdb462" stroke="transparent" points="878,-10 878,-30 898,-30 898,-10 878,-10"/>
<text text-anchor="start" x="901.67" y="-15.4" font-family="sans-serif" font-size="14.00"> &#160;Providers</text>
<polygon fill="#fb8072" stroke="transparent" points="974,-10 974,-30 994,-30 994,-10 974,-10"/>
<text text-anchor="start" x="997.73" y="-15.4" font-family="sans-serif" font-size="14.00"> &#160;Exports</text>
<g id="clust1" class="cluster">
<title>cluster_ChatModule</title>
<polygon fill="none" stroke="black" stroke-dasharray="1,5" points="8,-70 8,-268 1624,-268 1624,-70 8,-70"/>
</g>
<g id="clust2" class="cluster">
<title>cluster_ChatModule_declarations</title>
<polygon fill="none" stroke="black" points="710,-78 710,-130 1616,-130 1616,-78 710,-78"/>
</g>
<g id="clust10" class="cluster">
<title>cluster_ChatModule_exports</title>
<polygon fill="none" stroke="black" points="530,-208 530,-260 1102,-260 1102,-208 530,-208"/>
</g>
<g id="clust9" class="cluster">
<title>cluster_ChatModule_imports</title>
<polygon fill="none" stroke="black" points="156,-78 156,-130 702,-130 702,-78 156,-78"/>
</g>
<g id="clust12" class="cluster">
<title>cluster_ChatModule_providers</title>
<polygon fill="none" stroke="black" points="16,-78 16,-130 148,-130 148,-78 16,-78"/>
</g>
<!-- AutoresizeDirective -->
<g id="node1" class="node">
<title>AutoresizeDirective</title>
<polygon fill="#ffffb3" stroke="black" points="1608.22,-122 1479.78,-122 1479.78,-86 1608.22,-86 1608.22,-122"/>
<text text-anchor="middle" x="1544" y="-99.8" font-family="Times,serif" font-size="14.00">AutoresizeDirective</text>
</g>
<!-- ChatModule -->
<g id="node7" class="node">
<title>ChatModule</title>
<polygon fill="#8dd3c7" stroke="black" points="829.99,-187 826.99,-191 805.99,-191 802.99,-187 744.01,-187 744.01,-151 829.99,-151 829.99,-187"/>
<text text-anchor="middle" x="787" y="-164.8" font-family="Times,serif" font-size="14.00">ChatModule</text>
</g>
<!-- AutoresizeDirective&#45;&gt;ChatModule -->
<g id="edge1" class="edge">
<title>AutoresizeDirective&#45;&gt;ChatModule</title>
<path fill="none" stroke="black" d="M1544,-122.04C1544,-143.66 1544,-177 1544,-177 1544,-177 840.14,-177 840.14,-177"/>
<polygon fill="black" stroke="black" points="840.14,-173.5 830.14,-177 840.14,-180.5 840.14,-173.5"/>
</g>
<!-- ChatComponent -->
<g id="node2" class="node">
<title>ChatComponent</title>
<polygon fill="#ffffb3" stroke="black" points="1461.77,-122 1354.23,-122 1354.23,-86 1461.77,-86 1461.77,-122"/>
<text text-anchor="middle" x="1408" y="-99.8" font-family="Times,serif" font-size="14.00">ChatComponent</text>
</g>
<!-- ChatComponent&#45;&gt;ChatModule -->
<g id="edge2" class="edge">
<title>ChatComponent&#45;&gt;ChatModule</title>
<path fill="none" stroke="black" d="M1408,-122.22C1408,-142.37 1408,-172 1408,-172 1408,-172 840.17,-172 840.17,-172"/>
<polygon fill="black" stroke="black" points="840.17,-168.5 830.17,-172 840.17,-175.5 840.17,-168.5"/>
</g>
<!-- ChatListComponent -->
<g id="node3" class="node">
<title>ChatListComponent</title>
<polygon fill="#ffffb3" stroke="black" points="1335.55,-122 1206.45,-122 1206.45,-86 1335.55,-86 1335.55,-122"/>
<text text-anchor="middle" x="1271" y="-99.8" font-family="Times,serif" font-size="14.00">ChatListComponent</text>
</g>
<!-- ChatListComponent&#45;&gt;ChatModule -->
<g id="edge3" class="edge">
<title>ChatListComponent&#45;&gt;ChatModule</title>
<path fill="none" stroke="black" d="M1271,-122.22C1271,-140.83 1271,-167 1271,-167 1271,-167 840.38,-167 840.38,-167"/>
<polygon fill="black" stroke="black" points="840.38,-163.5 830.38,-167 840.38,-170.5 840.38,-163.5"/>
</g>
<!-- ChatPreviewComponent -->
<g id="node4" class="node">
<title>ChatPreviewComponent</title>
<polygon fill="#ffffb3" stroke="black" points="1187.64,-122 1034.36,-122 1034.36,-86 1187.64,-86 1187.64,-122"/>
<text text-anchor="middle" x="1111" y="-99.8" font-family="Times,serif" font-size="14.00">ChatPreviewComponent</text>
</g>
<!-- ChatPreviewComponent&#45;&gt;ChatModule -->
<g id="edge4" class="edge">
<title>ChatPreviewComponent&#45;&gt;ChatModule</title>
<path fill="none" stroke="black" d="M1063.96,-122.03C1063.96,-139.06 1063.96,-162 1063.96,-162 1063.96,-162 840.28,-162 840.28,-162"/>
<polygon fill="black" stroke="black" points="840.28,-158.5 830.28,-162 840.28,-165.5 840.28,-158.5"/>
</g>
<!-- ChatRoomComponent -->
<g id="node5" class="node">
<title>ChatRoomComponent</title>
<polygon fill="#ffffb3" stroke="black" points="1016,-122 874,-122 874,-86 1016,-86 1016,-122"/>
<text text-anchor="middle" x="945" y="-99.8" font-family="Times,serif" font-size="14.00">ChatRoomComponent</text>
</g>
<!-- ChatRoomComponent&#45;&gt;ChatModule -->
<g id="edge5" class="edge">
<title>ChatRoomComponent&#45;&gt;ChatModule</title>
<path fill="none" stroke="black" d="M902.01,-122.24C902.01,-137.57 902.01,-157 902.01,-157 902.01,-157 840.15,-157 840.15,-157"/>
<polygon fill="black" stroke="black" points="840.15,-153.5 830.15,-157 840.15,-160.5 840.15,-153.5"/>
</g>
<!-- ChatViewComponent -->
<g id="node6" class="node">
<title>ChatViewComponent</title>
<polygon fill="#ffffb3" stroke="black" points="856.09,-122 717.91,-122 717.91,-86 856.09,-86 856.09,-122"/>
<text text-anchor="middle" x="787" y="-99.8" font-family="Times,serif" font-size="14.00">ChatViewComponent</text>
</g>
<!-- ChatViewComponent&#45;&gt;ChatModule -->
<g id="edge6" class="edge">
<title>ChatViewComponent&#45;&gt;ChatModule</title>
<path fill="none" stroke="black" d="M787,-122.11C787,-122.11 787,-140.99 787,-140.99"/>
<polygon fill="black" stroke="black" points="783.5,-140.99 787,-150.99 790.5,-140.99 783.5,-140.99"/>
</g>
<!-- ChatRoomComponent  -->
<g id="node12" class="node">
<title>ChatRoomComponent </title>
<polygon fill="#fb8072" stroke="black" points="1093.5,-252 948.5,-252 948.5,-216 1093.5,-216 1093.5,-252"/>
<text text-anchor="middle" x="1021" y="-229.8" font-family="Times,serif" font-size="14.00">ChatRoomComponent </text>
</g>
<!-- ChatModule&#45;&gt;ChatRoomComponent  -->
<g id="edge11" class="edge">
<title>ChatModule&#45;&gt;ChatRoomComponent </title>
<path fill="none" stroke="black" stroke-dasharray="5,2" d="M830.3,-182C887.79,-182 982.12,-182 982.12,-182 982.12,-182 982.12,-205.81 982.12,-205.81"/>
<polygon fill="black" stroke="black" points="978.63,-205.81 982.12,-215.81 985.63,-205.81 978.63,-205.81"/>
</g>
<!-- FastFeedbackModule  -->
<g id="node13" class="node">
<title>FastFeedbackModule </title>
<polygon fill="#fb8072" stroke="black" points="930.02,-252 789.98,-252 789.98,-216 930.02,-216 930.02,-252"/>
<text text-anchor="middle" x="860" y="-229.8" font-family="Times,serif" font-size="14.00">FastFeedbackModule </text>
</g>
<!-- ChatModule&#45;&gt;FastFeedbackModule  -->
<g id="edge12" class="edge">
<title>ChatModule&#45;&gt;FastFeedbackModule </title>
<path fill="none" stroke="black" stroke-dasharray="5,2" d="M809.99,-187.11C809.99,-187.11 809.99,-205.99 809.99,-205.99"/>
<polygon fill="black" stroke="black" points="806.49,-205.99 809.99,-215.99 813.49,-205.99 806.49,-205.99"/>
</g>
<!-- FilestackModule  -->
<g id="node14" class="node">
<title>FilestackModule </title>
<polygon fill="#fb8072" stroke="black" points="771.59,-252 658.41,-252 658.41,-216 771.59,-216 771.59,-252"/>
<text text-anchor="middle" x="715" y="-229.8" font-family="Times,serif" font-size="14.00">FilestackModule </text>
</g>
<!-- ChatModule&#45;&gt;FilestackModule  -->
<g id="edge13" class="edge">
<title>ChatModule&#45;&gt;FilestackModule </title>
<path fill="none" stroke="black" stroke-dasharray="5,2" d="M757.9,-187.11C757.9,-187.11 757.9,-205.99 757.9,-205.99"/>
<polygon fill="black" stroke="black" points="754.4,-205.99 757.9,-215.99 761.4,-205.99 754.4,-205.99"/>
</g>
<!-- SharedModule  -->
<g id="node15" class="node">
<title>SharedModule </title>
<polygon fill="#fb8072" stroke="black" points="639.92,-252 538.08,-252 538.08,-216 639.92,-216 639.92,-252"/>
<text text-anchor="middle" x="589" y="-229.8" font-family="Times,serif" font-size="14.00">SharedModule </text>
</g>
<!-- ChatModule&#45;&gt;SharedModule  -->
<g id="edge14" class="edge">
<title>ChatModule&#45;&gt;SharedModule </title>
<path fill="none" stroke="black" stroke-dasharray="5,2" d="M743.91,-182C689.02,-182 601.2,-182 601.2,-182 601.2,-182 601.2,-205.81 601.2,-205.81"/>
<polygon fill="black" stroke="black" points="597.7,-205.81 601.2,-215.81 604.7,-205.81 597.7,-205.81"/>
</g>
<!-- ChatRoutingModule -->
<g id="node8" class="node">
<title>ChatRoutingModule</title>
<polygon fill="#8dd3c7" stroke="black" points="693.61,-122 690.61,-126 669.61,-126 666.61,-122 562.39,-122 562.39,-86 693.61,-86 693.61,-122"/>
<text text-anchor="middle" x="628" y="-99.8" font-family="Times,serif" font-size="14.00">ChatRoutingModule</text>
</g>
<!-- ChatRoutingModule&#45;&gt;ChatModule -->
<g id="edge7" class="edge">
<title>ChatRoutingModule&#45;&gt;ChatModule</title>
<path fill="none" stroke="black" d="M675.88,-122.24C675.88,-137.57 675.88,-157 675.88,-157 675.88,-157 733.72,-157 733.72,-157"/>
<polygon fill="black" stroke="black" points="733.72,-160.5 743.72,-157 733.72,-153.5 733.72,-160.5"/>
</g>
<!-- FastFeedbackModule -->
<g id="node9" class="node">
<title>FastFeedbackModule</title>
<polygon fill="#8dd3c7" stroke="black" points="544.02,-122 541.02,-126 520.02,-126 517.02,-122 407.98,-122 407.98,-86 544.02,-86 544.02,-122"/>
<text text-anchor="middle" x="476" y="-99.8" font-family="Times,serif" font-size="14.00">FastFeedbackModule</text>
</g>
<!-- FastFeedbackModule&#45;&gt;ChatModule -->
<g id="edge8" class="edge">
<title>FastFeedbackModule&#45;&gt;ChatModule</title>
<path fill="none" stroke="black" d="M472.89,-122.03C472.89,-139.06 472.89,-162 472.89,-162 472.89,-162 733.98,-162 733.98,-162"/>
<polygon fill="black" stroke="black" points="733.98,-165.5 743.98,-162 733.98,-158.5 733.98,-165.5"/>
</g>
<!-- FilestackModule -->
<g id="node10" class="node">
<title>FilestackModule</title>
<polygon fill="#8dd3c7" stroke="black" points="390.09,-122 387.09,-126 366.09,-126 363.09,-122 279.91,-122 279.91,-86 390.09,-86 390.09,-122"/>
<text text-anchor="middle" x="335" y="-99.8" font-family="Times,serif" font-size="14.00">FilestackModule</text>
</g>
<!-- FilestackModule&#45;&gt;ChatModule -->
<g id="edge9" class="edge">
<title>FilestackModule&#45;&gt;ChatModule</title>
<path fill="none" stroke="black" d="M335,-122.22C335,-140.83 335,-167 335,-167 335,-167 733.66,-167 733.66,-167"/>
<polygon fill="black" stroke="black" points="733.66,-170.5 743.66,-167 733.66,-163.5 733.66,-170.5"/>
</g>
<!-- SharedModule -->
<g id="node11" class="node">
<title>SharedModule</title>
<polygon fill="#8dd3c7" stroke="black" points="262.42,-122 259.42,-126 238.42,-126 235.42,-122 163.58,-122 163.58,-86 262.42,-86 262.42,-122"/>
<text text-anchor="middle" x="213" y="-99.8" font-family="Times,serif" font-size="14.00">SharedModule</text>
</g>
<!-- SharedModule&#45;&gt;ChatModule -->
<g id="edge10" class="edge">
<title>SharedModule&#45;&gt;ChatModule</title>
<path fill="none" stroke="black" d="M213,-122.22C213,-142.37 213,-172 213,-172 213,-172 733.86,-172 733.86,-172"/>
<polygon fill="black" stroke="black" points="733.86,-175.5 743.86,-172 733.86,-168.5 733.86,-175.5"/>
</g>
<!-- ChatService -->
<g id="node16" class="node">
<title>ChatService</title>
<ellipse fill="#fdb462" stroke="black" cx="82" cy="-104" rx="58.46" ry="18"/>
<text text-anchor="middle" x="82" y="-99.8" font-family="Times,serif" font-size="14.00">ChatService</text>
</g>
<!-- ChatService&#45;&gt;ChatModule -->
<g id="edge15" class="edge">
<title>ChatService&#45;&gt;ChatModule</title>
<path fill="none" stroke="black" d="M82,-122.04C82,-143.66 82,-177 82,-177 82,-177 733.96,-177 733.96,-177"/>
<polygon fill="black" stroke="black" points="733.96,-180.5 743.96,-177 733.96,-173.5 733.96,-180.5"/>
</g>
</g>
</svg>
