<?xml version="1.0" encoding="UTF-8" standalone="no"?>
<!DOCTYPE svg PUBLIC "-//W3C//DTD SVG 1.1//EN"
 "http://www.w3.org/Graphics/SVG/1.1/DTD/svg11.dtd">
<!-- Generated by graphviz version 2.44.1 (20200629.0846)
 -->
<!-- Title: dependencies Pages: 1 -->
<svg width="1213pt" height="284pt"
 viewBox="0.00 0.00 1213.00 284.00" xmlns="http://www.w3.org/2000/svg" xmlns:xlink="http://www.w3.org/1999/xlink">
<g id="graph0" class="graph" transform="scale(1 1) rotate(0) translate(4 280)">
<title>dependencies</title>
<polygon fill="white" stroke="transparent" points="-4,4 -4,-280 1209,-280 1209,4 -4,4"/>
<text text-anchor="start" x="581.51" y="-42.4" font-family="sans-serif" font-weight="bold" font-size="14.00">Legend</text>
<polygon fill="#ffffb3" stroke="transparent" points="368.5,-10 368.5,-30 388.5,-30 388.5,-10 368.5,-10"/>
<text text-anchor="start" x="392.13" y="-15.4" font-family="sans-serif" font-size="14.00"> &#160;Declarations</text>
<polygon fill="#8dd3c7" stroke="transparent" points="481.5,-10 481.5,-30 501.5,-30 501.5,-10 481.5,-10"/>
<text text-anchor="start" x="505.23" y="-15.4" font-family="sans-serif" font-size="14.00"> &#160;Module</text>
<polygon fill="#80b1d3" stroke="transparent" points="567.5,-10 567.5,-30 587.5,-30 587.5,-10 567.5,-10"/>
<text text-anchor="start" x="591.28" y="-15.4" font-family="sans-serif" font-size="14.00"> &#160;Bootstrap</text>
<polygon fill="#fdb462" stroke="transparent" points="664.5,-10 664.5,-30 684.5,-30 684.5,-10 664.5,-10"/>
<text text-anchor="start" x="688.17" y="-15.4" font-family="sans-serif" font-size="14.00"> &#160;Providers</text>
<polygon fill="#fb8072" stroke="transparent" points="760.5,-10 760.5,-30 780.5,-30 780.5,-10 760.5,-10"/>
<text text-anchor="start" x="784.23" y="-15.4" font-family="sans-serif" font-size="14.00"> &#160;Exports</text>
<g id="clust1" class="cluster">
<title>cluster_NotificationModule</title>
<polygon fill="none" stroke="black" stroke-dasharray="1,5" points="8,-70 8,-268 1197,-268 1197,-70 8,-70"/>
</g>
<g id="clust8" class="cluster">
<title>cluster_NotificationModule_exports</title>
<polygon fill="none" stroke="black" points="166,-208 166,-260 1032,-260 1032,-208 166,-208"/>
</g>
<g id="clust10" class="cluster">
<title>cluster_NotificationModule_providers</title>
<polygon fill="none" stroke="black" points="999,-78 999,-130 1189,-130 1189,-78 999,-78"/>
</g>
<g id="clust7" class="cluster">
<title>cluster_NotificationModule_imports</title>
<polygon fill="none" stroke="black" points="877,-78 877,-130 991,-130 991,-78 877,-78"/>
</g>
<g id="clust2" class="cluster">
<title>cluster_NotificationModule_declarations</title>
<polygon fill="none" stroke="black" points="16,-78 16,-130 869,-130 869,-78 16,-78"/>
</g>
<!-- AchievementPopUpComponent -->
<g id="node1" class="node">
<title>AchievementPopUpComponent</title>
<polygon fill="#ffffb3" stroke="black" points="861.36,-122 666.64,-122 666.64,-86 861.36,-86 861.36,-122"/>
<text text-anchor="middle" x="764" y="-99.8" font-family="Times,serif" font-size="14.00">AchievementPopUpComponent</text>
</g>
<!-- NotificationModule -->
<g id="node5" class="node">
<title>NotificationModule</title>
<polygon fill="#8dd3c7" stroke="black" points="631.7,-187 628.7,-191 607.7,-191 604.7,-187 504.3,-187 504.3,-151 631.7,-151 631.7,-187"/>
<text text-anchor="middle" x="568" y="-164.8" font-family="Times,serif" font-size="14.00">NotificationModule</text>
</g>
<!-- AchievementPopUpComponent&#45;&gt;NotificationModule -->
<g id="edge1" class="edge">
<title>AchievementPopUpComponent&#45;&gt;NotificationModule</title>
<path fill="none" stroke="black" d="M737.3,-122.01C737.3,-138.05 737.3,-159 737.3,-159 737.3,-159 642,-159 642,-159"/>
<polygon fill="black" stroke="black" points="642,-155.5 632,-159 642,-162.5 642,-155.5"/>
</g>
<!-- ActivityCompletePopUpComponent -->
<g id="node2" class="node">
<title>ActivityCompletePopUpComponent</title>
<polygon fill="#ffffb3" stroke="black" points="648.04,-122 427.96,-122 427.96,-86 648.04,-86 648.04,-122"/>
<text text-anchor="middle" x="538" y="-99.8" font-family="Times,serif" font-size="14.00">ActivityCompletePopUpComponent</text>
</g>
<!-- ActivityCompletePopUpComponent&#45;&gt;NotificationModule -->
<g id="edge2" class="edge">
<title>ActivityCompletePopUpComponent&#45;&gt;NotificationModule</title>
<path fill="none" stroke="black" d="M568,-122.11C568,-122.11 568,-140.99 568,-140.99"/>
<polygon fill="black" stroke="black" points="564.5,-140.99 568,-150.99 571.5,-140.99 564.5,-140.99"/>
</g>
<!-- LockTeamAssessmentPopUpComponent -->
<g id="node3" class="node">
<title>LockTeamAssessmentPopUpComponent</title>
<polygon fill="#ffffb3" stroke="black" points="409.46,-122 162.54,-122 162.54,-86 409.46,-86 409.46,-122"/>
<text text-anchor="middle" x="286" y="-99.8" font-family="Times,serif" font-size="14.00">LockTeamAssessmentPopUpComponent</text>
</g>
<!-- LockTeamAssessmentPopUpComponent&#45;&gt;NotificationModule -->
<g id="edge3" class="edge">
<title>LockTeamAssessmentPopUpComponent&#45;&gt;NotificationModule</title>
<path fill="none" stroke="black" d="M362.62,-122.03C362.62,-138.4 362.62,-160 362.62,-160 362.62,-160 494.14,-160 494.14,-160"/>
<polygon fill="black" stroke="black" points="494.14,-163.5 504.14,-160 494.14,-156.5 494.14,-163.5"/>
</g>
<!-- PopUpComponent -->
<g id="node4" class="node">
<title>PopUpComponent</title>
<polygon fill="#ffffb3" stroke="black" points="144.22,-122 23.78,-122 23.78,-86 144.22,-86 144.22,-122"/>
<text text-anchor="middle" x="84" y="-99.8" font-family="Times,serif" font-size="14.00">PopUpComponent</text>
</g>
<!-- PopUpComponent&#45;&gt;NotificationModule -->
<g id="edge4" class="edge">
<title>PopUpComponent&#45;&gt;NotificationModule</title>
<path fill="none" stroke="black" d="M84,-122.11C84,-141.34 84,-169 84,-169 84,-169 494.23,-169 494.23,-169"/>
<polygon fill="black" stroke="black" points="494.23,-172.5 504.23,-169 494.23,-165.5 494.23,-172.5"/>
</g>
<!-- AchievementPopUpComponent  -->
<g id="node7" class="node">
<title>AchievementPopUpComponent </title>
<polygon fill="#fb8072" stroke="black" points="1024.36,-252 825.64,-252 825.64,-216 1024.36,-216 1024.36,-252"/>
<text text-anchor="middle" x="925" y="-229.8" font-family="Times,serif" font-size="14.00">AchievementPopUpComponent </text>
</g>
<!-- NotificationModule&#45;&gt;AchievementPopUpComponent  -->
<g id="edge6" class="edge">
<title>NotificationModule&#45;&gt;AchievementPopUpComponent </title>
<path fill="none" stroke="black" stroke-dasharray="5,2" d="M631.93,-180C713.35,-180 843.62,-180 843.62,-180 843.62,-180 843.62,-205.72 843.62,-205.72"/>
<polygon fill="black" stroke="black" points="840.13,-205.72 843.62,-215.72 847.13,-205.72 840.13,-205.72"/>
</g>
<!-- ActivityCompletePopUpComponent  -->
<g id="node8" class="node">
<title>ActivityCompletePopUpComponent </title>
<polygon fill="#fb8072" stroke="black" points="808.04,-252 583.96,-252 583.96,-216 808.04,-216 808.04,-252"/>
<text text-anchor="middle" x="696" y="-229.8" font-family="Times,serif" font-size="14.00">ActivityCompletePopUpComponent </text>
</g>
<!-- NotificationModule&#45;&gt;ActivityCompletePopUpComponent  -->
<g id="edge7" class="edge">
<title>NotificationModule&#45;&gt;ActivityCompletePopUpComponent </title>
<path fill="none" stroke="black" stroke-dasharray="5,2" d="M607.79,-187.11C607.79,-187.11 607.79,-205.99 607.79,-205.99"/>
<polygon fill="black" stroke="black" points="604.29,-205.99 607.79,-215.99 611.29,-205.99 604.29,-205.99"/>
</g>
<!-- LockTeamAssessmentPopUpComponent  -->
<g id="node9" class="node">
<title>LockTeamAssessmentPopUpComponent </title>
<polygon fill="#fb8072" stroke="black" points="566.46,-252 315.54,-252 315.54,-216 566.46,-216 566.46,-252"/>
<text text-anchor="middle" x="441" y="-229.8" font-family="Times,serif" font-size="14.00">LockTeamAssessmentPopUpComponent </text>
</g>
<!-- NotificationModule&#45;&gt;LockTeamAssessmentPopUpComponent  -->
<g id="edge8" class="edge">
<title>NotificationModule&#45;&gt;LockTeamAssessmentPopUpComponent </title>
<path fill="none" stroke="black" stroke-dasharray="5,2" d="M535.31,-187.11C535.31,-187.11 535.31,-205.99 535.31,-205.99"/>
<polygon fill="black" stroke="black" points="531.81,-205.99 535.31,-215.99 538.81,-205.99 531.81,-205.99"/>
</g>
<!-- PopUpComponent  -->
<g id="node10" class="node">
<title>PopUpComponent </title>
<polygon fill="#fb8072" stroke="black" points="297.72,-252 174.28,-252 174.28,-216 297.72,-216 297.72,-252"/>
<text text-anchor="middle" x="236" y="-229.8" font-family="Times,serif" font-size="14.00">PopUpComponent </text>
</g>
<!-- NotificationModule&#45;&gt;PopUpComponent  -->
<g id="edge9" class="edge">
<title>NotificationModule&#45;&gt;PopUpComponent </title>
<path fill="none" stroke="black" stroke-dasharray="5,2" d="M504.38,-178C407.98,-178 236,-178 236,-178 236,-178 236,-205.97 236,-205.97"/>
<polygon fill="black" stroke="black" points="232.5,-205.97 236,-215.97 239.5,-205.97 232.5,-205.97"/>
</g>
<!-- SharedModule -->
<g id="node6" class="node">
<title>SharedModule</title>
<polygon fill="#8dd3c7" stroke="black" points="983.42,-122 980.42,-126 959.42,-126 956.42,-122 884.58,-122 884.58,-86 983.42,-86 983.42,-122"/>
<text text-anchor="middle" x="934" y="-99.8" font-family="Times,serif" font-size="14.00">SharedModule</text>
</g>
<!-- SharedModule&#45;&gt;NotificationModule -->
<g id="edge5" class="edge">
<title>SharedModule&#45;&gt;NotificationModule</title>
<path fill="none" stroke="black" d="M934,-122.27C934,-140.56 934,-166 934,-166 934,-166 641.75,-166 641.75,-166"/>
<polygon fill="black" stroke="black" points="641.75,-162.5 631.75,-166 641.75,-169.5 641.75,-162.5"/>
</g>
<!-- NotificationService -->
<g id="node11" class="node">
<title>NotificationService</title>
<ellipse fill="#fdb462" stroke="black" cx="1094" cy="-104" rx="86.81" ry="18"/>
<text text-anchor="middle" x="1094" y="-99.8" font-family="Times,serif" font-size="14.00">NotificationService</text>
</g>
<!-- NotificationService&#45;&gt;NotificationModule -->
<g id="edge10" class="edge">
<title>NotificationService&#45;&gt;NotificationModule</title>
<path fill="none" stroke="black" d="M1015.76,-111.92C1015.76,-130.04 1015.76,-173 1015.76,-173 1015.76,-173 641.68,-173 641.68,-173"/>
<polygon fill="black" stroke="black" points="641.68,-169.5 631.68,-173 641.68,-176.5 641.68,-169.5"/>
</g>
</g>
</svg>
