<?xml version="1.0" encoding="UTF-8" standalone="no"?>
<!DOCTYPE svg PUBLIC "-//W3C//DTD SVG 1.1//EN"
 "http://www.w3.org/Graphics/SVG/1.1/DTD/svg11.dtd">
<!-- Generated by graphviz version 2.44.1 (20200629.0846)
 -->
<!-- Title: dependencies Pages: 1 -->
<svg width="2613pt" height="284pt"
 viewBox="0.00 0.00 2613.00 284.00" xmlns="http://www.w3.org/2000/svg" xmlns:xlink="http://www.w3.org/1999/xlink">
<g id="graph0" class="graph" transform="scale(1 1) rotate(0) translate(4 280)">
<title>dependencies</title>
<polygon fill="white" stroke="transparent" points="-4,4 -4,-280 2609,-280 2609,4 -4,4"/>
<text text-anchor="start" x="1281.51" y="-42.4" font-family="sans-serif" font-weight="bold" font-size="14.00">Legend</text>
<polygon fill="#ffffb3" stroke="transparent" points="1068.5,-10 1068.5,-30 1088.5,-30 1088.5,-10 1068.5,-10"/>
<text text-anchor="start" x="1092.13" y="-15.4" font-family="sans-serif" font-size="14.00"> &#160;Declarations</text>
<polygon fill="#8dd3c7" stroke="transparent" points="1181.5,-10 1181.5,-30 1201.5,-30 1201.5,-10 1181.5,-10"/>
<text text-anchor="start" x="1205.23" y="-15.4" font-family="sans-serif" font-size="14.00"> &#160;Module</text>
<polygon fill="#80b1d3" stroke="transparent" points="1267.5,-10 1267.5,-30 1287.5,-30 1287.5,-10 1267.5,-10"/>
<text text-anchor="start" x="1291.28" y="-15.4" font-family="sans-serif" font-size="14.00"> &#160;Bootstrap</text>
<polygon fill="#fdb462" stroke="transparent" points="1364.5,-10 1364.5,-30 1384.5,-30 1384.5,-10 1364.5,-10"/>
<text text-anchor="start" x="1388.17" y="-15.4" font-family="sans-serif" font-size="14.00"> &#160;Providers</text>
<polygon fill="#fb8072" stroke="transparent" points="1460.5,-10 1460.5,-30 1480.5,-30 1480.5,-10 1460.5,-10"/>
<text text-anchor="start" x="1484.23" y="-15.4" font-family="sans-serif" font-size="14.00"> &#160;Exports</text>
<g id="clust1" class="cluster">
<title>cluster_AppModule</title>
<polygon fill="none" stroke="black" stroke-dasharray="1,5" points="8,-70 8,-268 2597,-268 2597,-70 8,-70"/>
</g>
<g id="clust11" class="cluster">
<title>cluster_AppModule_providers</title>
<polygon fill="none" stroke="black" points="2247,-78 2247,-130 2589,-130 2589,-78 2247,-78"/>
</g>
<g id="clust8" class="cluster">
<title>cluster_AppModule_imports</title>
<polygon fill="none" stroke="black" points="774,-78 774,-130 2239,-130 2239,-78 774,-78"/>
</g>
<g id="clust2" class="cluster">
<title>cluster_AppModule_declarations</title>
<polygon fill="none" stroke="black" points="16,-78 16,-130 766,-130 766,-78 16,-78"/>
</g>
<g id="clust10" class="cluster">
<title>cluster_AppModule_bootstrap</title>
<polygon fill="none" stroke="black" points="1248,-208 1248,-260 1372,-260 1372,-208 1248,-208"/>
</g>
<!-- AppComponent -->
<g id="node1" class="node">
<title>AppComponent</title>
<polygon fill="#ffffb3" stroke="black" points="757.94,-122 652.06,-122 652.06,-86 757.94,-86 757.94,-122"/>
<text text-anchor="middle" x="705" y="-99.8" font-family="Times,serif" font-size="14.00">AppComponent</text>
</g>
<!-- AppModule -->
<g id="node6" class="node">
<title>AppModule</title>
<polygon fill="#8dd3c7" stroke="black" points="1351.66,-187 1348.66,-191 1327.66,-191 1324.66,-187 1268.34,-187 1268.34,-151 1351.66,-151 1351.66,-187"/>
<text text-anchor="middle" x="1310" y="-164.8" font-family="Times,serif" font-size="14.00">AppModule</text>
</g>
<!-- AppComponent&#45;&gt;AppModule -->
<g id="edge1" class="edge">
<title>AppComponent&#45;&gt;AppModule</title>
<path fill="none" stroke="black" d="M705,-122.22C705,-140.83 705,-167 705,-167 705,-167 1257.94,-167 1257.94,-167"/>
<polygon fill="black" stroke="black" points="1257.94,-170.5 1267.94,-167 1257.94,-163.5 1257.94,-170.5"/>
</g>
<!-- DeviceInfoComponent -->
<g id="node2" class="node">
<title>DeviceInfoComponent</title>
<polygon fill="#ffffb3" stroke="black" points="634.29,-122 489.71,-122 489.71,-86 634.29,-86 634.29,-122"/>
<text text-anchor="middle" x="562" y="-99.8" font-family="Times,serif" font-size="14.00">DeviceInfoComponent</text>
</g>
<!-- DeviceInfoComponent&#45;&gt;AppModule -->
<g id="edge2" class="edge">
<title>DeviceInfoComponent&#45;&gt;AppModule</title>
<path fill="none" stroke="black" d="M562,-122.31C562,-142.15 562,-171 562,-171 562,-171 1258.18,-171 1258.18,-171"/>
<polygon fill="black" stroke="black" points="1258.18,-174.5 1268.18,-171 1258.18,-167.5 1258.18,-174.5"/>
</g>
<!-- IconComponent -->
<g id="node3" class="node">
<title>IconComponent</title>
<polygon fill="#ffffb3" stroke="black" points="472.21,-122 365.79,-122 365.79,-86 472.21,-86 472.21,-122"/>
<text text-anchor="middle" x="419" y="-99.8" font-family="Times,serif" font-size="14.00">IconComponent</text>
</g>
<!-- IconComponent&#45;&gt;AppModule -->
<g id="edge3" class="edge">
<title>IconComponent&#45;&gt;AppModule</title>
<path fill="none" stroke="black" d="M419,-122.28C419,-143.32 419,-175 419,-175 419,-175 1258.22,-175 1258.22,-175"/>
<polygon fill="black" stroke="black" points="1258.22,-178.5 1268.22,-175 1258.22,-171.5 1258.22,-178.5"/>
</g>
<!-- PageNotFoundComponent -->
<g id="node4" class="node">
<title>PageNotFoundComponent</title>
<polygon fill="#ffffb3" stroke="black" points="347.82,-122 182.18,-122 182.18,-86 347.82,-86 347.82,-122"/>
<text text-anchor="middle" x="265" y="-99.8" font-family="Times,serif" font-size="14.00">PageNotFoundComponent</text>
</g>
<!-- PageNotFoundComponent&#45;&gt;AppModule -->
<g id="edge4" class="edge">
<title>PageNotFoundComponent&#45;&gt;AppModule</title>
<path fill="none" stroke="black" d="M265,-122.16C265,-144.35 265,-179 265,-179 265,-179 1258.07,-179 1258.07,-179"/>
<polygon fill="black" stroke="black" points="1258.07,-182.5 1268.07,-179 1258.07,-175.5 1258.07,-182.5"/>
</g>
<!-- UnlockingComponent -->
<g id="node5" class="node">
<title>UnlockingComponent</title>
<polygon fill="#ffffb3" stroke="black" points="164.44,-122 23.56,-122 23.56,-86 164.44,-86 164.44,-122"/>
<text text-anchor="middle" x="94" y="-99.8" font-family="Times,serif" font-size="14.00">UnlockingComponent</text>
</g>
<!-- UnlockingComponent&#45;&gt;AppModule -->
<g id="edge5" class="edge">
<title>UnlockingComponent&#45;&gt;AppModule</title>
<path fill="none" stroke="black" d="M94,-122.32C94,-145.66 94,-183 94,-183 94,-183 1258.14,-183 1258.14,-183"/>
<polygon fill="black" stroke="black" points="1258.14,-186.5 1268.14,-183 1258.14,-179.5 1258.14,-186.5"/>
</g>
<!-- AppComponent  -->
<g id="node18" class="node">
<title>AppComponent </title>
<polygon fill="#80b1d3" stroke="black" points="1364.44,-252 1255.56,-252 1255.56,-216 1364.44,-216 1364.44,-252"/>
<text text-anchor="middle" x="1310" y="-229.8" font-family="Times,serif" font-size="14.00">AppComponent </text>
</g>
<!-- AppModule&#45;&gt;AppComponent  -->
<g id="edge17" class="edge">
<title>AppModule&#45;&gt;AppComponent </title>
<path fill="none" stroke="black" stroke-dasharray="1,5" d="M1310,-187.11C1310,-187.11 1310,-205.99 1310,-205.99"/>
<polygon fill="black" stroke="black" points="1306.5,-205.99 1310,-215.99 1313.5,-205.99 1306.5,-205.99"/>
</g>
<!-- AppRoutingModule -->
<g id="node7" class="node">
<title>AppRoutingModule</title>
<polygon fill="#8dd3c7" stroke="black" points="2231.27,-122 2228.27,-126 2207.27,-126 2204.27,-122 2102.73,-122 2102.73,-86 2231.27,-86 2231.27,-122"/>
<text text-anchor="middle" x="2167" y="-99.8" font-family="Times,serif" font-size="14.00">AppRoutingModule</text>
</g>
<!-- AppRoutingModule&#45;&gt;AppModule -->
<g id="edge6" class="edge">
<title>AppRoutingModule&#45;&gt;AppModule</title>
<path fill="none" stroke="black" d="M2167,-122.28C2167,-143.32 2167,-175 2167,-175 2167,-175 1361.92,-175 1361.92,-175"/>
<polygon fill="black" stroke="black" points="1361.92,-171.5 1351.92,-175 1361.91,-178.5 1361.92,-171.5"/>
</g>
<!-- AuthModule -->
<g id="node8" class="node">
<title>AuthModule</title>
<polygon fill="#8dd3c7" stroke="black" points="2084.55,-122 2081.55,-126 2060.55,-126 2057.55,-122 1997.45,-122 1997.45,-86 2084.55,-86 2084.55,-122"/>
<text text-anchor="middle" x="2041" y="-99.8" font-family="Times,serif" font-size="14.00">AuthModule</text>
</g>
<!-- AuthModule&#45;&gt;AppModule -->
<g id="edge7" class="edge">
<title>AuthModule&#45;&gt;AppModule</title>
<path fill="none" stroke="black" d="M2041,-122.31C2041,-142.15 2041,-171 2041,-171 2041,-171 1361.66,-171 1361.66,-171"/>
<polygon fill="black" stroke="black" points="1361.66,-167.5 1351.66,-171 1361.66,-174.5 1361.66,-167.5"/>
</g>
<!-- EmbedVideo -->
<g id="node9" class="node">
<title>EmbedVideo</title>
<polygon fill="#8dd3c7" stroke="black" points="1978.87,-122 1975.87,-126 1954.87,-126 1951.87,-122 1889.13,-122 1889.13,-86 1978.87,-86 1978.87,-122"/>
<text text-anchor="middle" x="1934" y="-99.8" font-family="Times,serif" font-size="14.00">EmbedVideo</text>
</g>
<!-- EmbedVideo&#45;&gt;AppModule -->
<g id="edge8" class="edge">
<title>EmbedVideo&#45;&gt;AppModule</title>
<path fill="none" stroke="black" d="M1934,-122.22C1934,-140.83 1934,-167 1934,-167 1934,-167 1361.91,-167 1361.91,-167"/>
<polygon fill="black" stroke="black" points="1361.91,-163.5 1351.91,-167 1361.91,-170.5 1361.91,-163.5"/>
</g>
<!-- EventDetailModule -->
<g id="node10" class="node">
<title>EventDetailModule</title>
<polygon fill="#8dd3c7" stroke="black" points="1871.42,-122 1868.42,-126 1847.42,-126 1844.42,-122 1744.58,-122 1744.58,-86 1871.42,-86 1871.42,-122"/>
<text text-anchor="middle" x="1808" y="-99.8" font-family="Times,serif" font-size="14.00">EventDetailModule</text>
</g>
<!-- EventDetailModule&#45;&gt;AppModule -->
<g id="edge9" class="edge">
<title>EventDetailModule&#45;&gt;AppModule</title>
<path fill="none" stroke="black" d="M1808,-122.02C1808,-139.37 1808,-163 1808,-163 1808,-163 1362.03,-163 1362.03,-163"/>
<polygon fill="black" stroke="black" points="1362.03,-159.5 1352.03,-163 1362.03,-166.5 1362.03,-159.5"/>
</g>
<!-- FastFeedbackModule -->
<g id="node11" class="node">
<title>FastFeedbackModule</title>
<polygon fill="#8dd3c7" stroke="black" points="1727.02,-122 1724.02,-126 1703.02,-126 1700.02,-122 1590.98,-122 1590.98,-86 1727.02,-86 1727.02,-122"/>
<text text-anchor="middle" x="1659" y="-99.8" font-family="Times,serif" font-size="14.00">FastFeedbackModule</text>
</g>
<!-- FastFeedbackModule&#45;&gt;AppModule -->
<g id="edge10" class="edge">
<title>FastFeedbackModule&#45;&gt;AppModule</title>
<path fill="none" stroke="black" d="M1659,-122.01C1659,-138.05 1659,-159 1659,-159 1659,-159 1361.75,-159 1361.75,-159"/>
<polygon fill="black" stroke="black" points="1361.75,-155.5 1351.75,-159 1361.75,-162.5 1361.75,-155.5"/>
</g>
<!-- GoMobileModule -->
<g id="node12" class="node">
<title>GoMobileModule</title>
<polygon fill="#8dd3c7" stroke="black" points="1572.6,-122 1569.6,-126 1548.6,-126 1545.6,-122 1455.4,-122 1455.4,-86 1572.6,-86 1572.6,-122"/>
<text text-anchor="middle" x="1514" y="-99.8" font-family="Times,serif" font-size="14.00">GoMobileModule</text>
</g>
<!-- GoMobileModule&#45;&gt;AppModule -->
<g id="edge11" class="edge">
<title>GoMobileModule&#45;&gt;AppModule</title>
<path fill="none" stroke="black" d="M1514,-122.12C1514,-136.78 1514,-155 1514,-155 1514,-155 1361.77,-155 1361.77,-155"/>
<polygon fill="black" stroke="black" points="1361.77,-151.5 1351.77,-155 1361.77,-158.5 1361.77,-151.5"/>
</g>
<!-- NewRelicModule -->
<g id="node13" class="node">
<title>NewRelicModule</title>
<polygon fill="#8dd3c7" stroke="black" points="1437.53,-122 1434.53,-126 1413.53,-126 1410.53,-122 1322.47,-122 1322.47,-86 1437.53,-86 1437.53,-122"/>
<text text-anchor="middle" x="1380" y="-99.8" font-family="Times,serif" font-size="14.00">NewRelicModule</text>
</g>
<!-- NewRelicModule&#45;&gt;AppModule -->
<g id="edge12" class="edge">
<title>NewRelicModule&#45;&gt;AppModule</title>
<path fill="none" stroke="black" d="M1337.03,-122.11C1337.03,-122.11 1337.03,-140.99 1337.03,-140.99"/>
<polygon fill="black" stroke="black" points="1333.53,-140.99 1337.03,-150.99 1340.53,-140.99 1333.53,-140.99"/>
</g>
<!-- NotificationModule -->
<g id="node14" class="node">
<title>NotificationModule</title>
<polygon fill="#8dd3c7" stroke="black" points="1304.7,-122 1301.7,-126 1280.7,-126 1277.7,-122 1177.3,-122 1177.3,-86 1304.7,-86 1304.7,-122"/>
<text text-anchor="middle" x="1241" y="-99.8" font-family="Times,serif" font-size="14.00">NotificationModule</text>
</g>
<!-- NotificationModule&#45;&gt;AppModule -->
<g id="edge13" class="edge">
<title>NotificationModule&#45;&gt;AppModule</title>
<path fill="none" stroke="black" d="M1286.39,-122.11C1286.39,-122.11 1286.39,-140.99 1286.39,-140.99"/>
<polygon fill="black" stroke="black" points="1282.89,-140.99 1286.39,-150.99 1289.89,-140.99 1282.89,-140.99"/>
</g>
<!-- PusherModule -->
<g id="node15" class="node">
<title>PusherModule</title>
<polygon fill="#8dd3c7" stroke="black" points="1159.65,-122 1156.65,-126 1135.65,-126 1132.65,-122 1062.35,-122 1062.35,-86 1159.65,-86 1159.65,-122"/>
<text text-anchor="middle" x="1111" y="-99.8" font-family="Times,serif" font-size="14.00">PusherModule</text>
</g>
<!-- PusherModule&#45;&gt;AppModule -->
<g id="edge14" class="edge">
<title>PusherModule&#45;&gt;AppModule</title>
<path fill="none" stroke="black" d="M1111,-122.12C1111,-136.78 1111,-155 1111,-155 1111,-155 1258.28,-155 1258.28,-155"/>
<polygon fill="black" stroke="black" points="1258.28,-158.5 1268.28,-155 1258.28,-151.5 1258.28,-158.5"/>
</g>
<!-- RequestModule -->
<g id="node16" class="node">
<title>RequestModule</title>
<polygon fill="#8dd3c7" stroke="black" points="1044.15,-122 1041.15,-126 1020.15,-126 1017.15,-122 939.85,-122 939.85,-86 1044.15,-86 1044.15,-122"/>
<text text-anchor="middle" x="992" y="-99.8" font-family="Times,serif" font-size="14.00">RequestModule</text>
</g>
<!-- RequestModule&#45;&gt;AppModule -->
<g id="edge15" class="edge">
<title>RequestModule&#45;&gt;AppModule</title>
<path fill="none" stroke="black" d="M992,-122.01C992,-138.05 992,-159 992,-159 992,-159 1258.1,-159 1258.1,-159"/>
<polygon fill="black" stroke="black" points="1258.1,-162.5 1268.1,-159 1258.1,-155.5 1258.1,-162.5"/>
</g>
<!-- ReviewRatingModule -->
<g id="node17" class="node">
<title>ReviewRatingModule</title>
<polygon fill="#8dd3c7" stroke="black" points="921.65,-122 918.65,-126 897.65,-126 894.65,-122 782.35,-122 782.35,-86 921.65,-86 921.65,-122"/>
<text text-anchor="middle" x="852" y="-99.8" font-family="Times,serif" font-size="14.00">ReviewRatingModule</text>
</g>
<!-- ReviewRatingModule&#45;&gt;AppModule -->
<g id="edge16" class="edge">
<title>ReviewRatingModule&#45;&gt;AppModule</title>
<path fill="none" stroke="black" d="M852,-122.02C852,-139.37 852,-163 852,-163 852,-163 1258.14,-163 1258.14,-163"/>
<polygon fill="black" stroke="black" points="1258.14,-166.5 1268.14,-163 1258.14,-159.5 1258.14,-166.5"/>
</g>
<!-- UtilsService -->
<g id="node19" class="node">
<title>UtilsService</title>
<ellipse fill="#fdb462" stroke="black" cx="2522" cy="-104" rx="58.54" ry="18"/>
<text text-anchor="middle" x="2522" y="-99.8" font-family="Times,serif" font-size="14.00">UtilsService</text>
</g>
<!-- UtilsService&#45;&gt;AppModule -->
<g id="edge18" class="edge">
<title>UtilsService&#45;&gt;AppModule</title>
<path fill="none" stroke="black" d="M2522,-122.32C2522,-145.66 2522,-183 2522,-183 2522,-183 1361.72,-183 1361.72,-183"/>
<polygon fill="black" stroke="black" points="1361.72,-179.5 1351.72,-183 1361.72,-186.5 1361.72,-179.5"/>
</g>
<!-- VersionCheckService -->
<g id="node20" class="node">
<title>VersionCheckService</title>
<ellipse fill="#fdb462" stroke="black" cx="2350" cy="-104" rx="95.46" ry="18"/>
<text text-anchor="middle" x="2350" y="-99.8" font-family="Times,serif" font-size="14.00">VersionCheckService</text>
</g>
<!-- VersionCheckService&#45;&gt;AppModule -->
<g id="edge19" class="edge">
<title>VersionCheckService&#45;&gt;AppModule</title>
<path fill="none" stroke="black" d="M2350,-122.16C2350,-144.35 2350,-179 2350,-179 2350,-179 1361.73,-179 1361.73,-179"/>
<polygon fill="black" stroke="black" points="1361.73,-175.5 1351.73,-179 1361.73,-182.5 1361.73,-175.5"/>
</g>
</g>
</svg>
