<?xml version="1.0" encoding="UTF-8" standalone="no"?>
<!DOCTYPE svg PUBLIC "-//W3C//DTD SVG 1.1//EN"
 "http://www.w3.org/Graphics/SVG/1.1/DTD/svg11.dtd">
<!-- Generated by graphviz version 2.44.1 (20200629.0846)
 -->
<!-- Title: dependencies Pages: 1 -->
<svg width="630pt" height="284pt"
 viewBox="0.00 0.00 630.00 284.00" xmlns="http://www.w3.org/2000/svg" xmlns:xlink="http://www.w3.org/1999/xlink">
<g id="graph0" class="graph" transform="scale(1 1) rotate(0) translate(4 280)">
<title>dependencies</title>
<polygon fill="white" stroke="transparent" points="-4,4 -4,-280 626,-280 626,4 -4,4"/>
<text text-anchor="start" x="290.01" y="-42.4" font-family="sans-serif" font-weight="bold" font-size="14.00">Legend</text>
<polygon fill="#ffffb3" stroke="transparent" points="77,-10 77,-30 97,-30 97,-10 77,-10"/>
<text text-anchor="start" x="100.63" y="-15.4" font-family="sans-serif" font-size="14.00"> &#160;Declarations</text>
<polygon fill="#8dd3c7" stroke="transparent" points="190,-10 190,-30 210,-30 210,-10 190,-10"/>
<text text-anchor="start" x="213.73" y="-15.4" font-family="sans-serif" font-size="14.00"> &#160;Module</text>
<polygon fill="#80b1d3" stroke="transparent" points="276,-10 276,-30 296,-30 296,-10 276,-10"/>
<text text-anchor="start" x="299.78" y="-15.4" font-family="sans-serif" font-size="14.00"> &#160;Bootstrap</text>
<polygon fill="#fdb462" stroke="transparent" points="373,-10 373,-30 393,-30 393,-10 373,-10"/>
<text text-anchor="start" x="396.67" y="-15.4" font-family="sans-serif" font-size="14.00"> &#160;Providers</text>
<polygon fill="#fb8072" stroke="transparent" points="469,-10 469,-30 489,-30 489,-10 469,-10"/>
<text text-anchor="start" x="492.73" y="-15.4" font-family="sans-serif" font-size="14.00"> &#160;Exports</text>
<g id="clust1" class="cluster">
<title>cluster_FilestackModule</title>
<polygon fill="none" stroke="black" stroke-dasharray="1,5" points="8,-70 8,-268 614,-268 614,-70 8,-70"/>
</g>
<g id="clust5" class="cluster">
<title>cluster_FilestackModule_imports</title>
<polygon fill="none" stroke="black" points="492,-78 492,-130 606,-130 606,-78 492,-78"/>
</g>
<g id="clust2" class="cluster">
<title>cluster_FilestackModule_declarations</title>
<polygon fill="none" stroke="black" points="190,-78 190,-130 484,-130 484,-78 190,-78"/>
</g>
<g id="clust8" class="cluster">
<title>cluster_FilestackModule_providers</title>
<polygon fill="none" stroke="black" points="16,-78 16,-130 182,-130 182,-78 16,-78"/>
</g>
<g id="clust6" class="cluster">
<title>cluster_FilestackModule_exports</title>
<polygon fill="none" stroke="black" points="200,-208 200,-260 472,-260 472,-208 200,-208"/>
</g>
<!-- FilestackComponent -->
<g id="node1" class="node">
<title>FilestackComponent</title>
<polygon fill="#ffffb3" stroke="black" points="475.88,-122 344.12,-122 344.12,-86 475.88,-86 475.88,-122"/>
<text text-anchor="middle" x="410" y="-99.8" font-family="Times,serif" font-size="14.00">FilestackComponent</text>
</g>
<!-- FilestackModule -->
<g id="node3" class="node">
<title>FilestackModule</title>
<polygon fill="#8dd3c7" stroke="black" points="382.09,-187 379.09,-191 358.09,-191 355.09,-187 271.91,-187 271.91,-151 382.09,-151 382.09,-187"/>
<text text-anchor="middle" x="327" y="-164.8" font-family="Times,serif" font-size="14.00">FilestackModule</text>
</g>
<!-- FilestackComponent&#45;&gt;FilestackModule -->
<g id="edge1" class="edge">
<title>FilestackComponent&#45;&gt;FilestackModule</title>
<path fill="none" stroke="black" d="M363.05,-122.11C363.05,-122.11 363.05,-140.99 363.05,-140.99"/>
<polygon fill="black" stroke="black" points="359.55,-140.99 363.05,-150.99 366.55,-140.99 359.55,-140.99"/>
</g>
<!-- PreviewComponent -->
<g id="node2" class="node">
<title>PreviewComponent</title>
<polygon fill="#ffffb3" stroke="black" points="325.7,-122 198.3,-122 198.3,-86 325.7,-86 325.7,-122"/>
<text text-anchor="middle" x="262" y="-99.8" font-family="Times,serif" font-size="14.00">PreviewComponent</text>
</g>
<!-- PreviewComponent&#45;&gt;FilestackModule -->
<g id="edge2" class="edge">
<title>PreviewComponent&#45;&gt;FilestackModule</title>
<path fill="none" stroke="black" d="M298.78,-122.11C298.78,-122.11 298.78,-140.99 298.78,-140.99"/>
<polygon fill="black" stroke="black" points="295.28,-140.99 298.78,-150.99 302.28,-140.99 295.28,-140.99"/>
</g>
<!-- FilestackComponent  -->
<g id="node5" class="node">
<title>FilestackComponent </title>
<polygon fill="#fb8072" stroke="black" points="463.88,-252 328.12,-252 328.12,-216 463.88,-216 463.88,-252"/>
<text text-anchor="middle" x="396" y="-229.8" font-family="Times,serif" font-size="14.00">FilestackComponent </text>
</g>
<!-- FilestackModule&#45;&gt;FilestackComponent  -->
<g id="edge4" class="edge">
<title>FilestackModule&#45;&gt;FilestackComponent </title>
<path fill="none" stroke="black" stroke-dasharray="5,2" d="M355.18,-187.11C355.18,-187.11 355.18,-205.99 355.18,-205.99"/>
<polygon fill="black" stroke="black" points="351.68,-205.99 355.18,-215.99 358.68,-205.99 351.68,-205.99"/>
</g>
<!-- SharedModule  -->
<g id="node6" class="node">
<title>SharedModule </title>
<polygon fill="#fb8072" stroke="black" points="309.92,-252 208.08,-252 208.08,-216 309.92,-216 309.92,-252"/>
<text text-anchor="middle" x="259" y="-229.8" font-family="Times,serif" font-size="14.00">SharedModule </text>
</g>
<!-- FilestackModule&#45;&gt;SharedModule  -->
<g id="edge5" class="edge">
<title>FilestackModule&#45;&gt;SharedModule </title>
<path fill="none" stroke="black" stroke-dasharray="5,2" d="M290.96,-187.11C290.96,-187.11 290.96,-205.99 290.96,-205.99"/>
<polygon fill="black" stroke="black" points="287.46,-205.99 290.96,-215.99 294.46,-205.99 287.46,-205.99"/>
</g>
<!-- SharedModule -->
<g id="node4" class="node">
<title>SharedModule</title>
<polygon fill="#8dd3c7" stroke="black" points="598.42,-122 595.42,-126 574.42,-126 571.42,-122 499.58,-122 499.58,-86 598.42,-86 598.42,-122"/>
<text text-anchor="middle" x="549" y="-99.8" font-family="Times,serif" font-size="14.00">SharedModule</text>
</g>
<!-- SharedModule&#45;&gt;FilestackModule -->
<g id="edge3" class="edge">
<title>SharedModule&#45;&gt;FilestackModule</title>
<path fill="none" stroke="black" d="M549,-122.11C549,-141.34 549,-169 549,-169 549,-169 392.16,-169 392.16,-169"/>
<polygon fill="black" stroke="black" points="392.16,-165.5 382.16,-169 392.16,-172.5 392.16,-165.5"/>
</g>
<!-- FilestackService -->
<g id="node7" class="node">
<title>FilestackService</title>
<ellipse fill="#fdb462" stroke="black" cx="99" cy="-104" rx="74.71" ry="18"/>
<text text-anchor="middle" x="99" y="-99.8" font-family="Times,serif" font-size="14.00">FilestackService</text>
</g>
<!-- FilestackService&#45;&gt;FilestackModule -->
<g id="edge6" class="edge">
<title>FilestackService&#45;&gt;FilestackModule</title>
<path fill="none" stroke="black" d="M99,-122.11C99,-141.34 99,-169 99,-169 99,-169 261.81,-169 261.81,-169"/>
<polygon fill="black" stroke="black" points="261.81,-172.5 271.81,-169 261.81,-165.5 261.81,-172.5"/>
</g>
</g>
</svg>
