<?xml version="1.0" encoding="UTF-8" standalone="no"?>
<!DOCTYPE svg PUBLIC "-//W3C//DTD SVG 1.1//EN"
 "http://www.w3.org/Graphics/SVG/1.1/DTD/svg11.dtd">
<!-- Generated by graphviz version 2.44.1 (20200629.0846)
 -->
<!-- Title: dependencies Pages: 1 -->
<svg width="630pt" height="284pt"
 viewBox="0.00 0.00 630.00 284.00" xmlns="http://www.w3.org/2000/svg" xmlns:xlink="http://www.w3.org/1999/xlink">
<g id="graph0" class="graph" transform="scale(1 1) rotate(0) translate(4 280)">
<title>dependencies</title>
<polygon fill="white" stroke="transparent" points="-4,4 -4,-280 626,-280 626,4 -4,4"/>
<text text-anchor="start" x="290.01" y="-42.4" font-family="sans-serif" font-weight="bold" font-size="14.00">Legend</text>
<polygon fill="#ffffb3" stroke="transparent" points="77,-10 77,-30 97,-30 97,-10 77,-10"/>
<text text-anchor="start" x="100.63" y="-15.4" font-family="sans-serif" font-size="14.00"> &#160;Declarations</text>
<polygon fill="#8dd3c7" stroke="transparent" points="190,-10 190,-30 210,-30 210,-10 190,-10"/>
<text text-anchor="start" x="213.73" y="-15.4" font-family="sans-serif" font-size="14.00"> &#160;Module</text>
<polygon fill="#80b1d3" stroke="transparent" points="276,-10 276,-30 296,-30 296,-10 276,-10"/>
<text text-anchor="start" x="299.78" y="-15.4" font-family="sans-serif" font-size="14.00"> &#160;Bootstrap</text>
<polygon fill="#fdb462" stroke="transparent" points="373,-10 373,-30 393,-30 393,-10 373,-10"/>
<text text-anchor="start" x="396.67" y="-15.4" font-family="sans-serif" font-size="14.00"> &#160;Providers</text>
<polygon fill="#fb8072" stroke="transparent" points="469,-10 469,-30 489,-30 489,-10 469,-10"/>
<text text-anchor="start" x="492.73" y="-15.4" font-family="sans-serif" font-size="14.00"> &#160;Exports</text>
<g id="clust1" class="cluster">
<title>cluster_FilestackModule</title>
<polygon fill="none" stroke="black" stroke-dasharray="1,5" points="8,-70 8,-268 614,-268 614,-70 8,-70"/>
</g>
<g id="clust8" class="cluster">
<title>cluster_FilestackModule_providers</title>
<polygon fill="none" stroke="black" points="440,-78 440,-130 606,-130 606,-78 440,-78"/>
</g>
<g id="clust2" class="cluster">
<title>cluster_FilestackModule_declarations</title>
<polygon fill="none" stroke="black" points="138,-78 138,-130 432,-130 432,-78 138,-78"/>
</g>
<g id="clust6" class="cluster">
<title>cluster_FilestackModule_exports</title>
<polygon fill="none" stroke="black" points="157,-208 157,-260 429,-260 429,-208 157,-208"/>
</g>
<g id="clust5" class="cluster">
<title>cluster_FilestackModule_imports</title>
<polygon fill="none" stroke="black" points="16,-78 16,-130 130,-130 130,-78 16,-78"/>
</g>
<!-- FilestackComponent -->
<g id="node1" class="node">
<title>FilestackComponent</title>
<polygon fill="#ffffb3" stroke="black" points="423.88,-122 292.12,-122 292.12,-86 423.88,-86 423.88,-122"/>
<text text-anchor="middle" x="358" y="-99.8" font-family="Times,serif" font-size="14.00">FilestackComponent</text>
</g>
<!-- FilestackModule -->
<g id="node3" class="node">
<title>FilestackModule</title>
<polygon fill="#8dd3c7" stroke="black" points="339.09,-187 336.09,-191 315.09,-191 312.09,-187 228.91,-187 228.91,-151 339.09,-151 339.09,-187"/>
<text text-anchor="middle" x="284" y="-164.8" font-family="Times,serif" font-size="14.00">FilestackModule</text>
</g>
<!-- FilestackComponent&#45;&gt;FilestackModule -->
<g id="edge1" class="edge">
<title>FilestackComponent&#45;&gt;FilestackModule</title>
<path fill="none" stroke="black" d="M315.55,-122.11C315.55,-122.11 315.55,-140.99 315.55,-140.99"/>
<polygon fill="black" stroke="black" points="312.05,-140.99 315.55,-150.99 319.05,-140.99 312.05,-140.99"/>
</g>
<!-- PreviewComponent -->
<g id="node2" class="node">
<title>PreviewComponent</title>
<polygon fill="#ffffb3" stroke="black" points="273.7,-122 146.3,-122 146.3,-86 273.7,-86 273.7,-122"/>
<text text-anchor="middle" x="210" y="-99.8" font-family="Times,serif" font-size="14.00">PreviewComponent</text>
</g>
<!-- PreviewComponent&#45;&gt;FilestackModule -->
<g id="edge2" class="edge">
<title>PreviewComponent&#45;&gt;FilestackModule</title>
<path fill="none" stroke="black" d="M251.28,-122.11C251.28,-122.11 251.28,-140.99 251.28,-140.99"/>
<polygon fill="black" stroke="black" points="247.78,-140.99 251.28,-150.99 254.78,-140.99 247.78,-140.99"/>
</g>
<!-- FilestackComponent  -->
<g id="node5" class="node">
<title>FilestackComponent </title>
<polygon fill="#fb8072" stroke="black" points="420.88,-252 285.12,-252 285.12,-216 420.88,-216 420.88,-252"/>
<text text-anchor="middle" x="353" y="-229.8" font-family="Times,serif" font-size="14.00">FilestackComponent </text>
</g>
<!-- FilestackModule&#45;&gt;FilestackComponent  -->
<g id="edge4" class="edge">
<title>FilestackModule&#45;&gt;FilestackComponent </title>
<path fill="none" stroke="black" stroke-dasharray="5,2" d="M312.18,-187.11C312.18,-187.11 312.18,-205.99 312.18,-205.99"/>
<polygon fill="black" stroke="black" points="308.68,-205.99 312.18,-215.99 315.68,-205.99 308.68,-205.99"/>
</g>
<!-- SharedModule  -->
<g id="node6" class="node">
<title>SharedModule </title>
<polygon fill="#fb8072" stroke="black" points="266.92,-252 165.08,-252 165.08,-216 266.92,-216 266.92,-252"/>
<text text-anchor="middle" x="216" y="-229.8" font-family="Times,serif" font-size="14.00">SharedModule </text>
</g>
<!-- FilestackModule&#45;&gt;SharedModule  -->
<g id="edge5" class="edge">
<title>FilestackModule&#45;&gt;SharedModule </title>
<path fill="none" stroke="black" stroke-dasharray="5,2" d="M247.96,-187.11C247.96,-187.11 247.96,-205.99 247.96,-205.99"/>
<polygon fill="black" stroke="black" points="244.46,-205.99 247.96,-215.99 251.46,-205.99 244.46,-205.99"/>
</g>
<!-- SharedModule -->
<g id="node4" class="node">
<title>SharedModule</title>
<polygon fill="#8dd3c7" stroke="black" points="122.42,-122 119.42,-126 98.42,-126 95.42,-122 23.58,-122 23.58,-86 122.42,-86 122.42,-122"/>
<text text-anchor="middle" x="73" y="-99.8" font-family="Times,serif" font-size="14.00">SharedModule</text>
</g>
<!-- SharedModule&#45;&gt;FilestackModule -->
<g id="edge3" class="edge">
<title>SharedModule&#45;&gt;FilestackModule</title>
<path fill="none" stroke="black" d="M73,-122.11C73,-141.34 73,-169 73,-169 73,-169 218.84,-169 218.84,-169"/>
<polygon fill="black" stroke="black" points="218.84,-172.5 228.84,-169 218.84,-165.5 218.84,-172.5"/>
</g>
<!-- FilestackService -->
<g id="node7" class="node">
<title>FilestackService</title>
<ellipse fill="#fdb462" stroke="black" cx="523" cy="-104" rx="74.71" ry="18"/>
<text text-anchor="middle" x="523" y="-99.8" font-family="Times,serif" font-size="14.00">FilestackService</text>
</g>
<!-- FilestackService&#45;&gt;FilestackModule -->
<g id="edge6" class="edge">
<title>FilestackService&#45;&gt;FilestackModule</title>
<path fill="none" stroke="black" d="M523,-122.11C523,-141.34 523,-169 523,-169 523,-169 349.13,-169 349.13,-169"/>
<polygon fill="black" stroke="black" points="349.13,-165.5 339.13,-169 349.13,-172.5 349.13,-165.5"/>
</g>
</g>
</svg>
