<?xml version="1.0" encoding="UTF-8" standalone="no"?>
<!DOCTYPE svg PUBLIC "-//W3C//DTD SVG 1.1//EN"
 "http://www.w3.org/Graphics/SVG/1.1/DTD/svg11.dtd">
<!-- Generated by graphviz version 2.44.1 (20200629.0846)
 -->
<!-- Title: dependencies Pages: 1 -->
<svg width="850pt" height="284pt"
 viewBox="0.00 0.00 850.00 284.00" xmlns="http://www.w3.org/2000/svg" xmlns:xlink="http://www.w3.org/1999/xlink">
<g id="graph0" class="graph" transform="scale(1 1) rotate(0) translate(4 280)">
<title>dependencies</title>
<polygon fill="white" stroke="transparent" points="-4,4 -4,-280 846,-280 846,4 -4,4"/>
<text text-anchor="start" x="400.01" y="-42.4" font-family="sans-serif" font-weight="bold" font-size="14.00">Legend</text>
<polygon fill="#ffffb3" stroke="transparent" points="187,-10 187,-30 207,-30 207,-10 187,-10"/>
<text text-anchor="start" x="210.63" y="-15.4" font-family="sans-serif" font-size="14.00"> &#160;Declarations</text>
<polygon fill="#8dd3c7" stroke="transparent" points="300,-10 300,-30 320,-30 320,-10 300,-10"/>
<text text-anchor="start" x="323.73" y="-15.4" font-family="sans-serif" font-size="14.00"> &#160;Module</text>
<polygon fill="#80b1d3" stroke="transparent" points="386,-10 386,-30 406,-30 406,-10 386,-10"/>
<text text-anchor="start" x="409.78" y="-15.4" font-family="sans-serif" font-size="14.00"> &#160;Bootstrap</text>
<polygon fill="#fdb462" stroke="transparent" points="483,-10 483,-30 503,-30 503,-10 483,-10"/>
<text text-anchor="start" x="506.67" y="-15.4" font-family="sans-serif" font-size="14.00"> &#160;Providers</text>
<polygon fill="#fb8072" stroke="transparent" points="579,-10 579,-30 599,-30 599,-10 579,-10"/>
<text text-anchor="start" x="602.73" y="-15.4" font-family="sans-serif" font-size="14.00"> &#160;Exports</text>
<g id="clust1" class="cluster">
<title>cluster_TopicModule</title>
<polygon fill="none" stroke="black" stroke-dasharray="1,5" points="8,-70 8,-268 834,-268 834,-70 8,-70"/>
</g>
<g id="clust7" class="cluster">
<title>cluster_TopicModule_providers</title>
<polygon fill="none" stroke="black" points="684,-78 684,-130 826,-130 826,-78 684,-78"/>
</g>
<g id="clust5" class="cluster">
<title>cluster_TopicModule_exports</title>
<polygon fill="none" stroke="black" points="156,-208 156,-260 668,-260 668,-208 156,-208"/>
</g>
<g id="clust2" class="cluster">
<title>cluster_TopicModule_declarations</title>
<polygon fill="none" stroke="black" points="546,-78 546,-130 676,-130 676,-78 546,-78"/>
</g>
<g id="clust4" class="cluster">
<title>cluster_TopicModule_imports</title>
<polygon fill="none" stroke="black" points="16,-78 16,-130 538,-130 538,-78 16,-78"/>
</g>
<!-- TopicComponent -->
<g id="node1" class="node">
<title>TopicComponent</title>
<polygon fill="#ffffb3" stroke="black" points="667.99,-122 554.01,-122 554.01,-86 667.99,-86 667.99,-122"/>
<text text-anchor="middle" x="611" y="-99.8" font-family="Times,serif" font-size="14.00">TopicComponent</text>
</g>
<!-- TopicModule -->
<g id="node2" class="node">
<title>TopicModule</title>
<polygon fill="#8dd3c7" stroke="black" points="460.21,-187 457.21,-191 436.21,-191 433.21,-187 367.79,-187 367.79,-151 460.21,-151 460.21,-187"/>
<text text-anchor="middle" x="414" y="-164.8" font-family="Times,serif" font-size="14.00">TopicModule</text>
</g>
<!-- TopicComponent&#45;&gt;TopicModule -->
<g id="edge1" class="edge">
<title>TopicComponent&#45;&gt;TopicModule</title>
<path fill="none" stroke="black" d="M589.49,-122.03C589.49,-138.4 589.49,-160 589.49,-160 589.49,-160 470.11,-160 470.11,-160"/>
<polygon fill="black" stroke="black" points="470.11,-156.5 460.11,-160 470.11,-163.5 470.11,-156.5"/>
</g>
<!-- ActivityModule  -->
<g id="node7" class="node">
<title>ActivityModule </title>
<polygon fill="#fb8072" stroke="black" points="660.43,-252 551.57,-252 551.57,-216 660.43,-216 660.43,-252"/>
<text text-anchor="middle" x="606" y="-229.8" font-family="Times,serif" font-size="14.00">ActivityModule </text>
</g>
<!-- TopicModule&#45;&gt;ActivityModule  -->
<g id="edge6" class="edge">
<title>TopicModule&#45;&gt;ActivityModule </title>
<path fill="none" stroke="black" stroke-dasharray="5,2" d="M460.3,-178C522.41,-178 624.98,-178 624.98,-178 624.98,-178 624.98,-205.97 624.98,-205.97"/>
<polygon fill="black" stroke="black" points="621.48,-205.97 624.98,-215.97 628.48,-205.97 621.48,-205.97"/>
</g>
<!-- FilestackModule  -->
<g id="node8" class="node">
<title>FilestackModule </title>
<polygon fill="#fb8072" stroke="black" points="533.59,-252 420.41,-252 420.41,-216 533.59,-216 533.59,-252"/>
<text text-anchor="middle" x="477" y="-229.8" font-family="Times,serif" font-size="14.00">FilestackModule </text>
</g>
<!-- TopicModule&#45;&gt;FilestackModule  -->
<g id="edge7" class="edge">
<title>TopicModule&#45;&gt;FilestackModule </title>
<path fill="none" stroke="black" stroke-dasharray="5,2" d="M440.15,-187.11C440.15,-187.11 440.15,-205.99 440.15,-205.99"/>
<polygon fill="black" stroke="black" points="436.65,-205.99 440.15,-215.99 443.65,-205.99 436.65,-205.99"/>
</g>
<!-- SharedModule  -->
<g id="node9" class="node">
<title>SharedModule </title>
<polygon fill="#fb8072" stroke="black" points="401.92,-252 300.08,-252 300.08,-216 401.92,-216 401.92,-252"/>
<text text-anchor="middle" x="351" y="-229.8" font-family="Times,serif" font-size="14.00">SharedModule </text>
</g>
<!-- TopicModule&#45;&gt;SharedModule  -->
<g id="edge8" class="edge">
<title>TopicModule&#45;&gt;SharedModule </title>
<path fill="none" stroke="black" stroke-dasharray="5,2" d="M384.93,-187.11C384.93,-187.11 384.93,-205.99 384.93,-205.99"/>
<polygon fill="black" stroke="black" points="381.43,-205.99 384.93,-215.99 388.43,-205.99 381.43,-205.99"/>
</g>
<!-- TopicComponent  -->
<g id="node10" class="node">
<title>TopicComponent </title>
<polygon fill="#fb8072" stroke="black" points="281.99,-252 164.01,-252 164.01,-216 281.99,-216 281.99,-252"/>
<text text-anchor="middle" x="223" y="-229.8" font-family="Times,serif" font-size="14.00">TopicComponent </text>
</g>
<!-- TopicModule&#45;&gt;TopicComponent  -->
<g id="edge9" class="edge">
<title>TopicModule&#45;&gt;TopicComponent </title>
<path fill="none" stroke="black" stroke-dasharray="5,2" d="M367.79,-178C308.33,-178 212.6,-178 212.6,-178 212.6,-178 212.6,-205.97 212.6,-205.97"/>
<polygon fill="black" stroke="black" points="209.1,-205.97 212.6,-215.97 216.1,-205.97 209.1,-205.97"/>
</g>
<!-- ActivityModule -->
<g id="node3" class="node">
<title>ActivityModule</title>
<polygon fill="#8dd3c7" stroke="black" points="529.93,-122 526.93,-126 505.93,-126 502.93,-122 424.07,-122 424.07,-86 529.93,-86 529.93,-122"/>
<text text-anchor="middle" x="477" y="-99.8" font-family="Times,serif" font-size="14.00">ActivityModule</text>
</g>
<!-- ActivityModule&#45;&gt;TopicModule -->
<g id="edge2" class="edge">
<title>ActivityModule&#45;&gt;TopicModule</title>
<path fill="none" stroke="black" d="M442.19,-122.11C442.19,-122.11 442.19,-140.99 442.19,-140.99"/>
<polygon fill="black" stroke="black" points="438.69,-140.99 442.19,-150.99 445.69,-140.99 438.69,-140.99"/>
</g>
<!-- FilestackModule -->
<g id="node4" class="node">
<title>FilestackModule</title>
<polygon fill="#8dd3c7" stroke="black" points="406.09,-122 403.09,-126 382.09,-126 379.09,-122 295.91,-122 295.91,-86 406.09,-86 406.09,-122"/>
<text text-anchor="middle" x="351" y="-99.8" font-family="Times,serif" font-size="14.00">FilestackModule</text>
</g>
<!-- FilestackModule&#45;&gt;TopicModule -->
<g id="edge3" class="edge">
<title>FilestackModule&#45;&gt;TopicModule</title>
<path fill="none" stroke="black" d="M386.97,-122.11C386.97,-122.11 386.97,-140.99 386.97,-140.99"/>
<polygon fill="black" stroke="black" points="383.47,-140.99 386.97,-150.99 390.47,-140.99 383.47,-140.99"/>
</g>
<!-- SharedModule -->
<g id="node5" class="node">
<title>SharedModule</title>
<polygon fill="#8dd3c7" stroke="black" points="278.42,-122 275.42,-126 254.42,-126 251.42,-122 179.58,-122 179.58,-86 278.42,-86 278.42,-122"/>
<text text-anchor="middle" x="229" y="-99.8" font-family="Times,serif" font-size="14.00">SharedModule</text>
</g>
<!-- SharedModule&#45;&gt;TopicModule -->
<g id="edge4" class="edge">
<title>SharedModule&#45;&gt;TopicModule</title>
<path fill="none" stroke="black" d="M245.4,-122.03C245.4,-138.4 245.4,-160 245.4,-160 245.4,-160 357.48,-160 357.48,-160"/>
<polygon fill="black" stroke="black" points="357.48,-163.5 367.48,-160 357.48,-156.5 357.48,-163.5"/>
</g>
<!-- TopicRoutingModule -->
<g id="node6" class="node">
<title>TopicRoutingModule</title>
<polygon fill="#8dd3c7" stroke="black" points="161.83,-122 158.83,-126 137.83,-126 134.83,-122 24.17,-122 24.17,-86 161.83,-86 161.83,-122"/>
<text text-anchor="middle" x="93" y="-99.8" font-family="Times,serif" font-size="14.00">TopicRoutingModule</text>
</g>
<!-- TopicRoutingModule&#45;&gt;TopicModule -->
<g id="edge5" class="edge">
<title>TopicRoutingModule&#45;&gt;TopicModule</title>
<path fill="none" stroke="black" d="M93,-122.11C93,-141.34 93,-169 93,-169 93,-169 357.67,-169 357.67,-169"/>
<polygon fill="black" stroke="black" points="357.67,-172.5 367.67,-169 357.67,-165.5 357.67,-172.5"/>
</g>
<!-- TopicService -->
<g id="node11" class="node">
<title>TopicService</title>
<ellipse fill="#fdb462" stroke="black" cx="755" cy="-104" rx="62.54" ry="18"/>
<text text-anchor="middle" x="755" y="-99.8" font-family="Times,serif" font-size="14.00">TopicService</text>
</g>
<!-- TopicService&#45;&gt;TopicModule -->
<g id="edge10" class="edge">
<title>TopicService&#45;&gt;TopicModule</title>
<path fill="none" stroke="black" d="M755,-122.11C755,-141.34 755,-169 755,-169 755,-169 470.34,-169 470.34,-169"/>
<polygon fill="black" stroke="black" points="470.34,-165.5 460.34,-169 470.34,-172.5 470.34,-165.5"/>
</g>
</g>
</svg>
