<?xml version="1.0" encoding="UTF-8" standalone="no"?>
<!DOCTYPE svg PUBLIC "-//W3C//DTD SVG 1.1//EN"
 "http://www.w3.org/Graphics/SVG/1.1/DTD/svg11.dtd">
<!-- Generated by graphviz version 2.44.1 (20200629.0846)
 -->
<!-- Title: dependencies Pages: 1 -->
<svg width="850pt" height="284pt"
 viewBox="0.00 0.00 850.00 284.00" xmlns="http://www.w3.org/2000/svg" xmlns:xlink="http://www.w3.org/1999/xlink">
<g id="graph0" class="graph" transform="scale(1 1) rotate(0) translate(4 280)">
<title>dependencies</title>
<polygon fill="white" stroke="transparent" points="-4,4 -4,-280 846,-280 846,4 -4,4"/>
<text text-anchor="start" x="400.01" y="-42.4" font-family="sans-serif" font-weight="bold" font-size="14.00">Legend</text>
<polygon fill="#ffffb3" stroke="transparent" points="187,-10 187,-30 207,-30 207,-10 187,-10"/>
<text text-anchor="start" x="210.63" y="-15.4" font-family="sans-serif" font-size="14.00"> &#160;Declarations</text>
<polygon fill="#8dd3c7" stroke="transparent" points="300,-10 300,-30 320,-30 320,-10 300,-10"/>
<text text-anchor="start" x="323.73" y="-15.4" font-family="sans-serif" font-size="14.00"> &#160;Module</text>
<polygon fill="#80b1d3" stroke="transparent" points="386,-10 386,-30 406,-30 406,-10 386,-10"/>
<text text-anchor="start" x="409.78" y="-15.4" font-family="sans-serif" font-size="14.00"> &#160;Bootstrap</text>
<polygon fill="#fdb462" stroke="transparent" points="483,-10 483,-30 503,-30 503,-10 483,-10"/>
<text text-anchor="start" x="506.67" y="-15.4" font-family="sans-serif" font-size="14.00"> &#160;Providers</text>
<polygon fill="#fb8072" stroke="transparent" points="579,-10 579,-30 599,-30 599,-10 579,-10"/>
<text text-anchor="start" x="602.73" y="-15.4" font-family="sans-serif" font-size="14.00"> &#160;Exports</text>
<g id="clust1" class="cluster">
<title>cluster_TopicModule</title>
<polygon fill="none" stroke="black" stroke-dasharray="1,5" points="8,-70 8,-268 834,-268 834,-70 8,-70"/>
</g>
<g id="clust7" class="cluster">
<title>cluster_TopicModule_providers</title>
<polygon fill="none" stroke="black" points="684,-78 684,-130 826,-130 826,-78 684,-78"/>
</g>
<g id="clust4" class="cluster">
<title>cluster_TopicModule_imports</title>
<polygon fill="none" stroke="black" points="154,-78 154,-130 676,-130 676,-78 154,-78"/>
</g>
<g id="clust2" class="cluster">
<title>cluster_TopicModule_declarations</title>
<polygon fill="none" stroke="black" points="16,-78 16,-130 146,-130 146,-78 16,-78"/>
</g>
<g id="clust5" class="cluster">
<title>cluster_TopicModule_exports</title>
<polygon fill="none" stroke="black" points="170,-208 170,-260 682,-260 682,-208 170,-208"/>
</g>
<!-- TopicComponent -->
<g id="node1" class="node">
<title>TopicComponent</title>
<polygon fill="#ffffb3" stroke="black" points="137.99,-122 24.01,-122 24.01,-86 137.99,-86 137.99,-122"/>
<text text-anchor="middle" x="81" y="-99.8" font-family="Times,serif" font-size="14.00">TopicComponent</text>
</g>
<!-- TopicModule -->
<g id="node2" class="node">
<title>TopicModule</title>
<polygon fill="#8dd3c7" stroke="black" points="474.21,-187 471.21,-191 450.21,-191 447.21,-187 381.79,-187 381.79,-151 474.21,-151 474.21,-187"/>
<text text-anchor="middle" x="428" y="-164.8" font-family="Times,serif" font-size="14.00">TopicModule</text>
</g>
<!-- TopicComponent&#45;&gt;TopicModule -->
<g id="edge1" class="edge">
<title>TopicComponent&#45;&gt;TopicModule</title>
<path fill="none" stroke="black" d="M81,-122.11C81,-141.34 81,-169 81,-169 81,-169 371.56,-169 371.56,-169"/>
<polygon fill="black" stroke="black" points="371.56,-172.5 381.56,-169 371.56,-165.5 371.56,-172.5"/>
</g>
<!-- ActivityModule  -->
<g id="node7" class="node">
<title>ActivityModule </title>
<polygon fill="#fb8072" stroke="black" points="674.43,-252 565.57,-252 565.57,-216 674.43,-216 674.43,-252"/>
<text text-anchor="middle" x="620" y="-229.8" font-family="Times,serif" font-size="14.00">ActivityModule </text>
</g>
<!-- TopicModule&#45;&gt;ActivityModule  -->
<g id="edge6" class="edge">
<title>TopicModule&#45;&gt;ActivityModule </title>
<path fill="none" stroke="black" stroke-dasharray="5,2" d="M474.44,-178C525.25,-178 599.59,-178 599.59,-178 599.59,-178 599.59,-205.97 599.59,-205.97"/>
<polygon fill="black" stroke="black" points="596.09,-205.97 599.59,-215.97 603.09,-205.97 596.09,-205.97"/>
</g>
<!-- FilestackModule  -->
<g id="node8" class="node">
<title>FilestackModule </title>
<polygon fill="#fb8072" stroke="black" points="547.59,-252 434.41,-252 434.41,-216 547.59,-216 547.59,-252"/>
<text text-anchor="middle" x="491" y="-229.8" font-family="Times,serif" font-size="14.00">FilestackModule </text>
</g>
<!-- TopicModule&#45;&gt;FilestackModule  -->
<g id="edge7" class="edge">
<title>TopicModule&#45;&gt;FilestackModule </title>
<path fill="none" stroke="black" stroke-dasharray="5,2" d="M454.15,-187.11C454.15,-187.11 454.15,-205.99 454.15,-205.99"/>
<polygon fill="black" stroke="black" points="450.65,-205.99 454.15,-215.99 457.65,-205.99 450.65,-205.99"/>
</g>
<!-- SharedModule  -->
<g id="node9" class="node">
<title>SharedModule </title>
<polygon fill="#fb8072" stroke="black" points="415.92,-252 314.08,-252 314.08,-216 415.92,-216 415.92,-252"/>
<text text-anchor="middle" x="365" y="-229.8" font-family="Times,serif" font-size="14.00">SharedModule </text>
</g>
<!-- TopicModule&#45;&gt;SharedModule  -->
<g id="edge8" class="edge">
<title>TopicModule&#45;&gt;SharedModule </title>
<path fill="none" stroke="black" stroke-dasharray="5,2" d="M398.93,-187.11C398.93,-187.11 398.93,-205.99 398.93,-205.99"/>
<polygon fill="black" stroke="black" points="395.43,-205.99 398.93,-215.99 402.43,-205.99 395.43,-205.99"/>
</g>
<!-- TopicComponent  -->
<g id="node10" class="node">
<title>TopicComponent </title>
<polygon fill="#fb8072" stroke="black" points="295.99,-252 178.01,-252 178.01,-216 295.99,-216 295.99,-252"/>
<text text-anchor="middle" x="237" y="-229.8" font-family="Times,serif" font-size="14.00">TopicComponent </text>
</g>
<!-- TopicModule&#45;&gt;TopicComponent  -->
<g id="edge9" class="edge">
<title>TopicModule&#45;&gt;TopicComponent </title>
<path fill="none" stroke="black" stroke-dasharray="5,2" d="M381.61,-178C330.85,-178 256.58,-178 256.58,-178 256.58,-178 256.58,-205.97 256.58,-205.97"/>
<polygon fill="black" stroke="black" points="253.08,-205.97 256.58,-215.97 260.08,-205.97 253.08,-205.97"/>
</g>
<!-- ActivityModule -->
<g id="node3" class="node">
<title>ActivityModule</title>
<polygon fill="#8dd3c7" stroke="black" points="667.93,-122 664.93,-126 643.93,-126 640.93,-122 562.07,-122 562.07,-86 667.93,-86 667.93,-122"/>
<text text-anchor="middle" x="615" y="-99.8" font-family="Times,serif" font-size="14.00">ActivityModule</text>
</g>
<!-- ActivityModule&#45;&gt;TopicModule -->
<g id="edge2" class="edge">
<title>ActivityModule&#45;&gt;TopicModule</title>
<path fill="none" stroke="black" d="M633.66,-122.03C633.66,-138.4 633.66,-160 633.66,-160 633.66,-160 484.15,-160 484.15,-160"/>
<polygon fill="black" stroke="black" points="484.15,-156.5 474.15,-160 484.15,-163.5 484.15,-156.5"/>
</g>
<!-- FilestackModule -->
<g id="node4" class="node">
<title>FilestackModule</title>
<polygon fill="#8dd3c7" stroke="black" points="544.09,-122 541.09,-126 520.09,-126 517.09,-122 433.91,-122 433.91,-86 544.09,-86 544.09,-122"/>
<text text-anchor="middle" x="489" y="-99.8" font-family="Times,serif" font-size="14.00">FilestackModule</text>
</g>
<!-- FilestackModule&#45;&gt;TopicModule -->
<g id="edge3" class="edge">
<title>FilestackModule&#45;&gt;TopicModule</title>
<path fill="none" stroke="black" d="M454.03,-122.11C454.03,-122.11 454.03,-140.99 454.03,-140.99"/>
<polygon fill="black" stroke="black" points="450.53,-140.99 454.03,-150.99 457.53,-140.99 450.53,-140.99"/>
</g>
<!-- SharedModule -->
<g id="node5" class="node">
<title>SharedModule</title>
<polygon fill="#8dd3c7" stroke="black" points="416.42,-122 413.42,-126 392.42,-126 389.42,-122 317.58,-122 317.58,-86 416.42,-86 416.42,-122"/>
<text text-anchor="middle" x="367" y="-99.8" font-family="Times,serif" font-size="14.00">SharedModule</text>
</g>
<!-- SharedModule&#45;&gt;TopicModule -->
<g id="edge4" class="edge">
<title>SharedModule&#45;&gt;TopicModule</title>
<path fill="none" stroke="black" d="M399.05,-122.11C399.05,-122.11 399.05,-140.99 399.05,-140.99"/>
<polygon fill="black" stroke="black" points="395.55,-140.99 399.05,-150.99 402.55,-140.99 395.55,-140.99"/>
</g>
<!-- TopicRoutingModule -->
<g id="node6" class="node">
<title>TopicRoutingModule</title>
<polygon fill="#8dd3c7" stroke="black" points="299.83,-122 296.83,-126 275.83,-126 272.83,-122 162.17,-122 162.17,-86 299.83,-86 299.83,-122"/>
<text text-anchor="middle" x="231" y="-99.8" font-family="Times,serif" font-size="14.00">TopicRoutingModule</text>
</g>
<!-- TopicRoutingModule&#45;&gt;TopicModule -->
<g id="edge5" class="edge">
<title>TopicRoutingModule&#45;&gt;TopicModule</title>
<path fill="none" stroke="black" d="M217.42,-122.03C217.42,-138.4 217.42,-160 217.42,-160 217.42,-160 371.79,-160 371.79,-160"/>
<polygon fill="black" stroke="black" points="371.79,-163.5 381.79,-160 371.79,-156.5 371.79,-163.5"/>
</g>
<!-- TopicService -->
<g id="node11" class="node">
<title>TopicService</title>
<ellipse fill="#fdb462" stroke="black" cx="755" cy="-104" rx="62.54" ry="18"/>
<text text-anchor="middle" x="755" y="-99.8" font-family="Times,serif" font-size="14.00">TopicService</text>
</g>
<!-- TopicService&#45;&gt;TopicModule -->
<g id="edge10" class="edge">
<title>TopicService&#45;&gt;TopicModule</title>
<path fill="none" stroke="black" d="M755,-122.11C755,-141.34 755,-169 755,-169 755,-169 484.16,-169 484.16,-169"/>
<polygon fill="black" stroke="black" points="484.16,-165.5 474.16,-169 484.16,-172.5 484.16,-165.5"/>
</g>
</g>
</svg>
