<?xml version="1.0" encoding="UTF-8" standalone="no"?>
<!DOCTYPE svg PUBLIC "-//W3C//DTD SVG 1.1//EN"
 "http://www.w3.org/Graphics/SVG/1.1/DTD/svg11.dtd">
<!-- Generated by graphviz version 2.44.1 (20200629.0846)
 -->
<!-- Title: dependencies Pages: 1 -->
<svg width="1525pt" height="284pt"
 viewBox="0.00 0.00 1525.00 284.00" xmlns="http://www.w3.org/2000/svg" xmlns:xlink="http://www.w3.org/1999/xlink">
<g id="graph0" class="graph" transform="scale(1 1) rotate(0) translate(4 280)">
<title>dependencies</title>
<polygon fill="white" stroke="transparent" points="-4,4 -4,-280 1521,-280 1521,4 -4,4"/>
<text text-anchor="start" x="737.51" y="-42.4" font-family="sans-serif" font-weight="bold" font-size="14.00">Legend</text>
<polygon fill="#ffffb3" stroke="transparent" points="524.5,-10 524.5,-30 544.5,-30 544.5,-10 524.5,-10"/>
<text text-anchor="start" x="548.13" y="-15.4" font-family="sans-serif" font-size="14.00"> &#160;Declarations</text>
<polygon fill="#8dd3c7" stroke="transparent" points="637.5,-10 637.5,-30 657.5,-30 657.5,-10 637.5,-10"/>
<text text-anchor="start" x="661.23" y="-15.4" font-family="sans-serif" font-size="14.00"> &#160;Module</text>
<polygon fill="#80b1d3" stroke="transparent" points="723.5,-10 723.5,-30 743.5,-30 743.5,-10 723.5,-10"/>
<text text-anchor="start" x="747.28" y="-15.4" font-family="sans-serif" font-size="14.00"> &#160;Bootstrap</text>
<polygon fill="#fdb462" stroke="transparent" points="820.5,-10 820.5,-30 840.5,-30 840.5,-10 820.5,-10"/>
<text text-anchor="start" x="844.17" y="-15.4" font-family="sans-serif" font-size="14.00"> &#160;Providers</text>
<polygon fill="#fb8072" stroke="transparent" points="916.5,-10 916.5,-30 936.5,-30 936.5,-10 916.5,-10"/>
<text text-anchor="start" x="940.23" y="-15.4" font-family="sans-serif" font-size="14.00"> &#160;Exports</text>
<g id="clust1" class="cluster">
<title>cluster_OverviewModule</title>
<polygon fill="none" stroke="black" stroke-dasharray="1,5" points="8,-70 8,-268 1509,-268 1509,-70 8,-70"/>
</g>
<g id="clust2" class="cluster">
<title>cluster_OverviewModule_declarations</title>
<polygon fill="none" stroke="black" points="774,-78 774,-130 1501,-130 1501,-78 774,-78"/>
</g>
<g id="clust11" class="cluster">
<title>cluster_OverviewModule_providers</title>
<polygon fill="none" stroke="black" points="470,-78 470,-130 766,-130 766,-78 470,-78"/>
</g>
<g id="clust8" class="cluster">
<title>cluster_OverviewModule_imports</title>
<polygon fill="none" stroke="black" points="16,-78 16,-130 462,-130 462,-78 16,-78"/>
</g>
<g id="clust9" class="cluster">
<title>cluster_OverviewModule_exports</title>
<polygon fill="none" stroke="black" points="574,-208 574,-260 1008,-260 1008,-208 574,-208"/>
</g>
<!-- HomeComponent -->
<g id="node1" class="node">
<title>HomeComponent</title>
<polygon fill="#ffffb3" stroke="black" points="1492.55,-122 1377.45,-122 1377.45,-86 1492.55,-86 1492.55,-122"/>
<text text-anchor="middle" x="1435" y="-99.8" font-family="Times,serif" font-size="14.00">HomeComponent</text>
</g>
<!-- OverviewModule -->
<g id="node6" class="node">
<title>OverviewModule</title>
<polygon fill="#8dd3c7" stroke="black" points="829.24,-187 826.24,-191 805.24,-191 802.24,-187 714.76,-187 714.76,-151 829.24,-151 829.24,-187"/>
<text text-anchor="middle" x="772" y="-164.8" font-family="Times,serif" font-size="14.00">OverviewModule</text>
</g>
<!-- HomeComponent&#45;&gt;OverviewModule -->
<g id="edge1" class="edge">
<title>HomeComponent&#45;&gt;OverviewModule</title>
<path fill="none" stroke="black" d="M1435,-122.28C1435,-143.32 1435,-175 1435,-175 1435,-175 839.39,-175 839.39,-175"/>
<polygon fill="black" stroke="black" points="839.39,-171.5 829.39,-175 839.39,-178.5 839.39,-171.5"/>
</g>
<!-- OverviewComponent -->
<g id="node2" class="node">
<title>OverviewComponent</title>
<polygon fill="#ffffb3" stroke="black" points="1359.03,-122 1222.97,-122 1222.97,-86 1359.03,-86 1359.03,-122"/>
<text text-anchor="middle" x="1291" y="-99.8" font-family="Times,serif" font-size="14.00">OverviewComponent</text>
</g>
<!-- OverviewComponent&#45;&gt;OverviewModule -->
<g id="edge2" class="edge">
<title>OverviewComponent&#45;&gt;OverviewModule</title>
<path fill="none" stroke="black" d="M1291,-122.11C1291,-141.34 1291,-169 1291,-169 1291,-169 839.53,-169 839.53,-169"/>
<polygon fill="black" stroke="black" points="839.53,-165.5 829.53,-169 839.53,-172.5 839.53,-165.5"/>
</g>
<!-- ProjectComponent -->
<g id="node3" class="node">
<title>ProjectComponent</title>
<polygon fill="#ffffb3" stroke="black" points="1204.49,-122 1083.51,-122 1083.51,-86 1204.49,-86 1204.49,-122"/>
<text text-anchor="middle" x="1144" y="-99.8" font-family="Times,serif" font-size="14.00">ProjectComponent</text>
</g>
<!-- ProjectComponent&#45;&gt;OverviewModule -->
<g id="edge3" class="edge">
<title>ProjectComponent&#45;&gt;OverviewModule</title>
<path fill="none" stroke="black" d="M1144,-122.02C1144,-139.37 1144,-163 1144,-163 1144,-163 839.31,-163 839.31,-163"/>
<polygon fill="black" stroke="black" points="839.31,-159.5 829.31,-163 839.31,-166.5 839.31,-159.5"/>
</g>
<!-- SlidableComponent -->
<g id="node4" class="node">
<title>SlidableComponent</title>
<polygon fill="#ffffb3" stroke="black" points="1065.72,-122 938.28,-122 938.28,-86 1065.72,-86 1065.72,-122"/>
<text text-anchor="middle" x="1002" y="-99.8" font-family="Times,serif" font-size="14.00">SlidableComponent</text>
</g>
<!-- SlidableComponent&#45;&gt;OverviewModule -->
<g id="edge4" class="edge">
<title>SlidableComponent&#45;&gt;OverviewModule</title>
<path fill="none" stroke="black" d="M969.2,-122.24C969.2,-137.57 969.2,-157 969.2,-157 969.2,-157 839.3,-157 839.3,-157"/>
<polygon fill="black" stroke="black" points="839.3,-153.5 829.3,-157 839.3,-160.5 839.3,-153.5"/>
</g>
<!-- TodoCardComponent -->
<g id="node5" class="node">
<title>TodoCardComponent</title>
<polygon fill="#ffffb3" stroke="black" points="920.1,-122 781.9,-122 781.9,-86 920.1,-86 920.1,-122"/>
<text text-anchor="middle" x="851" y="-99.8" font-family="Times,serif" font-size="14.00">TodoCardComponent</text>
</g>
<!-- TodoCardComponent&#45;&gt;OverviewModule -->
<g id="edge5" class="edge">
<title>TodoCardComponent&#45;&gt;OverviewModule</title>
<path fill="none" stroke="black" d="M805.66,-122.11C805.66,-122.11 805.66,-140.99 805.66,-140.99"/>
<polygon fill="black" stroke="black" points="802.16,-140.99 805.66,-150.99 809.16,-140.99 802.16,-140.99"/>
</g>
<!-- FastFeedbackModule  -->
<g id="node10" class="node">
<title>FastFeedbackModule </title>
<polygon fill="#fb8072" stroke="black" points="1000.02,-252 859.98,-252 859.98,-216 1000.02,-216 1000.02,-252"/>
<text text-anchor="middle" x="930" y="-229.8" font-family="Times,serif" font-size="14.00">FastFeedbackModule </text>
</g>
<!-- OverviewModule&#45;&gt;FastFeedbackModule  -->
<g id="edge9" class="edge">
<title>OverviewModule&#45;&gt;FastFeedbackModule </title>
<path fill="none" stroke="black" stroke-dasharray="5,2" d="M829.28,-181C859.35,-181 890.02,-181 890.02,-181 890.02,-181 890.02,-205.76 890.02,-205.76"/>
<polygon fill="black" stroke="black" points="886.52,-205.76 890.02,-215.76 893.52,-205.76 886.52,-205.76"/>
</g>
<!-- OverviewComponent  -->
<g id="node11" class="node">
<title>OverviewComponent </title>
<polygon fill="#fb8072" stroke="black" points="842.03,-252 701.97,-252 701.97,-216 842.03,-216 842.03,-252"/>
<text text-anchor="middle" x="772" y="-229.8" font-family="Times,serif" font-size="14.00">OverviewComponent </text>
</g>
<!-- OverviewModule&#45;&gt;OverviewComponent  -->
<g id="edge10" class="edge">
<title>OverviewModule&#45;&gt;OverviewComponent </title>
<path fill="none" stroke="black" stroke-dasharray="5,2" d="M772,-187.11C772,-187.11 772,-205.99 772,-205.99"/>
<polygon fill="black" stroke="black" points="768.5,-205.99 772,-215.99 775.5,-205.99 768.5,-205.99"/>
</g>
<!-- SharedModule  -->
<g id="node12" class="node">
<title>SharedModule </title>
<polygon fill="#fb8072" stroke="black" points="683.92,-252 582.08,-252 582.08,-216 683.92,-216 683.92,-252"/>
<text text-anchor="middle" x="633" y="-229.8" font-family="Times,serif" font-size="14.00">SharedModule </text>
</g>
<!-- OverviewModule&#45;&gt;SharedModule  -->
<g id="edge11" class="edge">
<title>OverviewModule&#45;&gt;SharedModule </title>
<path fill="none" stroke="black" stroke-dasharray="5,2" d="M714.59,-181C685.89,-181 657.19,-181 657.19,-181 657.19,-181 657.19,-205.76 657.19,-205.76"/>
<polygon fill="black" stroke="black" points="653.69,-205.76 657.19,-215.76 660.69,-205.76 653.69,-205.76"/>
</g>
<!-- FastFeedbackModule -->
<g id="node7" class="node">
<title>FastFeedbackModule</title>
<polygon fill="#8dd3c7" stroke="black" points="454.02,-122 451.02,-126 430.02,-126 427.02,-122 317.98,-122 317.98,-86 454.02,-86 454.02,-122"/>
<text text-anchor="middle" x="386" y="-99.8" font-family="Times,serif" font-size="14.00">FastFeedbackModule</text>
</g>
<!-- FastFeedbackModule&#45;&gt;OverviewModule -->
<g id="edge6" class="edge">
<title>FastFeedbackModule&#45;&gt;OverviewModule</title>
<path fill="none" stroke="black" d="M386,-122.02C386,-139.37 386,-163 386,-163 386,-163 704.63,-163 704.63,-163"/>
<polygon fill="black" stroke="black" points="704.63,-166.5 714.63,-163 704.63,-159.5 704.63,-166.5"/>
</g>
<!-- OverviewRoutingModule -->
<g id="node8" class="node">
<title>OverviewRoutingModule</title>
<polygon fill="#8dd3c7" stroke="black" points="299.86,-122 296.86,-126 275.86,-126 272.86,-122 140.14,-122 140.14,-86 299.86,-86 299.86,-122"/>
<text text-anchor="middle" x="220" y="-99.8" font-family="Times,serif" font-size="14.00">OverviewRoutingModule</text>
</g>
<!-- OverviewRoutingModule&#45;&gt;OverviewModule -->
<g id="edge7" class="edge">
<title>OverviewRoutingModule&#45;&gt;OverviewModule</title>
<path fill="none" stroke="black" d="M220,-122.11C220,-141.34 220,-169 220,-169 220,-169 704.75,-169 704.75,-169"/>
<polygon fill="black" stroke="black" points="704.75,-172.5 714.75,-169 704.75,-165.5 704.75,-172.5"/>
</g>
<!-- SharedModule -->
<g id="node9" class="node">
<title>SharedModule</title>
<polygon fill="#8dd3c7" stroke="black" points="122.42,-122 119.42,-126 98.42,-126 95.42,-122 23.58,-122 23.58,-86 122.42,-86 122.42,-122"/>
<text text-anchor="middle" x="73" y="-99.8" font-family="Times,serif" font-size="14.00">SharedModule</text>
</g>
<!-- SharedModule&#45;&gt;OverviewModule -->
<g id="edge8" class="edge">
<title>SharedModule&#45;&gt;OverviewModule</title>
<path fill="none" stroke="black" d="M73,-122.28C73,-143.32 73,-175 73,-175 73,-175 704.5,-175 704.5,-175"/>
<polygon fill="black" stroke="black" points="704.5,-178.5 714.5,-175 704.5,-171.5 704.5,-178.5"/>
</g>
<!-- HomeService -->
<g id="node13" class="node">
<title>HomeService</title>
<ellipse fill="#fdb462" stroke="black" cx="694" cy="-104" rx="63.68" ry="18"/>
<text text-anchor="middle" x="694" y="-99.8" font-family="Times,serif" font-size="14.00">HomeService</text>
</g>
<!-- HomeService&#45;&gt;OverviewModule -->
<g id="edge12" class="edge">
<title>HomeService&#45;&gt;OverviewModule</title>
<path fill="none" stroke="black" d="M736.11,-117.78C736.11,-117.78 736.11,-140.55 736.11,-140.55"/>
<polygon fill="black" stroke="black" points="732.61,-140.55 736.11,-150.55 739.61,-140.55 732.61,-140.55"/>
</g>
<!-- ProjectService -->
<g id="node14" class="node">
<title>ProjectService</title>
<ellipse fill="#fdb462" stroke="black" cx="545" cy="-104" rx="67.19" ry="18"/>
<text text-anchor="middle" x="545" y="-99.8" font-family="Times,serif" font-size="14.00">ProjectService</text>
</g>
<!-- ProjectService&#45;&gt;OverviewModule -->
<g id="edge13" class="edge">
<title>ProjectService&#45;&gt;OverviewModule</title>
<path fill="none" stroke="black" d="M597.19,-115.5C597.19,-131.09 597.19,-157 597.19,-157 597.19,-157 704.28,-157 704.28,-157"/>
<polygon fill="black" stroke="black" points="704.28,-160.5 714.28,-157 704.28,-153.5 704.28,-160.5"/>
</g>
</g>
</svg>
