<?xml version="1.0" encoding="UTF-8" standalone="no"?>
<!DOCTYPE svg PUBLIC "-//W3C//DTD SVG 1.1//EN"
 "http://www.w3.org/Graphics/SVG/1.1/DTD/svg11.dtd">
<!-- Generated by graphviz version 2.44.1 (20200629.0846)
 -->
<!-- Title: dependencies Pages: 1 -->
<svg width="1361pt" height="284pt"
 viewBox="0.00 0.00 1361.00 284.00" xmlns="http://www.w3.org/2000/svg" xmlns:xlink="http://www.w3.org/1999/xlink">
<g id="graph0" class="graph" transform="scale(1 1) rotate(0) translate(4 280)">
<title>dependencies</title>
<polygon fill="white" stroke="transparent" points="-4,4 -4,-280 1357,-280 1357,4 -4,4"/>
<text text-anchor="start" x="655.51" y="-42.4" font-family="sans-serif" font-weight="bold" font-size="14.00">Legend</text>
<polygon fill="#ffffb3" stroke="transparent" points="442.5,-10 442.5,-30 462.5,-30 462.5,-10 442.5,-10"/>
<text text-anchor="start" x="466.13" y="-15.4" font-family="sans-serif" font-size="14.00"> &#160;Declarations</text>
<polygon fill="#8dd3c7" stroke="transparent" points="555.5,-10 555.5,-30 575.5,-30 575.5,-10 555.5,-10"/>
<text text-anchor="start" x="579.23" y="-15.4" font-family="sans-serif" font-size="14.00"> &#160;Module</text>
<polygon fill="#80b1d3" stroke="transparent" points="641.5,-10 641.5,-30 661.5,-30 661.5,-10 641.5,-10"/>
<text text-anchor="start" x="665.28" y="-15.4" font-family="sans-serif" font-size="14.00"> &#160;Bootstrap</text>
<polygon fill="#fdb462" stroke="transparent" points="738.5,-10 738.5,-30 758.5,-30 758.5,-10 738.5,-10"/>
<text text-anchor="start" x="762.17" y="-15.4" font-family="sans-serif" font-size="14.00"> &#160;Providers</text>
<polygon fill="#fb8072" stroke="transparent" points="834.5,-10 834.5,-30 854.5,-30 854.5,-10 834.5,-10"/>
<text text-anchor="start" x="858.23" y="-15.4" font-family="sans-serif" font-size="14.00"> &#160;Exports</text>
<g id="clust1" class="cluster">
<title>cluster_QuestionsModule</title>
<polygon fill="none" stroke="black" stroke-dasharray="1,5" points="8,-70 8,-268 1345,-268 1345,-70 8,-70"/>
</g>
<g id="clust11" class="cluster">
<title>cluster_QuestionsModule_exports</title>
<polygon fill="none" stroke="black" points="268,-208 268,-260 1035,-260 1035,-208 268,-208"/>
</g>
<g id="clust2" class="cluster">
<title>cluster_QuestionsModule_declarations</title>
<polygon fill="none" stroke="black" points="266,-78 266,-130 1337,-130 1337,-78 266,-78"/>
</g>
<g id="clust10" class="cluster">
<title>cluster_QuestionsModule_imports</title>
<polygon fill="none" stroke="black" points="16,-78 16,-130 258,-130 258,-78 16,-78"/>
</g>
<!-- FileComponent -->
<g id="node1" class="node">
<title>FileComponent</title>
<polygon fill="#ffffb3" stroke="black" points="1328.61,-122 1225.39,-122 1225.39,-86 1328.61,-86 1328.61,-122"/>
<text text-anchor="middle" x="1277" y="-99.8" font-family="Times,serif" font-size="14.00">FileComponent</text>
</g>
<!-- QuestionsModule -->
<g id="node8" class="node">
<title>QuestionsModule</title>
<polygon fill="#8dd3c7" stroke="black" points="749.54,-187 746.54,-191 725.54,-191 722.54,-187 634.46,-187 634.46,-151 749.54,-151 749.54,-187"/>
<text text-anchor="middle" x="692" y="-164.8" font-family="Times,serif" font-size="14.00">QuestionsModule</text>
</g>
<!-- FileComponent&#45;&gt;QuestionsModule -->
<g id="edge1" class="edge">
<title>FileComponent&#45;&gt;QuestionsModule</title>
<path fill="none" stroke="black" d="M1277,-122.22C1277,-142.37 1277,-172 1277,-172 1277,-172 759.69,-172 759.69,-172"/>
<polygon fill="black" stroke="black" points="759.69,-168.5 749.69,-172 759.69,-175.5 759.69,-168.5"/>
</g>
<!-- FileDisplayComponent -->
<g id="node2" class="node">
<title>FileDisplayComponent</title>
<polygon fill="#ffffb3" stroke="black" points="1207.16,-122 1060.84,-122 1060.84,-86 1207.16,-86 1207.16,-122"/>
<text text-anchor="middle" x="1134" y="-99.8" font-family="Times,serif" font-size="14.00">FileDisplayComponent</text>
</g>
<!-- FileDisplayComponent&#45;&gt;QuestionsModule -->
<g id="edge2" class="edge">
<title>FileDisplayComponent&#45;&gt;QuestionsModule</title>
<path fill="none" stroke="black" d="M1134,-122.22C1134,-140.83 1134,-167 1134,-167 1134,-167 759.78,-167 759.78,-167"/>
<polygon fill="black" stroke="black" points="759.78,-163.5 749.78,-167 759.78,-170.5 759.78,-163.5"/>
</g>
<!-- MultipleComponent -->
<g id="node3" class="node">
<title>MultipleComponent</title>
<polygon fill="#ffffb3" stroke="black" points="1042.55,-122 913.45,-122 913.45,-86 1042.55,-86 1042.55,-122"/>
<text text-anchor="middle" x="978" y="-99.8" font-family="Times,serif" font-size="14.00">MultipleComponent</text>
</g>
<!-- MultipleComponent&#45;&gt;QuestionsModule -->
<g id="edge3" class="edge">
<title>MultipleComponent&#45;&gt;QuestionsModule</title>
<path fill="none" stroke="black" d="M916.96,-122.03C916.96,-139.06 916.96,-162 916.96,-162 916.96,-162 759.64,-162 759.64,-162"/>
<polygon fill="black" stroke="black" points="759.64,-158.5 749.64,-162 759.64,-165.5 759.64,-158.5"/>
</g>
<!-- OneofComponent -->
<g id="node4" class="node">
<title>OneofComponent</title>
<polygon fill="#ffffb3" stroke="black" points="895.31,-122 778.69,-122 778.69,-86 895.31,-86 895.31,-122"/>
<text text-anchor="middle" x="837" y="-99.8" font-family="Times,serif" font-size="14.00">OneofComponent</text>
</g>
<!-- OneofComponent&#45;&gt;QuestionsModule -->
<g id="edge4" class="edge">
<title>OneofComponent&#45;&gt;QuestionsModule</title>
<path fill="none" stroke="black" d="M837,-122.24C837,-137.57 837,-157 837,-157 837,-157 759.72,-157 759.72,-157"/>
<polygon fill="black" stroke="black" points="759.72,-153.5 749.72,-157 759.72,-160.5 759.72,-153.5"/>
</g>
<!-- QuestionsComponent -->
<g id="node5" class="node">
<title>QuestionsComponent</title>
<polygon fill="#ffffb3" stroke="black" points="760.82,-122 623.18,-122 623.18,-86 760.82,-86 760.82,-122"/>
<text text-anchor="middle" x="692" y="-99.8" font-family="Times,serif" font-size="14.00">QuestionsComponent</text>
</g>
<!-- QuestionsComponent&#45;&gt;QuestionsModule -->
<g id="edge5" class="edge">
<title>QuestionsComponent&#45;&gt;QuestionsModule</title>
<path fill="none" stroke="black" d="M692,-122.11C692,-122.11 692,-140.99 692,-140.99"/>
<polygon fill="black" stroke="black" points="688.5,-140.99 692,-150.99 695.5,-140.99 688.5,-140.99"/>
</g>
<!-- TeamMemberSelectorComponent -->
<g id="node6" class="node">
<title>TeamMemberSelectorComponent</title>
<polygon fill="#ffffb3" stroke="black" points="605.5,-122 398.5,-122 398.5,-86 605.5,-86 605.5,-122"/>
<text text-anchor="middle" x="502" y="-99.8" font-family="Times,serif" font-size="14.00">TeamMemberSelectorComponent</text>
</g>
<!-- TeamMemberSelectorComponent&#45;&gt;QuestionsModule -->
<g id="edge6" class="edge">
<title>TeamMemberSelectorComponent&#45;&gt;QuestionsModule</title>
<path fill="none" stroke="black" d="M504.62,-122.24C504.62,-137.57 504.62,-157 504.62,-157 504.62,-157 624.25,-157 624.25,-157"/>
<polygon fill="black" stroke="black" points="624.25,-160.5 634.25,-157 624.25,-153.5 624.25,-160.5"/>
</g>
<!-- TextComponent -->
<g id="node7" class="node">
<title>TextComponent</title>
<polygon fill="#ffffb3" stroke="black" points="380.49,-122 273.51,-122 273.51,-86 380.49,-86 380.49,-122"/>
<text text-anchor="middle" x="327" y="-99.8" font-family="Times,serif" font-size="14.00">TextComponent</text>
</g>
<!-- TextComponent&#45;&gt;QuestionsModule -->
<g id="edge7" class="edge">
<title>TextComponent&#45;&gt;QuestionsModule</title>
<path fill="none" stroke="black" d="M310.67,-122.03C310.67,-139.06 310.67,-162 310.67,-162 310.67,-162 624.08,-162 624.08,-162"/>
<polygon fill="black" stroke="black" points="624.08,-165.5 634.08,-162 624.08,-158.5 624.08,-165.5"/>
</g>
<!-- FileComponent  -->
<g id="node11" class="node">
<title>FileComponent </title>
<polygon fill="#fb8072" stroke="black" points="1027.11,-252 920.89,-252 920.89,-216 1027.11,-216 1027.11,-252"/>
<text text-anchor="middle" x="974" y="-229.8" font-family="Times,serif" font-size="14.00">FileComponent </text>
</g>
<!-- QuestionsModule&#45;&gt;FileComponent  -->
<g id="edge10" class="edge">
<title>QuestionsModule&#45;&gt;FileComponent </title>
<path fill="none" stroke="black" stroke-dasharray="5,2" d="M749.75,-177C832.25,-177 974,-177 974,-177 974,-177 974,-205.96 974,-205.96"/>
<polygon fill="black" stroke="black" points="970.5,-205.96 974,-215.96 977.5,-205.96 970.5,-205.96"/>
</g>
<!-- MultipleComponent  -->
<g id="node12" class="node">
<title>MultipleComponent </title>
<polygon fill="#fb8072" stroke="black" points="902.55,-252 769.45,-252 769.45,-216 902.55,-216 902.55,-252"/>
<text text-anchor="middle" x="836" y="-229.8" font-family="Times,serif" font-size="14.00">MultipleComponent </text>
</g>
<!-- QuestionsModule&#45;&gt;MultipleComponent  -->
<g id="edge11" class="edge">
<title>QuestionsModule&#45;&gt;MultipleComponent </title>
<path fill="none" stroke="black" stroke-dasharray="5,2" d="M749.95,-182C763.55,-182 774.16,-182 774.16,-182 774.16,-182 774.16,-205.81 774.16,-205.81"/>
<polygon fill="black" stroke="black" points="770.66,-205.81 774.16,-215.81 777.66,-205.81 770.66,-205.81"/>
</g>
<!-- OneofComponent  -->
<g id="node13" class="node">
<title>OneofComponent </title>
<polygon fill="#fb8072" stroke="black" points="751.81,-252 632.19,-252 632.19,-216 751.81,-216 751.81,-252"/>
<text text-anchor="middle" x="692" y="-229.8" font-family="Times,serif" font-size="14.00">OneofComponent </text>
</g>
<!-- QuestionsModule&#45;&gt;OneofComponent  -->
<g id="edge12" class="edge">
<title>QuestionsModule&#45;&gt;OneofComponent </title>
<path fill="none" stroke="black" stroke-dasharray="5,2" d="M692,-187.11C692,-187.11 692,-205.99 692,-205.99"/>
<polygon fill="black" stroke="black" points="688.5,-205.99 692,-215.99 695.5,-205.99 688.5,-205.99"/>
</g>
<!-- TeamMemberSelectorComponent  -->
<g id="node14" class="node">
<title>TeamMemberSelectorComponent </title>
<polygon fill="#fb8072" stroke="black" points="614,-252 404,-252 404,-216 614,-216 614,-252"/>
<text text-anchor="middle" x="509" y="-229.8" font-family="Times,serif" font-size="14.00">TeamMemberSelectorComponent </text>
</g>
<!-- QuestionsModule&#45;&gt;TeamMemberSelectorComponent  -->
<g id="edge13" class="edge">
<title>QuestionsModule&#45;&gt;TeamMemberSelectorComponent </title>
<path fill="none" stroke="black" stroke-dasharray="5,2" d="M634.34,-182C620.5,-182 609.62,-182 609.62,-182 609.62,-182 609.62,-205.81 609.62,-205.81"/>
<polygon fill="black" stroke="black" points="606.12,-205.81 609.62,-215.81 613.12,-205.81 606.12,-205.81"/>
</g>
<!-- TextComponent  -->
<g id="node15" class="node">
<title>TextComponent </title>
<polygon fill="#fb8072" stroke="black" points="386.49,-252 275.51,-252 275.51,-216 386.49,-216 386.49,-252"/>
<text text-anchor="middle" x="331" y="-229.8" font-family="Times,serif" font-size="14.00">TextComponent </text>
</g>
<!-- QuestionsModule&#45;&gt;TextComponent  -->
<g id="edge14" class="edge">
<title>QuestionsModule&#45;&gt;TextComponent </title>
<path fill="none" stroke="black" stroke-dasharray="5,2" d="M634.41,-177C535.9,-177 345.58,-177 345.58,-177 345.58,-177 345.58,-205.96 345.58,-205.96"/>
<polygon fill="black" stroke="black" points="342.08,-205.96 345.58,-215.96 349.08,-205.96 342.08,-205.96"/>
</g>
<!-- FilestackModule -->
<g id="node9" class="node">
<title>FilestackModule</title>
<polygon fill="#8dd3c7" stroke="black" points="250.09,-122 247.09,-126 226.09,-126 223.09,-122 139.91,-122 139.91,-86 250.09,-86 250.09,-122"/>
<text text-anchor="middle" x="195" y="-99.8" font-family="Times,serif" font-size="14.00">FilestackModule</text>
</g>
<!-- FilestackModule&#45;&gt;QuestionsModule -->
<g id="edge8" class="edge">
<title>FilestackModule&#45;&gt;QuestionsModule</title>
<path fill="none" stroke="black" d="M195,-122.22C195,-140.83 195,-167 195,-167 195,-167 624.02,-167 624.02,-167"/>
<polygon fill="black" stroke="black" points="624.02,-170.5 634.02,-167 624.02,-163.5 624.02,-170.5"/>
</g>
<!-- SharedModule -->
<g id="node10" class="node">
<title>SharedModule</title>
<polygon fill="#8dd3c7" stroke="black" points="122.42,-122 119.42,-126 98.42,-126 95.42,-122 23.58,-122 23.58,-86 122.42,-86 122.42,-122"/>
<text text-anchor="middle" x="73" y="-99.8" font-family="Times,serif" font-size="14.00">SharedModule</text>
</g>
<!-- SharedModule&#45;&gt;QuestionsModule -->
<g id="edge9" class="edge">
<title>SharedModule&#45;&gt;QuestionsModule</title>
<path fill="none" stroke="black" d="M73,-122.22C73,-142.37 73,-172 73,-172 73,-172 624.32,-172 624.32,-172"/>
<polygon fill="black" stroke="black" points="624.32,-175.5 634.32,-172 624.32,-168.5 624.32,-175.5"/>
</g>
</g>
</svg>
